<svg xmlns="http://www.w3.org/2000/svg" xmlns:xlink="http://www.w3.org/1999/xlink" width="1080" zoomAndPan="magnify" viewBox="0 0 810 809.999993" height="1080" preserveAspectRatio="xMidYMid meet" version="1.0"><defs><g/><clipPath id="2cd239c6a7"><path d="M 327.742188 161.621094 L 673.265625 161.621094 L 673.265625 557 L 327.742188 557 Z M 327.742188 161.621094 " clip-rule="nonzero"/></clipPath><clipPath id="030d0894d3"><path d="M 341.796875 194.847656 L 640.886719 194.847656 L 640.886719 513.5 L 341.796875 513.5 Z M 341.796875 194.847656 " clip-rule="nonzero"/></clipPath><clipPath id="733e4a2d74"><path d="M 341.800781 194.847656 L 641.046875 194.847656 L 641.046875 513.597656 L 341.800781 513.597656 Z M 341.800781 194.847656 " clip-rule="nonzero"/></clipPath><clipPath id="ea9e15410e"><path d="M 204.300781 195.597656 L 298.070312 195.597656 L 298.070312 514.25 L 204.300781 514.25 Z M 204.300781 195.597656 " clip-rule="nonzero"/></clipPath><clipPath id="317dadd45a"><path d="M 204.300781 195.605469 L 298.050781 195.605469 L 298.050781 514.34375 L 204.300781 514.34375 Z M 204.300781 195.605469 " clip-rule="nonzero"/></clipPath><clipPath id="5030b1cf0f"><path d="M 350.242188 185.261719 L 649.332031 185.261719 L 649.332031 503.914062 L 350.242188 503.914062 Z M 350.242188 185.261719 " clip-rule="nonzero"/></clipPath><clipPath id="d1ea390223"><path d="M 350.246094 185.261719 L 649.492188 185.261719 L 649.492188 504.011719 L 350.246094 504.011719 Z M 350.246094 185.261719 " clip-rule="nonzero"/></clipPath><clipPath id="0e955cb47f"><path d="M 357.742188 174.371094 L 656.832031 174.371094 L 656.832031 493.023438 L 357.742188 493.023438 Z M 357.742188 174.371094 " clip-rule="nonzero"/></clipPath><clipPath id="66b474e359"><path d="M 357.746094 174.371094 L 656.992188 174.371094 L 656.992188 493.121094 L 357.746094 493.121094 Z M 357.746094 174.371094 " clip-rule="nonzero"/></clipPath><clipPath id="8ebf5d113d"><path d="M 211.800781 185.261719 L 305.570312 185.261719 L 305.570312 503.914062 L 211.800781 503.914062 Z M 211.800781 185.261719 " clip-rule="nonzero"/></clipPath><clipPath id="475444424b"><path d="M 211.800781 185.269531 L 305.550781 185.269531 L 305.550781 504.003906 L 211.800781 504.003906 Z M 211.800781 185.269531 " clip-rule="nonzero"/></clipPath><clipPath id="a142850e32"><path d="M 219.890625 175.121094 L 313.65625 175.121094 L 313.65625 493.773438 L 219.890625 493.773438 Z M 219.890625 175.121094 " clip-rule="nonzero"/></clipPath><clipPath id="4a1a20e093"><path d="M 219.890625 175.125 L 313.640625 175.125 L 313.640625 493.863281 L 219.890625 493.863281 Z M 219.890625 175.125 " clip-rule="nonzero"/></clipPath><clipPath id="3b99422bf6"><path d="M 345.121094 592.726562 L 644.207031 592.726562 L 644.207031 686.492188 L 345.121094 686.492188 Z M 345.121094 592.726562 " clip-rule="nonzero"/></clipPath><clipPath id="bbe0d67470"><path d="M 344.96875 592.726562 L 644.199219 592.726562 L 644.199219 686.476562 L 344.96875 686.476562 Z M 344.96875 592.726562 " clip-rule="nonzero"/></clipPath><clipPath id="5f7ec26b04"><path d="M 353.566406 583.855469 L 652.65625 583.855469 L 652.65625 677.621094 L 353.566406 677.621094 Z M 353.566406 583.855469 " clip-rule="nonzero"/></clipPath><clipPath id="351d71cfdc"><path d="M 353.414062 583.855469 L 652.644531 583.855469 L 652.644531 677.605469 L 353.414062 677.605469 Z M 353.414062 583.855469 " clip-rule="nonzero"/></clipPath><clipPath id="f5ad5cc39a"><path d="M 361.066406 572.109375 L 660.15625 572.109375 L 660.15625 665.875 L 361.066406 665.875 Z M 361.066406 572.109375 " clip-rule="nonzero"/></clipPath><clipPath id="1a2fbe9d47"><path d="M 360.914062 572.109375 L 660.144531 572.109375 L 660.144531 665.859375 L 360.914062 665.859375 Z M 360.914062 572.109375 " clip-rule="nonzero"/></clipPath><clipPath id="149c01f842"><path d="M 357.742188 39.355469 L 656.828125 39.355469 L 656.828125 133.121094 L 357.742188 133.121094 Z M 357.742188 39.355469 " clip-rule="nonzero"/></clipPath><clipPath id="dcdae058e5"><path d="M 357.585938 39.355469 L 656.816406 39.355469 L 656.816406 133.105469 L 357.585938 133.105469 Z M 357.585938 39.355469 " clip-rule="nonzero"/></clipPath><clipPath id="b3e0c373ac"><path d="M 700.140625 174.371094 L 793.910156 174.371094 L 793.910156 493.023438 L 700.140625 493.023438 Z M 700.140625 174.371094 " clip-rule="nonzero"/></clipPath><clipPath id="5c4aa9a77c"><path d="M 700.140625 174.375 L 793.890625 174.375 L 793.890625 493.113281 L 700.140625 493.113281 Z M 700.140625 174.375 " clip-rule="nonzero"/></clipPath></defs><g clip-path="url(#2cd239c6a7)"><path fill="#76b900" d="M 327.742188 161.621094 L 673.257812 161.621094 L 673.257812 556.496094 L 327.742188 556.496094 Z M 327.742188 161.621094 " fill-opacity="1" fill-rule="nonzero"/></g><g clip-path="url(#030d0894d3)"><path fill="#31725c" d="M 341.796875 194.847656 L 641.75 194.847656 L 641.75 513.785156 L 341.796875 513.785156 Z M 341.796875 194.847656 " fill-opacity="1" fill-rule="nonzero"/></g><g clip-path="url(#733e4a2d74)"><path stroke-linecap="butt" transform="matrix(0.750411, 0, 0, 0.750248, 341.801178, 194.848765)" fill="none" stroke-linejoin="miter" d="M -0.00052805 -0.00147731 L 398.775499 -0.00147731 L 398.775499 424.857871 L -0.00052805 424.857871 L -0.00052805 -0.00147731 " stroke="#000000" stroke-width="4" stroke-opacity="1" stroke-miterlimit="4"/></g><g clip-path="url(#ea9e15410e)"><path fill="#7600b9" d="M 204.300781 195.597656 L 299.222656 195.597656 L 299.222656 514.535156 L 204.300781 514.535156 Z M 204.300781 195.597656 " fill-opacity="1" fill-rule="nonzero"/></g><g clip-path="url(#317dadd45a)"><path stroke-linecap="butt" transform="matrix(0.749906, 0, 0, 0.750248, 204.302192, 195.605019)" fill="none" stroke-linejoin="miter" d="M -0.00188073 0.000599522 L 125.013748 0.000599522 L 125.013748 424.844328 L -0.00188073 424.844328 L -0.00188073 0.000599522 " stroke="#000000" stroke-width="4" stroke-opacity="1" stroke-miterlimit="4"/></g><g clip-path="url(#5030b1cf0f)"><path fill="#31725c" d="M 350.242188 185.261719 L 650.195312 185.261719 L 650.195312 504.199219 L 350.242188 504.199219 Z M 350.242188 185.261719 " fill-opacity="1" fill-rule="nonzero"/></g><g clip-path="url(#d1ea390223)"><path stroke-linecap="butt" transform="matrix(0.750411, 0, 0, 0.750248, 350.246823, 185.261802)" fill="none" stroke-linejoin="miter" d="M -0.000971373 -0.000110803 L 398.775056 -0.000110803 L 398.775056 424.859238 L -0.000971373 424.859238 L -0.000971373 -0.000110803 " stroke="#000000" stroke-width="4" stroke-opacity="1" stroke-miterlimit="4"/></g><g clip-path="url(#0e955cb47f)"><path fill="#31725c" d="M 357.742188 174.371094 L 657.695312 174.371094 L 657.695312 493.308594 L 357.742188 493.308594 Z M 357.742188 174.371094 " fill-opacity="1" fill-rule="nonzero"/></g><g clip-path="url(#66b474e359)"><path stroke-linecap="butt" transform="matrix(0.750411, 0, 0, 0.750248, 357.746822, 174.370499)" fill="none" stroke-linejoin="miter" d="M -0.00097087 0.000792434 L 398.775056 0.000792434 L 398.775056 424.860141 L -0.00097087 424.860141 L -0.00097087 0.000792434 " stroke="#000000" stroke-width="4" stroke-opacity="1" stroke-miterlimit="4"/></g><g clip-path="url(#8ebf5d113d)"><path fill="#7600b9" d="M 211.800781 185.261719 L 306.722656 185.261719 L 306.722656 504.199219 L 211.800781 504.199219 Z M 211.800781 185.261719 " fill-opacity="1" fill-rule="nonzero"/></g><g clip-path="url(#475444424b)"><path stroke-linecap="butt" transform="matrix(0.749906, 0, 0, 0.750248, 211.802191, 185.268059)" fill="none" stroke-linejoin="miter" d="M -0.00188023 0.00196278 L 125.013748 0.00196278 L 125.013748 424.840485 L -0.00188023 424.840485 L -0.00188023 0.00196278 " stroke="#000000" stroke-width="4" stroke-opacity="1" stroke-miterlimit="4"/></g><g clip-path="url(#a142850e32)"><path fill="#7600b9" d="M 219.890625 175.121094 L 314.8125 175.121094 L 314.8125 494.058594 L 219.890625 494.058594 Z M 219.890625 175.121094 " fill-opacity="1" fill-rule="nonzero"/></g><g clip-path="url(#4a1a20e093)"><path stroke-linecap="butt" transform="matrix(0.749906, 0, 0, 0.750248, 219.889152, 175.126754)" fill="none" stroke-linejoin="miter" d="M 0.00196473 -0.00233735 L 125.017593 -0.00233735 L 125.017593 424.841392 L 0.00196473 424.841392 L 0.00196473 -0.00233735 " stroke="#000000" stroke-width="4" stroke-opacity="1" stroke-miterlimit="4"/></g><g clip-path="url(#3b99422bf6)"><path fill="#0076b9" d="M 644.207031 592.726562 L 644.207031 687.648438 L 344.253906 687.648438 L 344.253906 592.726562 Z M 644.207031 592.726562 " fill-opacity="1" fill-rule="nonzero"/></g><g clip-path="url(#bbe0d67470)"><path stroke-linecap="butt" transform="matrix(0.000000000000000046, 0.749906, -0.750411, 0.000000000000000046, 644.199691, 592.72487)" fill="none" stroke-linejoin="miter" d="M 0.00225671 0.000629443 L 125.017885 0.000629443 L 125.017885 398.755835 L 0.00225671 398.755835 L 0.00225671 0.000629443 " stroke="#000000" stroke-width="4" stroke-opacity="1" stroke-miterlimit="4"/></g><g clip-path="url(#5f7ec26b04)"><path fill="#0076b9" d="M 652.65625 583.855469 L 652.65625 678.777344 L 352.703125 678.777344 L 352.703125 583.855469 Z M 652.65625 583.855469 " fill-opacity="1" fill-rule="nonzero"/></g><g clip-path="url(#351d71cfdc)"><path stroke-linecap="butt" transform="matrix(0.000000000000000046, 0.749906, -0.750411, 0.000000000000000046, 652.645339, 583.855311)" fill="none" stroke-linejoin="miter" d="M 0.000210857 0.00107596 L 125.015839 0.00107596 L 125.015839 398.756281 L 0.000210857 398.756281 L 0.000210857 0.00107596 " stroke="#000000" stroke-width="4" stroke-opacity="1" stroke-miterlimit="4"/></g><g clip-path="url(#f5ad5cc39a)"><path fill="#0076b9" d="M 660.15625 572.109375 L 660.15625 667.03125 L 360.203125 667.03125 L 360.203125 572.109375 Z M 660.15625 572.109375 " fill-opacity="1" fill-rule="nonzero"/></g><g clip-path="url(#1a2fbe9d47)"><path stroke-linecap="butt" transform="matrix(0.000000000000000046, 0.749906, -0.750411, 0.000000000000000046, 660.145338, 572.108655)" fill="none" stroke-linejoin="miter" d="M 0.000959829 0.00107546 L 125.016588 0.00107546 L 125.016588 398.756281 L 0.000959829 398.756281 L 0.000959829 0.00107546 " stroke="#000000" stroke-width="4" stroke-opacity="1" stroke-miterlimit="4"/></g><g clip-path="url(#149c01f842)"><path fill="#59bdd1" d="M 656.828125 39.355469 L 656.828125 134.277344 L 356.875 134.277344 L 356.875 39.355469 Z M 656.828125 39.355469 " fill-opacity="1" fill-rule="nonzero"/></g><g clip-path="url(#dcdae058e5)"><path stroke-linecap="butt" transform="matrix(0.000000000000000046, 0.749906, -0.750411, 0.000000000000000046, 656.818266, 39.355316)" fill="none" stroke-linejoin="miter" d="M 0.000203772 0.00247892 L 125.015832 0.00247892 L 125.015832 398.757684 L 0.000203772 398.757684 L 0.000203772 0.00247892 " stroke="#000000" stroke-width="4" stroke-opacity="1" stroke-miterlimit="4"/></g><g clip-path="url(#b3e0c373ac)"><path fill="#b90076" d="M 700.140625 174.371094 L 795.0625 174.371094 L 795.0625 493.308594 L 700.140625 493.308594 Z M 700.140625 174.371094 " fill-opacity="1" fill-rule="nonzero"/></g><g clip-path="url(#5c4aa9a77c)"><path stroke-linecap="butt" transform="matrix(0.749906, 0, 0, 0.750248, 700.14244, 174.376754)" fill="none" stroke-linejoin="miter" d="M -0.00242067 -0.0023374 L 125.013208 -0.0023374 L 125.013208 424.841392 L -0.00242067 424.841392 L -0.00242067 -0.0023374 " stroke="#000000" stroke-width="4" stroke-opacity="1" stroke-miterlimit="4"/></g><path stroke-linecap="butt" transform="matrix(0.749468, 0, 0, 0.75, 357.743746, 144.995506)" fill="none" stroke-linejoin="miter" d="M -0.00207881 2.000783 L 110.086473 2.000783 " stroke="#71a4ba" stroke-width="4" stroke-opacity="1" stroke-miterlimit="4"/><path stroke-linecap="butt" transform="matrix(0.752328, 0, 0, 0.75, 581.311726, 143.495506)" fill="none" stroke-linejoin="miter" d="M 0.00102847 2.000783 L 100.693727 2.000783 " stroke="#71a4ba" stroke-width="4" stroke-opacity="1" stroke-miterlimit="4"/><path stroke-linecap="butt" transform="matrix(0.000000000000000046, 0.751261, -0.75, 0.000000000000000046, 689.766305, 175.12167)" fill="none" stroke-linejoin="miter" d="M -0.000767562 2.000906 L 120.801306 2.000906 " stroke="#b90076" stroke-width="4" stroke-opacity="1" stroke-miterlimit="4"/><path stroke-linecap="butt" transform="matrix(0.000000000000000046, 0.751261, -0.75, 0.000000000000000046, 686.766305, 405.0012)" fill="none" stroke-linejoin="miter" d="M -0.00159681 2.000907 L 120.800477 2.000907 " stroke="#b90076" stroke-width="4" stroke-opacity="1" stroke-miterlimit="4"/><g fill="#31725c" fill-opacity="1"><g transform="translate(349.435152, 543.500921)"><g><path d="M 6.703125 0.3125 C 5.253906 0.3125 4.144531 -0.078125 3.375 -0.859375 C 2.613281 -1.648438 2.234375 -2.847656 2.234375 -4.453125 L 2.234375 -22.640625 L 6.28125 -22.640625 L 6.28125 -4.609375 C 6.28125 -3.628906 6.691406 -3.140625 7.515625 -3.140625 C 7.742188 -3.140625 7.992188 -3.175781 8.265625 -3.25 L 8.46875 -3.1875 L 8.828125 -0.078125 C 8.609375 0.046875 8.3125 0.140625 7.9375 0.203125 C 7.570312 0.273438 7.160156 0.3125 6.703125 0.3125 Z M 6.703125 0.3125 "/></g></g><g transform="translate(358.722261, 543.500921)"><g><path d="M 6.296875 0.3125 C 5.265625 0.3125 4.367188 0.125 3.609375 -0.25 C 2.847656 -0.632812 2.257812 -1.195312 1.84375 -1.9375 C 1.4375 -2.675781 1.234375 -3.5625 1.234375 -4.59375 C 1.234375 -5.550781 1.4375 -6.351562 1.84375 -7 C 2.257812 -7.65625 2.894531 -8.191406 3.75 -8.609375 C 4.613281 -9.023438 5.738281 -9.34375 7.125 -9.5625 C 8.082031 -9.71875 8.8125 -9.890625 9.3125 -10.078125 C 9.820312 -10.265625 10.164062 -10.472656 10.34375 -10.703125 C 10.519531 -10.941406 10.609375 -11.242188 10.609375 -11.609375 C 10.609375 -12.117188 10.425781 -12.507812 10.0625 -12.78125 C 9.695312 -13.0625 9.097656 -13.203125 8.265625 -13.203125 C 7.367188 -13.203125 6.515625 -13 5.703125 -12.59375 C 4.890625 -12.195312 4.1875 -11.671875 3.59375 -11.015625 L 3.296875 -11.015625 L 1.59375 -13.578125 C 2.414062 -14.484375 3.414062 -15.191406 4.59375 -15.703125 C 5.78125 -16.210938 7.070312 -16.46875 8.46875 -16.46875 C 10.601562 -16.46875 12.148438 -16.007812 13.109375 -15.09375 C 14.066406 -14.1875 14.546875 -12.898438 14.546875 -11.234375 L 14.546875 -4.21875 C 14.546875 -3.5 14.863281 -3.140625 15.5 -3.140625 C 15.738281 -3.140625 15.976562 -3.179688 16.21875 -3.265625 L 16.421875 -3.203125 L 16.71875 -0.375 C 16.488281 -0.226562 16.171875 -0.109375 15.765625 -0.015625 C 15.367188 0.078125 14.929688 0.125 14.453125 0.125 C 13.492188 0.125 12.738281 -0.0625 12.1875 -0.4375 C 11.644531 -0.8125 11.257812 -1.394531 11.03125 -2.1875 L 10.71875 -2.21875 C 9.925781 -0.53125 8.453125 0.3125 6.296875 0.3125 Z M 7.59375 -2.71875 C 8.53125 -2.71875 9.273438 -3.03125 9.828125 -3.65625 C 10.390625 -4.289062 10.671875 -5.171875 10.671875 -6.296875 L 10.671875 -7.9375 L 10.40625 -8 C 10.15625 -7.800781 9.832031 -7.632812 9.4375 -7.5 C 9.039062 -7.375 8.472656 -7.25 7.734375 -7.125 C 6.859375 -6.976562 6.226562 -6.722656 5.84375 -6.359375 C 5.457031 -6.003906 5.265625 -5.5 5.265625 -4.84375 C 5.265625 -4.15625 5.46875 -3.628906 5.875 -3.265625 C 6.28125 -2.898438 6.851562 -2.71875 7.59375 -2.71875 Z M 7.59375 -2.71875 "/></g></g><g transform="translate(375.758393, 543.500921)"><g><path d="M 3.578125 6.859375 C 2.878906 6.859375 2.25 6.800781 1.6875 6.6875 C 1.125 6.582031 0.671875 6.441406 0.328125 6.265625 L 0.96875 2.984375 L 1.234375 2.90625 C 1.472656 3.03125 1.773438 3.128906 2.140625 3.203125 C 2.503906 3.285156 2.875 3.328125 3.25 3.328125 C 3.90625 3.328125 4.445312 3.238281 4.875 3.0625 C 5.3125 2.894531 5.679688 2.613281 5.984375 2.21875 C 6.296875 1.820312 6.566406 1.273438 6.796875 0.578125 L 0.359375 -16.15625 L 4.59375 -16.15625 L 8.609375 -4.921875 L 8.96875 -4.921875 L 12.875 -16.15625 L 17 -16.15625 L 10.515625 1.015625 C 9.992188 2.398438 9.421875 3.515625 8.796875 4.359375 C 8.179688 5.203125 7.453125 5.828125 6.609375 6.234375 C 5.765625 6.648438 4.753906 6.859375 3.578125 6.859375 Z M 3.578125 6.859375 "/></g></g><g transform="translate(393.102142, 543.500921)"><g><path d="M 15.96875 -7.15625 L 5.578125 -7.15625 C 5.691406 -5.75 6.09375 -4.726562 6.78125 -4.09375 C 7.46875 -3.457031 8.398438 -3.140625 9.578125 -3.140625 C 10.503906 -3.140625 11.253906 -3.3125 11.828125 -3.65625 C 12.410156 -4 12.878906 -4.523438 13.234375 -5.234375 L 13.53125 -5.234375 L 16.234375 -3.5 C 15.703125 -2.363281 14.90625 -1.441406 13.84375 -0.734375 C 12.78125 -0.0351562 11.359375 0.3125 9.578125 0.3125 C 7.910156 0.3125 6.46875 -0.00390625 5.25 -0.640625 C 4.03125 -1.273438 3.09375 -2.21875 2.4375 -3.46875 C 1.78125 -4.726562 1.453125 -6.265625 1.453125 -8.078125 C 1.453125 -9.910156 1.796875 -11.457031 2.484375 -12.71875 C 3.179688 -13.976562 4.117188 -14.914062 5.296875 -15.53125 C 6.484375 -16.15625 7.8125 -16.46875 9.28125 -16.46875 C 11.570312 -16.46875 13.320312 -15.859375 14.53125 -14.640625 C 15.75 -13.429688 16.359375 -11.65625 16.359375 -9.3125 C 16.359375 -8.46875 16.332031 -7.8125 16.28125 -7.34375 Z M 12.484375 -9.78125 C 12.441406 -11.007812 12.15625 -11.90625 11.625 -12.46875 C 11.09375 -13.03125 10.3125 -13.3125 9.28125 -13.3125 C 7.238281 -13.3125 6.035156 -12.132812 5.671875 -9.78125 Z M 12.484375 -9.78125 "/></g></g><g transform="translate(410.665618, 543.500921)"><g><path d="M 2.328125 0 L 2.328125 -16.15625 L 6.265625 -16.15625 L 6.265625 -13.75 L 6.578125 -13.703125 C 6.960938 -14.597656 7.472656 -15.253906 8.109375 -15.671875 C 8.742188 -16.085938 9.519531 -16.296875 10.4375 -16.296875 C 11.351562 -16.296875 12.050781 -16.140625 12.53125 -15.828125 L 11.84375 -12.328125 L 11.53125 -12.28125 C 11.269531 -12.382812 11.015625 -12.457031 10.765625 -12.5 C 10.523438 -12.550781 10.226562 -12.578125 9.875 -12.578125 C 8.738281 -12.578125 7.875 -12.179688 7.28125 -11.390625 C 6.6875 -10.597656 6.390625 -9.320312 6.390625 -7.5625 L 6.390625 0 Z M 2.328125 0 "/></g></g><g transform="translate(423.336516, 543.500921)"><g><path d="M 7.5625 0.3125 C 6.457031 0.3125 5.445312 0.179688 4.53125 -0.078125 C 3.613281 -0.335938 2.828125 -0.691406 2.171875 -1.140625 C 1.523438 -1.597656 1.046875 -2.117188 0.734375 -2.703125 L 2.984375 -5.140625 L 3.296875 -5.140625 C 3.835938 -4.421875 4.472656 -3.878906 5.203125 -3.515625 C 5.929688 -3.148438 6.726562 -2.96875 7.59375 -2.96875 C 8.382812 -2.96875 8.976562 -3.109375 9.375 -3.390625 C 9.769531 -3.679688 9.96875 -4.085938 9.96875 -4.609375 C 9.96875 -5.023438 9.820312 -5.367188 9.53125 -5.640625 C 9.25 -5.921875 8.785156 -6.140625 8.140625 -6.296875 L 6 -6.8125 C 4.40625 -7.195312 3.238281 -7.78125 2.5 -8.5625 C 1.757812 -9.34375 1.390625 -10.34375 1.390625 -11.5625 C 1.390625 -12.5625 1.644531 -13.429688 2.15625 -14.171875 C 2.675781 -14.921875 3.398438 -15.488281 4.328125 -15.875 C 5.265625 -16.269531 6.351562 -16.46875 7.59375 -16.46875 C 9.039062 -16.46875 10.242188 -16.253906 11.203125 -15.828125 C 12.160156 -15.410156 12.910156 -14.851562 13.453125 -14.15625 L 11.28125 -11.8125 L 10.984375 -11.8125 C 10.535156 -12.3125 10.03125 -12.675781 9.46875 -12.90625 C 8.90625 -13.144531 8.28125 -13.265625 7.59375 -13.265625 C 5.988281 -13.265625 5.1875 -12.769531 5.1875 -11.78125 C 5.1875 -11.351562 5.332031 -11.007812 5.625 -10.75 C 5.925781 -10.488281 6.453125 -10.273438 7.203125 -10.109375 L 9.203125 -9.671875 C 10.835938 -9.316406 12.035156 -8.75 12.796875 -7.96875 C 13.554688 -7.195312 13.9375 -6.15625 13.9375 -4.84375 C 13.9375 -3.820312 13.679688 -2.921875 13.171875 -2.140625 C 12.660156 -1.359375 11.925781 -0.753906 10.96875 -0.328125 C 10.007812 0.0976562 8.875 0.3125 7.5625 0.3125 Z M 7.5625 0.3125 "/></g></g></g><g fill="#ffffff" fill-opacity="1"><g transform="translate(500.893562, 348.174847)"><g><path d="M 4.703125 0 L 0.359375 0 L 6.703125 -11.015625 L 0.671875 -21.421875 L 5.171875 -21.421875 L 9.609375 -13.734375 L 9.96875 -13.734375 L 14.484375 -21.421875 L 18.765625 -21.421875 L 12.734375 -11.015625 L 19.078125 0 L 14.59375 0 L 9.828125 -8.265625 L 9.46875 -8.265625 Z M 4.703125 0 "/></g></g></g><g fill="#ffffff" fill-opacity="1"><g transform="translate(466.871788, 630.240036)"><g><path d="M 11.125 0 L 6.28125 0 L 0.3125 -16.15625 L 4.5625 -16.15625 L 8.5625 -4.640625 L 8.90625 -4.640625 L 12.9375 -16.15625 L 17.078125 -16.15625 Z M 11.125 0 "/></g></g><g transform="translate(484.244834, 630.240036)"><g><path d="M 6.296875 0.3125 C 5.265625 0.3125 4.367188 0.125 3.609375 -0.25 C 2.847656 -0.632812 2.257812 -1.195312 1.84375 -1.9375 C 1.4375 -2.675781 1.234375 -3.5625 1.234375 -4.59375 C 1.234375 -5.550781 1.4375 -6.351562 1.84375 -7 C 2.257812 -7.65625 2.894531 -8.191406 3.75 -8.609375 C 4.613281 -9.023438 5.738281 -9.34375 7.125 -9.5625 C 8.082031 -9.71875 8.8125 -9.890625 9.3125 -10.078125 C 9.820312 -10.265625 10.164062 -10.472656 10.34375 -10.703125 C 10.519531 -10.941406 10.609375 -11.242188 10.609375 -11.609375 C 10.609375 -12.117188 10.425781 -12.507812 10.0625 -12.78125 C 9.695312 -13.0625 9.097656 -13.203125 8.265625 -13.203125 C 7.367188 -13.203125 6.515625 -13 5.703125 -12.59375 C 4.890625 -12.195312 4.1875 -11.671875 3.59375 -11.015625 L 3.296875 -11.015625 L 1.59375 -13.578125 C 2.414062 -14.484375 3.414062 -15.191406 4.59375 -15.703125 C 5.78125 -16.210938 7.070312 -16.46875 8.46875 -16.46875 C 10.601562 -16.46875 12.148438 -16.007812 13.109375 -15.09375 C 14.066406 -14.1875 14.546875 -12.898438 14.546875 -11.234375 L 14.546875 -4.21875 C 14.546875 -3.5 14.863281 -3.140625 15.5 -3.140625 C 15.738281 -3.140625 15.976562 -3.179688 16.21875 -3.265625 L 16.421875 -3.203125 L 16.71875 -0.375 C 16.488281 -0.226562 16.171875 -0.109375 15.765625 -0.015625 C 15.367188 0.078125 14.929688 0.125 14.453125 0.125 C 13.492188 0.125 12.738281 -0.0625 12.1875 -0.4375 C 11.644531 -0.8125 11.257812 -1.394531 11.03125 -2.1875 L 10.71875 -2.21875 C 9.925781 -0.53125 8.453125 0.3125 6.296875 0.3125 Z M 7.59375 -2.71875 C 8.53125 -2.71875 9.273438 -3.03125 9.828125 -3.65625 C 10.390625 -4.289062 10.671875 -5.171875 10.671875 -6.296875 L 10.671875 -7.9375 L 10.40625 -8 C 10.15625 -7.800781 9.832031 -7.632812 9.4375 -7.5 C 9.039062 -7.375 8.472656 -7.25 7.734375 -7.125 C 6.859375 -6.976562 6.226562 -6.722656 5.84375 -6.359375 C 5.457031 -6.003906 5.265625 -5.5 5.265625 -4.84375 C 5.265625 -4.15625 5.46875 -3.628906 5.875 -3.265625 C 6.28125 -2.898438 6.851562 -2.71875 7.59375 -2.71875 Z M 7.59375 -2.71875 "/></g></g><g transform="translate(501.280966, 630.240036)"><g><path d="M 2.328125 0 L 2.328125 -16.15625 L 6.265625 -16.15625 L 6.265625 -13.75 L 6.578125 -13.703125 C 6.960938 -14.597656 7.472656 -15.253906 8.109375 -15.671875 C 8.742188 -16.085938 9.519531 -16.296875 10.4375 -16.296875 C 11.351562 -16.296875 12.050781 -16.140625 12.53125 -15.828125 L 11.84375 -12.328125 L 11.53125 -12.28125 C 11.269531 -12.382812 11.015625 -12.457031 10.765625 -12.5 C 10.523438 -12.550781 10.226562 -12.578125 9.875 -12.578125 C 8.738281 -12.578125 7.875 -12.179688 7.28125 -11.390625 C 6.6875 -10.597656 6.390625 -9.320312 6.390625 -7.5625 L 6.390625 0 Z M 2.328125 0 "/></g></g><g transform="translate(513.951864, 630.240036)"><g><path d="M 2.328125 0 L 2.328125 -16.15625 L 6.21875 -16.15625 L 6.21875 -13.984375 L 6.53125 -13.9375 C 7.0625 -14.800781 7.679688 -15.4375 8.390625 -15.84375 C 9.097656 -16.257812 10.003906 -16.46875 11.109375 -16.46875 C 12.328125 -16.46875 13.304688 -16.222656 14.046875 -15.734375 C 14.785156 -15.253906 15.328125 -14.550781 15.671875 -13.625 L 15.984375 -13.625 C 16.484375 -14.59375 17.125 -15.304688 17.90625 -15.765625 C 18.695312 -16.234375 19.675781 -16.46875 20.84375 -16.46875 C 24.195312 -16.46875 25.875 -14.601562 25.875 -10.875 L 25.875 0 L 21.8125 0 L 21.8125 -10.359375 C 21.8125 -11.304688 21.625 -11.988281 21.25 -12.40625 C 20.882812 -12.820312 20.289062 -13.03125 19.46875 -13.03125 C 17.238281 -13.03125 16.125 -11.539062 16.125 -8.5625 L 16.125 0 L 12.078125 0 L 12.078125 -10.359375 C 12.078125 -11.304688 11.882812 -11.988281 11.5 -12.40625 C 11.125 -12.820312 10.53125 -13.03125 9.71875 -13.03125 C 8.664062 -13.03125 7.847656 -12.679688 7.265625 -11.984375 C 6.679688 -11.285156 6.390625 -10.175781 6.390625 -8.65625 L 6.390625 0 Z M 2.328125 0 "/></g></g></g><g fill="#ffffff" fill-opacity="1"><g transform="translate(483.744267, 99.357173)"><g><path d="M 11.125 0 L 6.28125 0 L 0.3125 -16.15625 L 4.5625 -16.15625 L 8.5625 -4.640625 L 8.90625 -4.640625 L 12.9375 -16.15625 L 17.078125 -16.15625 Z M 11.125 0 "/></g></g><g transform="translate(501.117313, 99.357173)"><g><path d="M 6.296875 0.3125 C 5.265625 0.3125 4.367188 0.125 3.609375 -0.25 C 2.847656 -0.632812 2.257812 -1.195312 1.84375 -1.9375 C 1.4375 -2.675781 1.234375 -3.5625 1.234375 -4.59375 C 1.234375 -5.550781 1.4375 -6.351562 1.84375 -7 C 2.257812 -7.65625 2.894531 -8.191406 3.75 -8.609375 C 4.613281 -9.023438 5.738281 -9.34375 7.125 -9.5625 C 8.082031 -9.71875 8.8125 -9.890625 9.3125 -10.078125 C 9.820312 -10.265625 10.164062 -10.472656 10.34375 -10.703125 C 10.519531 -10.941406 10.609375 -11.242188 10.609375 -11.609375 C 10.609375 -12.117188 10.425781 -12.507812 10.0625 -12.78125 C 9.695312 -13.0625 9.097656 -13.203125 8.265625 -13.203125 C 7.367188 -13.203125 6.515625 -13 5.703125 -12.59375 C 4.890625 -12.195312 4.1875 -11.671875 3.59375 -11.015625 L 3.296875 -11.015625 L 1.59375 -13.578125 C 2.414062 -14.484375 3.414062 -15.191406 4.59375 -15.703125 C 5.78125 -16.210938 7.070312 -16.46875 8.46875 -16.46875 C 10.601562 -16.46875 12.148438 -16.007812 13.109375 -15.09375 C 14.066406 -14.1875 14.546875 -12.898438 14.546875 -11.234375 L 14.546875 -4.21875 C 14.546875 -3.5 14.863281 -3.140625 15.5 -3.140625 C 15.738281 -3.140625 15.976562 -3.179688 16.21875 -3.265625 L 16.421875 -3.203125 L 16.71875 -0.375 C 16.488281 -0.226562 16.171875 -0.109375 15.765625 -0.015625 C 15.367188 0.078125 14.929688 0.125 14.453125 0.125 C 13.492188 0.125 12.738281 -0.0625 12.1875 -0.4375 C 11.644531 -0.8125 11.257812 -1.394531 11.03125 -2.1875 L 10.71875 -2.21875 C 9.925781 -0.53125 8.453125 0.3125 6.296875 0.3125 Z M 7.59375 -2.71875 C 8.53125 -2.71875 9.273438 -3.03125 9.828125 -3.65625 C 10.390625 -4.289062 10.671875 -5.171875 10.671875 -6.296875 L 10.671875 -7.9375 L 10.40625 -8 C 10.15625 -7.800781 9.832031 -7.632812 9.4375 -7.5 C 9.039062 -7.375 8.472656 -7.25 7.734375 -7.125 C 6.859375 -6.976562 6.226562 -6.722656 5.84375 -6.359375 C 5.457031 -6.003906 5.265625 -5.5 5.265625 -4.84375 C 5.265625 -4.15625 5.46875 -3.628906 5.875 -3.265625 C 6.28125 -2.898438 6.851562 -2.71875 7.59375 -2.71875 Z M 7.59375 -2.71875 "/></g></g><g transform="translate(518.153445, 99.357173)"><g><path d="M 2.328125 0 L 2.328125 -16.15625 L 6.265625 -16.15625 L 6.265625 -13.75 L 6.578125 -13.703125 C 6.960938 -14.597656 7.472656 -15.253906 8.109375 -15.671875 C 8.742188 -16.085938 9.519531 -16.296875 10.4375 -16.296875 C 11.351562 -16.296875 12.050781 -16.140625 12.53125 -15.828125 L 11.84375 -12.328125 L 11.53125 -12.28125 C 11.269531 -12.382812 11.015625 -12.457031 10.765625 -12.5 C 10.523438 -12.550781 10.226562 -12.578125 9.875 -12.578125 C 8.738281 -12.578125 7.875 -12.179688 7.28125 -11.390625 C 6.6875 -10.597656 6.390625 -9.320312 6.390625 -7.5625 L 6.390625 0 Z M 2.328125 0 "/></g></g></g><g fill="#ffffff" fill-opacity="1"><g transform="translate(718.267407, 337.837885)"><g><path d="M 9.390625 0.3125 C 7.804688 0.3125 6.414062 -0.0078125 5.21875 -0.65625 C 4.019531 -1.3125 3.09375 -2.265625 2.4375 -3.515625 C 1.78125 -4.773438 1.453125 -6.296875 1.453125 -8.078125 C 1.453125 -9.847656 1.78125 -11.363281 2.4375 -12.625 C 3.09375 -13.882812 4.019531 -14.835938 5.21875 -15.484375 C 6.414062 -16.140625 7.804688 -16.46875 9.390625 -16.46875 C 10.972656 -16.46875 12.363281 -16.140625 13.5625 -15.484375 C 14.757812 -14.835938 15.6875 -13.882812 16.34375 -12.625 C 17.007812 -11.363281 17.34375 -9.847656 17.34375 -8.078125 C 17.34375 -6.296875 17.007812 -4.773438 16.34375 -3.515625 C 15.6875 -2.265625 14.757812 -1.3125 13.5625 -0.65625 C 12.363281 -0.0078125 10.972656 0.3125 9.390625 0.3125 Z M 9.390625 -3.140625 C 11.898438 -3.140625 13.15625 -4.785156 13.15625 -8.078125 C 13.15625 -9.785156 12.832031 -11.035156 12.1875 -11.828125 C 11.539062 -12.617188 10.609375 -13.015625 9.390625 -13.015625 C 6.878906 -13.015625 5.625 -11.367188 5.625 -8.078125 C 5.625 -4.785156 6.878906 -3.140625 9.390625 -3.140625 Z M 9.390625 -3.140625 "/></g></g><g transform="translate(737.046703, 337.837885)"><g><path d="M 11.296875 0.3125 C 9.234375 0.3125 7.695312 -0.457031 6.6875 -2 L 6.390625 -1.953125 L 6.390625 0 L 2.328125 0 L 2.328125 -22.640625 L 6.390625 -22.640625 L 6.390625 -14.25 L 6.6875 -14.1875 C 7.25 -14.96875 7.90625 -15.539062 8.65625 -15.90625 C 9.414062 -16.28125 10.320312 -16.46875 11.375 -16.46875 C 12.6875 -16.46875 13.832031 -16.160156 14.8125 -15.546875 C 15.789062 -14.929688 16.550781 -13.992188 17.09375 -12.734375 C 17.644531 -11.484375 17.921875 -9.929688 17.921875 -8.078125 C 17.921875 -6.234375 17.632812 -4.679688 17.0625 -3.421875 C 16.5 -2.171875 15.71875 -1.234375 14.71875 -0.609375 C 13.726562 0.00390625 12.585938 0.3125 11.296875 0.3125 Z M 10.0625 -3.140625 C 11.25 -3.140625 12.15625 -3.535156 12.78125 -4.328125 C 13.40625 -5.117188 13.71875 -6.367188 13.71875 -8.078125 C 13.71875 -9.785156 13.40625 -11.035156 12.78125 -11.828125 C 12.15625 -12.617188 11.25 -13.015625 10.0625 -13.015625 C 8.914062 -13.015625 8.007812 -12.601562 7.34375 -11.78125 C 6.675781 -10.96875 6.34375 -9.734375 6.34375 -8.078125 C 6.34375 -6.410156 6.675781 -5.171875 7.34375 -4.359375 C 8.007812 -3.546875 8.914062 -3.140625 10.0625 -3.140625 Z M 10.0625 -3.140625 "/></g></g><g transform="translate(756.397288, 337.837885)"><g><path d="M 7.5625 0.3125 C 6.457031 0.3125 5.445312 0.179688 4.53125 -0.078125 C 3.613281 -0.335938 2.828125 -0.691406 2.171875 -1.140625 C 1.523438 -1.597656 1.046875 -2.117188 0.734375 -2.703125 L 2.984375 -5.140625 L 3.296875 -5.140625 C 3.835938 -4.421875 4.472656 -3.878906 5.203125 -3.515625 C 5.929688 -3.148438 6.726562 -2.96875 7.59375 -2.96875 C 8.382812 -2.96875 8.976562 -3.109375 9.375 -3.390625 C 9.769531 -3.679688 9.96875 -4.085938 9.96875 -4.609375 C 9.96875 -5.023438 9.820312 -5.367188 9.53125 -5.640625 C 9.25 -5.921875 8.785156 -6.140625 8.140625 -6.296875 L 6 -6.8125 C 4.40625 -7.195312 3.238281 -7.78125 2.5 -8.5625 C 1.757812 -9.34375 1.390625 -10.34375 1.390625 -11.5625 C 1.390625 -12.5625 1.644531 -13.429688 2.15625 -14.171875 C 2.675781 -14.921875 3.398438 -15.488281 4.328125 -15.875 C 5.265625 -16.269531 6.351562 -16.46875 7.59375 -16.46875 C 9.039062 -16.46875 10.242188 -16.253906 11.203125 -15.828125 C 12.160156 -15.410156 12.910156 -14.851562 13.453125 -14.15625 L 11.28125 -11.8125 L 10.984375 -11.8125 C 10.535156 -12.3125 10.03125 -12.675781 9.46875 -12.90625 C 8.90625 -13.144531 8.28125 -13.265625 7.59375 -13.265625 C 5.988281 -13.265625 5.1875 -12.769531 5.1875 -11.78125 C 5.1875 -11.351562 5.332031 -11.007812 5.625 -10.75 C 5.925781 -10.488281 6.453125 -10.273438 7.203125 -10.109375 L 9.203125 -9.671875 C 10.835938 -9.316406 12.035156 -8.75 12.796875 -7.96875 C 13.554688 -7.195312 13.9375 -6.15625 13.9375 -4.84375 C 13.9375 -3.820312 13.679688 -2.921875 13.171875 -2.140625 C 12.660156 -1.359375 11.925781 -0.753906 10.96875 -0.328125 C 10.007812 0.0976562 8.875 0.3125 7.5625 0.3125 Z M 7.5625 0.3125 "/></g></g></g><g fill="#ffffff" fill-opacity="1"><g transform="translate(226.284691, 337.837885)"><g><path d="M 9.390625 0.3125 C 7.804688 0.3125 6.414062 -0.0078125 5.21875 -0.65625 C 4.019531 -1.3125 3.09375 -2.265625 2.4375 -3.515625 C 1.78125 -4.773438 1.453125 -6.296875 1.453125 -8.078125 C 1.453125 -9.847656 1.78125 -11.363281 2.4375 -12.625 C 3.09375 -13.882812 4.019531 -14.835938 5.21875 -15.484375 C 6.414062 -16.140625 7.804688 -16.46875 9.390625 -16.46875 C 10.972656 -16.46875 12.363281 -16.140625 13.5625 -15.484375 C 14.757812 -14.835938 15.6875 -13.882812 16.34375 -12.625 C 17.007812 -11.363281 17.34375 -9.847656 17.34375 -8.078125 C 17.34375 -6.296875 17.007812 -4.773438 16.34375 -3.515625 C 15.6875 -2.265625 14.757812 -1.3125 13.5625 -0.65625 C 12.363281 -0.0078125 10.972656 0.3125 9.390625 0.3125 Z M 9.390625 -3.140625 C 11.898438 -3.140625 13.15625 -4.785156 13.15625 -8.078125 C 13.15625 -9.785156 12.832031 -11.035156 12.1875 -11.828125 C 11.539062 -12.617188 10.609375 -13.015625 9.390625 -13.015625 C 6.878906 -13.015625 5.625 -11.367188 5.625 -8.078125 C 5.625 -4.785156 6.878906 -3.140625 9.390625 -3.140625 Z M 9.390625 -3.140625 "/></g></g><g transform="translate(245.063986, 337.837885)"><g><path d="M 11.296875 0.3125 C 9.234375 0.3125 7.695312 -0.457031 6.6875 -2 L 6.390625 -1.953125 L 6.390625 0 L 2.328125 0 L 2.328125 -22.640625 L 6.390625 -22.640625 L 6.390625 -14.25 L 6.6875 -14.1875 C 7.25 -14.96875 7.90625 -15.539062 8.65625 -15.90625 C 9.414062 -16.28125 10.320312 -16.46875 11.375 -16.46875 C 12.6875 -16.46875 13.832031 -16.160156 14.8125 -15.546875 C 15.789062 -14.929688 16.550781 -13.992188 17.09375 -12.734375 C 17.644531 -11.484375 17.921875 -9.929688 17.921875 -8.078125 C 17.921875 -6.234375 17.632812 -4.679688 17.0625 -3.421875 C 16.5 -2.171875 15.71875 -1.234375 14.71875 -0.609375 C 13.726562 0.00390625 12.585938 0.3125 11.296875 0.3125 Z M 10.0625 -3.140625 C 11.25 -3.140625 12.15625 -3.535156 12.78125 -4.328125 C 13.40625 -5.117188 13.71875 -6.367188 13.71875 -8.078125 C 13.71875 -9.785156 13.40625 -11.035156 12.78125 -11.828125 C 12.15625 -12.617188 11.25 -13.015625 10.0625 -13.015625 C 8.914062 -13.015625 8.007812 -12.601562 7.34375 -11.78125 C 6.675781 -10.96875 6.34375 -9.734375 6.34375 -8.078125 C 6.34375 -6.410156 6.675781 -5.171875 7.34375 -4.359375 C 8.007812 -3.546875 8.914062 -3.140625 10.0625 -3.140625 Z M 10.0625 -3.140625 "/></g></g><g transform="translate(264.414571, 337.837885)"><g><path d="M 7.5625 0.3125 C 6.457031 0.3125 5.445312 0.179688 4.53125 -0.078125 C 3.613281 -0.335938 2.828125 -0.691406 2.171875 -1.140625 C 1.523438 -1.597656 1.046875 -2.117188 0.734375 -2.703125 L 2.984375 -5.140625 L 3.296875 -5.140625 C 3.835938 -4.421875 4.472656 -3.878906 5.203125 -3.515625 C 5.929688 -3.148438 6.726562 -2.96875 7.59375 -2.96875 C 8.382812 -2.96875 8.976562 -3.109375 9.375 -3.390625 C 9.769531 -3.679688 9.96875 -4.085938 9.96875 -4.609375 C 9.96875 -5.023438 9.820312 -5.367188 9.53125 -5.640625 C 9.25 -5.921875 8.785156 -6.140625 8.140625 -6.296875 L 6 -6.8125 C 4.40625 -7.195312 3.238281 -7.78125 2.5 -8.5625 C 1.757812 -9.34375 1.390625 -10.34375 1.390625 -11.5625 C 1.390625 -12.5625 1.644531 -13.429688 2.15625 -14.171875 C 2.675781 -14.921875 3.398438 -15.488281 4.328125 -15.875 C 5.265625 -16.269531 6.351562 -16.46875 7.59375 -16.46875 C 9.039062 -16.46875 10.242188 -16.253906 11.203125 -15.828125 C 12.160156 -15.410156 12.910156 -14.851562 13.453125 -14.15625 L 11.28125 -11.8125 L 10.984375 -11.8125 C 10.535156 -12.3125 10.03125 -12.675781 9.46875 -12.90625 C 8.90625 -13.144531 8.28125 -13.265625 7.59375 -13.265625 C 5.988281 -13.265625 5.1875 -12.769531 5.1875 -11.78125 C 5.1875 -11.351562 5.332031 -11.007812 5.625 -10.75 C 5.925781 -10.488281 6.453125 -10.273438 7.203125 -10.109375 L 9.203125 -9.671875 C 10.835938 -9.316406 12.035156 -8.75 12.796875 -7.96875 C 13.554688 -7.195312 13.9375 -6.15625 13.9375 -4.84375 C 13.9375 -3.820312 13.679688 -2.921875 13.171875 -2.140625 C 12.660156 -1.359375 11.925781 -0.753906 10.96875 -0.328125 C 10.007812 0.0976562 8.875 0.3125 7.5625 0.3125 Z M 7.5625 0.3125 "/></g></g><g transform="translate(279.312031, 337.837885)"><g><path d="M 2.328125 0 L 2.328125 -16.15625 L 6.21875 -16.15625 L 6.21875 -13.984375 L 6.53125 -13.9375 C 7.0625 -14.800781 7.679688 -15.4375 8.390625 -15.84375 C 9.097656 -16.257812 10.003906 -16.46875 11.109375 -16.46875 C 12.328125 -16.46875 13.304688 -16.222656 14.046875 -15.734375 C 14.785156 -15.253906 15.328125 -14.550781 15.671875 -13.625 L 15.984375 -13.625 C 16.484375 -14.59375 17.125 -15.304688 17.90625 -15.765625 C 18.695312 -16.234375 19.675781 -16.46875 20.84375 -16.46875 C 24.195312 -16.46875 25.875 -14.601562 25.875 -10.875 L 25.875 0 L 21.8125 0 L 21.8125 -10.359375 C 21.8125 -11.304688 21.625 -11.988281 21.25 -12.40625 C 20.882812 -12.820312 20.289062 -13.03125 19.46875 -13.03125 C 17.238281 -13.03125 16.125 -11.539062 16.125 -8.5625 L 16.125 0 L 12.078125 0 L 12.078125 -10.359375 C 12.078125 -11.304688 11.882812 -11.988281 11.5 -12.40625 C 11.125 -12.820312 10.53125 -13.03125 9.71875 -13.03125 C 8.664062 -13.03125 7.847656 -12.679688 7.265625 -11.984375 C 6.679688 -11.285156 6.390625 -10.175781 6.390625 -8.65625 L 6.390625 0 Z M 2.328125 0 "/></g></g></g><g fill="#71a4ba" fill-opacity="1"><g transform="translate(454.904435, 153.620506)"><g><path d="M 7.40625 0 L 4.1875 0 L 0.203125 -10.765625 L 3.03125 -10.765625 L 5.71875 -3.09375 L 5.9375 -3.09375 L 8.625 -10.765625 L 11.390625 -10.765625 Z M 7.40625 0 "/></g></g></g><g fill="#71a4ba" fill-opacity="1"><g transform="translate(466.481942, 153.620506)"><g><path d="M 4.203125 0.203125 C 3.515625 0.203125 2.914062 0.078125 2.40625 -0.171875 C 1.894531 -0.429688 1.503906 -0.804688 1.234375 -1.296875 C 0.960938 -1.785156 0.828125 -2.375 0.828125 -3.0625 C 0.828125 -3.707031 0.960938 -4.242188 1.234375 -4.671875 C 1.503906 -5.109375 1.925781 -5.460938 2.5 -5.734375 C 3.070312 -6.015625 3.820312 -6.226562 4.75 -6.375 C 5.394531 -6.476562 5.882812 -6.59375 6.21875 -6.71875 C 6.550781 -6.84375 6.773438 -6.984375 6.890625 -7.140625 C 7.015625 -7.296875 7.078125 -7.492188 7.078125 -7.734375 C 7.078125 -8.078125 6.953125 -8.335938 6.703125 -8.515625 C 6.460938 -8.703125 6.066406 -8.796875 5.515625 -8.796875 C 4.910156 -8.796875 4.335938 -8.660156 3.796875 -8.390625 C 3.253906 -8.128906 2.785156 -7.78125 2.390625 -7.34375 L 2.203125 -7.34375 L 1.0625 -9.046875 C 1.613281 -9.660156 2.28125 -10.132812 3.0625 -10.46875 C 3.851562 -10.8125 4.710938 -10.984375 5.640625 -10.984375 C 7.066406 -10.984375 8.097656 -10.675781 8.734375 -10.0625 C 9.378906 -9.457031 9.703125 -8.597656 9.703125 -7.484375 L 9.703125 -2.8125 C 9.703125 -2.332031 9.910156 -2.09375 10.328125 -2.09375 C 10.492188 -2.09375 10.65625 -2.117188 10.8125 -2.171875 L 10.953125 -2.140625 L 11.140625 -0.25 C 10.992188 -0.15625 10.785156 -0.078125 10.515625 -0.015625 C 10.253906 0.046875 9.960938 0.078125 9.640625 0.078125 C 8.992188 0.078125 8.488281 -0.046875 8.125 -0.296875 C 7.769531 -0.546875 7.515625 -0.929688 7.359375 -1.453125 L 7.15625 -1.46875 C 6.625 -0.351562 5.640625 0.203125 4.203125 0.203125 Z M 5.0625 -1.8125 C 5.6875 -1.8125 6.1875 -2.019531 6.5625 -2.4375 C 6.9375 -2.863281 7.125 -3.453125 7.125 -4.203125 L 7.125 -5.296875 L 6.9375 -5.328125 C 6.769531 -5.203125 6.554688 -5.09375 6.296875 -5 C 6.035156 -4.914062 5.65625 -4.832031 5.15625 -4.75 C 4.570312 -4.644531 4.148438 -4.472656 3.890625 -4.234375 C 3.628906 -4.003906 3.5 -3.671875 3.5 -3.234375 C 3.5 -2.773438 3.632812 -2.421875 3.90625 -2.171875 C 4.1875 -1.929688 4.570312 -1.8125 5.0625 -1.8125 Z M 5.0625 -1.8125 "/></g></g></g><g fill="#71a4ba" fill-opacity="1"><g transform="translate(477.834927, 153.620506)"><g><path d="M 1.546875 0 L 1.546875 -10.765625 L 4.1875 -10.765625 L 4.1875 -9.171875 L 4.390625 -9.125 C 4.648438 -9.726562 4.988281 -10.171875 5.40625 -10.453125 C 5.832031 -10.734375 6.347656 -10.875 6.953125 -10.875 C 7.566406 -10.875 8.03125 -10.769531 8.34375 -10.5625 L 7.890625 -8.21875 L 7.6875 -8.1875 C 7.507812 -8.257812 7.335938 -8.3125 7.171875 -8.34375 C 7.015625 -8.375 6.816406 -8.390625 6.578125 -8.390625 C 5.828125 -8.390625 5.253906 -8.125 4.859375 -7.59375 C 4.460938 -7.0625 4.265625 -6.210938 4.265625 -5.046875 L 4.265625 0 Z M 1.546875 0 "/></g></g></g><g fill="#71a4ba" fill-opacity="1"><g transform="translate(486.278892, 153.620506)"><g><path d="M 9.1875 3.140625 L 0 3.140625 L 0 0.953125 L 9.1875 0.953125 Z M 9.1875 3.140625 "/></g></g></g><g fill="#71a4ba" fill-opacity="1"><g transform="translate(495.454993, 153.620506)"><g><path d="M 1.546875 0 L 1.546875 -10.765625 L 4.15625 -10.765625 L 4.15625 -9.1875 L 4.359375 -9.140625 C 5.023438 -10.367188 6.113281 -10.984375 7.625 -10.984375 C 8.863281 -10.984375 9.773438 -10.644531 10.359375 -9.96875 C 10.941406 -9.289062 11.234375 -8.300781 11.234375 -7 L 11.234375 0 L 8.53125 0 L 8.53125 -6.671875 C 8.53125 -7.390625 8.382812 -7.90625 8.09375 -8.21875 C 7.8125 -8.53125 7.351562 -8.6875 6.71875 -8.6875 C 5.945312 -8.6875 5.34375 -8.4375 4.90625 -7.9375 C 4.476562 -7.4375 4.265625 -6.648438 4.265625 -5.578125 L 4.265625 0 Z M 1.546875 0 "/></g></g></g><g fill="#71a4ba" fill-opacity="1"><g transform="translate(508.067251, 153.620506)"><g><path d="M 4.203125 0.203125 C 3.515625 0.203125 2.914062 0.078125 2.40625 -0.171875 C 1.894531 -0.429688 1.503906 -0.804688 1.234375 -1.296875 C 0.960938 -1.785156 0.828125 -2.375 0.828125 -3.0625 C 0.828125 -3.707031 0.960938 -4.242188 1.234375 -4.671875 C 1.503906 -5.109375 1.925781 -5.460938 2.5 -5.734375 C 3.070312 -6.015625 3.820312 -6.226562 4.75 -6.375 C 5.394531 -6.476562 5.882812 -6.59375 6.21875 -6.71875 C 6.550781 -6.84375 6.773438 -6.984375 6.890625 -7.140625 C 7.015625 -7.296875 7.078125 -7.492188 7.078125 -7.734375 C 7.078125 -8.078125 6.953125 -8.335938 6.703125 -8.515625 C 6.460938 -8.703125 6.066406 -8.796875 5.515625 -8.796875 C 4.910156 -8.796875 4.335938 -8.660156 3.796875 -8.390625 C 3.253906 -8.128906 2.785156 -7.78125 2.390625 -7.34375 L 2.203125 -7.34375 L 1.0625 -9.046875 C 1.613281 -9.660156 2.28125 -10.132812 3.0625 -10.46875 C 3.851562 -10.8125 4.710938 -10.984375 5.640625 -10.984375 C 7.066406 -10.984375 8.097656 -10.675781 8.734375 -10.0625 C 9.378906 -9.457031 9.703125 -8.597656 9.703125 -7.484375 L 9.703125 -2.8125 C 9.703125 -2.332031 9.910156 -2.09375 10.328125 -2.09375 C 10.492188 -2.09375 10.65625 -2.117188 10.8125 -2.171875 L 10.953125 -2.140625 L 11.140625 -0.25 C 10.992188 -0.15625 10.785156 -0.078125 10.515625 -0.015625 C 10.253906 0.046875 9.960938 0.078125 9.640625 0.078125 C 8.992188 0.078125 8.488281 -0.046875 8.125 -0.296875 C 7.769531 -0.546875 7.515625 -0.929688 7.359375 -1.453125 L 7.15625 -1.46875 C 6.625 -0.351562 5.640625 0.203125 4.203125 0.203125 Z M 5.0625 -1.8125 C 5.6875 -1.8125 6.1875 -2.019531 6.5625 -2.4375 C 6.9375 -2.863281 7.125 -3.453125 7.125 -4.203125 L 7.125 -5.296875 L 6.9375 -5.328125 C 6.769531 -5.203125 6.554688 -5.09375 6.296875 -5 C 6.035156 -4.914062 5.65625 -4.832031 5.15625 -4.75 C 4.570312 -4.644531 4.148438 -4.472656 3.890625 -4.234375 C 3.628906 -4.003906 3.5 -3.671875 3.5 -3.234375 C 3.5 -2.773438 3.632812 -2.421875 3.90625 -2.171875 C 4.1875 -1.929688 4.570312 -1.8125 5.0625 -1.8125 Z M 5.0625 -1.8125 "/></g></g></g><g fill="#71a4ba" fill-opacity="1"><g transform="translate(519.420236, 153.620506)"><g><path d="M 1.546875 0 L 1.546875 -10.765625 L 4.15625 -10.765625 L 4.15625 -9.328125 L 4.359375 -9.28125 C 4.710938 -9.863281 5.125 -10.289062 5.59375 -10.5625 C 6.0625 -10.84375 6.664062 -10.984375 7.40625 -10.984375 C 8.21875 -10.984375 8.867188 -10.820312 9.359375 -10.5 C 9.859375 -10.175781 10.222656 -9.703125 10.453125 -9.078125 L 10.65625 -9.078125 C 10.988281 -9.722656 11.414062 -10.203125 11.9375 -10.515625 C 12.457031 -10.828125 13.109375 -10.984375 13.890625 -10.984375 C 16.128906 -10.984375 17.25 -9.738281 17.25 -7.25 L 17.25 0 L 14.546875 0 L 14.546875 -6.90625 C 14.546875 -7.539062 14.421875 -7.992188 14.171875 -8.265625 C 13.921875 -8.546875 13.523438 -8.6875 12.984375 -8.6875 C 11.492188 -8.6875 10.75 -7.695312 10.75 -5.71875 L 10.75 0 L 8.046875 0 L 8.046875 -6.90625 C 8.046875 -7.539062 7.921875 -7.992188 7.671875 -8.265625 C 7.421875 -8.546875 7.019531 -8.6875 6.46875 -8.6875 C 5.78125 -8.6875 5.238281 -8.453125 4.84375 -7.984375 C 4.457031 -7.523438 4.265625 -6.785156 4.265625 -5.765625 L 4.265625 0 Z M 1.546875 0 "/></g></g></g><g fill="#71a4ba" fill-opacity="1"><g transform="translate(538.045769, 153.620506)"><g><path d="M 10.640625 -4.78125 L 3.71875 -4.78125 C 3.800781 -3.84375 4.066406 -3.160156 4.515625 -2.734375 C 4.972656 -2.304688 5.597656 -2.09375 6.390625 -2.09375 C 7.003906 -2.09375 7.503906 -2.207031 7.890625 -2.4375 C 8.273438 -2.664062 8.582031 -3.015625 8.8125 -3.484375 L 9.03125 -3.484375 L 10.828125 -2.328125 C 10.472656 -1.578125 9.941406 -0.96875 9.234375 -0.5 C 8.523438 -0.03125 7.578125 0.203125 6.390625 0.203125 C 5.273438 0.203125 4.3125 -0.00390625 3.5 -0.421875 C 2.6875 -0.847656 2.0625 -1.476562 1.625 -2.3125 C 1.1875 -3.15625 0.96875 -4.175781 0.96875 -5.375 C 0.96875 -6.601562 1.195312 -7.632812 1.65625 -8.46875 C 2.125 -9.3125 2.75 -9.941406 3.53125 -10.359375 C 4.320312 -10.773438 5.207031 -10.984375 6.1875 -10.984375 C 7.71875 -10.984375 8.882812 -10.578125 9.6875 -9.765625 C 10.5 -8.960938 10.90625 -7.78125 10.90625 -6.21875 C 10.90625 -5.644531 10.882812 -5.203125 10.84375 -4.890625 Z M 8.328125 -6.53125 C 8.296875 -7.34375 8.101562 -7.9375 7.75 -8.3125 C 7.394531 -8.6875 6.875 -8.875 6.1875 -8.875 C 4.820312 -8.875 4.019531 -8.09375 3.78125 -6.53125 Z M 8.328125 -6.53125 "/></g></g></g><g fill="#71a4ba" fill-opacity="1"><g transform="translate(549.750179, 153.620506)"><g><path d="M 5.046875 0.203125 C 4.304688 0.203125 3.628906 0.117188 3.015625 -0.046875 C 2.398438 -0.222656 1.875 -0.460938 1.4375 -0.765625 C 1.007812 -1.066406 0.691406 -1.414062 0.484375 -1.8125 L 2 -3.421875 L 2.203125 -3.421875 C 2.554688 -2.941406 2.976562 -2.582031 3.46875 -2.34375 C 3.957031 -2.101562 4.488281 -1.984375 5.0625 -1.984375 C 5.582031 -1.984375 5.976562 -2.078125 6.25 -2.265625 C 6.519531 -2.453125 6.65625 -2.722656 6.65625 -3.078125 C 6.65625 -3.347656 6.554688 -3.578125 6.359375 -3.765625 C 6.171875 -3.953125 5.863281 -4.097656 5.4375 -4.203125 L 4 -4.546875 C 2.9375 -4.796875 2.15625 -5.179688 1.65625 -5.703125 C 1.164062 -6.234375 0.921875 -6.898438 0.921875 -7.703125 C 0.921875 -8.378906 1.09375 -8.960938 1.4375 -9.453125 C 1.78125 -9.953125 2.257812 -10.332031 2.875 -10.59375 C 3.5 -10.851562 4.226562 -10.984375 5.0625 -10.984375 C 6.03125 -10.984375 6.832031 -10.84375 7.46875 -10.5625 C 8.101562 -10.28125 8.601562 -9.90625 8.96875 -9.4375 L 7.515625 -7.875 L 7.328125 -7.875 C 7.023438 -8.207031 6.6875 -8.453125 6.3125 -8.609375 C 5.9375 -8.765625 5.519531 -8.84375 5.0625 -8.84375 C 3.988281 -8.84375 3.453125 -8.515625 3.453125 -7.859375 C 3.453125 -7.578125 3.550781 -7.347656 3.75 -7.171875 C 3.945312 -6.992188 4.300781 -6.847656 4.8125 -6.734375 L 6.140625 -6.453125 C 7.234375 -6.210938 8.03125 -5.832031 8.53125 -5.3125 C 9.03125 -4.800781 9.28125 -4.109375 9.28125 -3.234375 C 9.28125 -2.546875 9.109375 -1.941406 8.765625 -1.421875 C 8.429688 -0.898438 7.945312 -0.5 7.3125 -0.21875 C 6.675781 0.0625 5.921875 0.203125 5.046875 0.203125 Z M 5.046875 0.203125 "/></g></g></g><g fill="#b90076" fill-opacity="1"><g transform="translate(681.134201, 284.812155)"><g><path d="M -0.203125 6.265625 C -0.203125 5.203125 0.0078125 4.269531 0.4375 3.46875 C 0.875 2.675781 1.507812 2.0625 2.34375 1.625 C 3.1875 1.1875 4.195312 0.96875 5.375 0.96875 C 6.5625 0.96875 7.570312 1.1875 8.40625 1.625 C 9.25 2.0625 9.890625 2.675781 10.328125 3.46875 C 10.765625 4.269531 10.984375 5.203125 10.984375 6.265625 C 10.984375 7.316406 10.765625 8.238281 10.328125 9.03125 C 9.890625 9.832031 9.25 10.453125 8.40625 10.890625 C 7.570312 11.335938 6.5625 11.5625 5.375 11.5625 C 4.195312 11.5625 3.1875 11.335938 2.34375 10.890625 C 1.507812 10.453125 0.875 9.832031 0.4375 9.03125 C 0.0078125 8.238281 -0.203125 7.316406 -0.203125 6.265625 Z M 2.09375 6.265625 C 2.09375 7.929688 3.1875 8.765625 5.375 8.765625 C 6.519531 8.765625 7.359375 8.550781 7.890625 8.125 C 8.421875 7.695312 8.6875 7.078125 8.6875 6.265625 C 8.6875 4.585938 7.582031 3.75 5.375 3.75 C 3.1875 3.75 2.09375 4.585938 2.09375 6.265625 Z M 2.09375 6.265625 "/></g></g></g><g fill="#b90076" fill-opacity="1"><g transform="translate(681.134201, 297.326795)"><g><path d="M -0.203125 7.53125 C -0.203125 6.15625 0.3125 5.132812 1.34375 4.46875 L 1.296875 4.265625 L 0 4.265625 L 0 1.546875 L 15.09375 1.546875 L 15.09375 4.265625 L 9.5 4.265625 L 9.46875 4.46875 C 9.976562 4.832031 10.359375 5.265625 10.609375 5.765625 C 10.859375 6.273438 10.984375 6.882812 10.984375 7.59375 C 10.984375 8.457031 10.773438 9.210938 10.359375 9.859375 C 9.953125 10.515625 9.328125 11.023438 8.484375 11.390625 C 7.648438 11.753906 6.613281 11.9375 5.375 11.9375 C 4.15625 11.9375 3.125 11.75 2.28125 11.375 C 1.445312 11 0.820312 10.476562 0.40625 9.8125 C 0 9.144531 -0.203125 8.382812 -0.203125 7.53125 Z M 2.09375 6.703125 C 2.09375 7.503906 2.359375 8.113281 2.890625 8.53125 C 3.421875 8.945312 4.25 9.15625 5.375 9.15625 C 6.519531 9.15625 7.359375 8.945312 7.890625 8.53125 C 8.421875 8.113281 8.6875 7.503906 8.6875 6.703125 C 8.6875 5.941406 8.410156 5.335938 7.859375 4.890625 C 7.316406 4.453125 6.488281 4.234375 5.375 4.234375 C 4.269531 4.234375 3.445312 4.453125 2.90625 4.890625 C 2.363281 5.335938 2.09375 5.941406 2.09375 6.703125 Z M 2.09375 6.703125 "/></g></g></g><g fill="#b90076" fill-opacity="1"><g transform="translate(681.134201, 310.222146)"><g><path d="M -0.203125 5.046875 C -0.203125 4.304688 -0.117188 3.628906 0.046875 3.015625 C 0.222656 2.398438 0.460938 1.875 0.765625 1.4375 C 1.066406 1.007812 1.414062 0.691406 1.8125 0.484375 L 3.421875 2 L 3.421875 2.203125 C 2.941406 2.554688 2.582031 2.976562 2.34375 3.46875 C 2.101562 3.957031 1.984375 4.488281 1.984375 5.0625 C 1.984375 5.582031 2.078125 5.976562 2.265625 6.25 C 2.453125 6.519531 2.722656 6.65625 3.078125 6.65625 C 3.347656 6.65625 3.578125 6.554688 3.765625 6.359375 C 3.953125 6.171875 4.097656 5.863281 4.203125 5.4375 L 4.546875 4 C 4.796875 2.9375 5.179688 2.15625 5.703125 1.65625 C 6.234375 1.164062 6.898438 0.921875 7.703125 0.921875 C 8.378906 0.921875 8.960938 1.09375 9.453125 1.4375 C 9.953125 1.78125 10.332031 2.257812 10.59375 2.875 C 10.851562 3.5 10.984375 4.226562 10.984375 5.0625 C 10.984375 6.03125 10.84375 6.832031 10.5625 7.46875 C 10.28125 8.101562 9.90625 8.601562 9.4375 8.96875 L 7.875 7.515625 L 7.875 7.328125 C 8.207031 7.023438 8.453125 6.6875 8.609375 6.3125 C 8.765625 5.9375 8.84375 5.519531 8.84375 5.0625 C 8.84375 3.988281 8.515625 3.453125 7.859375 3.453125 C 7.578125 3.453125 7.347656 3.550781 7.171875 3.75 C 6.992188 3.945312 6.847656 4.300781 6.734375 4.8125 L 6.453125 6.140625 C 6.210938 7.234375 5.832031 8.03125 5.3125 8.53125 C 4.800781 9.03125 4.109375 9.28125 3.234375 9.28125 C 2.546875 9.28125 1.941406 9.109375 1.421875 8.765625 C 0.898438 8.429688 0.5 7.945312 0.21875 7.3125 C -0.0625 6.675781 -0.203125 5.921875 -0.203125 5.046875 Z M -0.203125 5.046875 "/></g></g></g><g fill="#b90076" fill-opacity="1"><g transform="translate(681.134201, 320.149906)"><g><path d="M -3.140625 9.1875 L -3.140625 0 L -0.953125 0 L -0.953125 9.1875 Z M -3.140625 9.1875 "/></g></g></g><g fill="#b90076" fill-opacity="1"><g transform="translate(681.134201, 329.326008)"><g><path d="M 0 1.546875 L 10.765625 1.546875 L 10.765625 4.15625 L 9.1875 4.15625 L 9.140625 4.359375 C 10.367188 5.023438 10.984375 6.113281 10.984375 7.625 C 10.984375 8.863281 10.644531 9.773438 9.96875 10.359375 C 9.289062 10.941406 8.300781 11.234375 7 11.234375 L 0 11.234375 L 0 8.53125 L 6.671875 8.53125 C 7.390625 8.53125 7.90625 8.382812 8.21875 8.09375 C 8.53125 7.8125 8.6875 7.351562 8.6875 6.71875 C 8.6875 5.945312 8.4375 5.34375 7.9375 4.90625 C 7.4375 4.476562 6.648438 4.265625 5.578125 4.265625 L 0 4.265625 Z M 0 1.546875 "/></g></g></g><g fill="#b90076" fill-opacity="1"><g transform="translate(681.134201, 341.938266)"><g><path d="M -0.203125 4.203125 C -0.203125 3.515625 -0.078125 2.914062 0.171875 2.40625 C 0.429688 1.894531 0.804688 1.503906 1.296875 1.234375 C 1.785156 0.960938 2.375 0.828125 3.0625 0.828125 C 3.707031 0.828125 4.242188 0.960938 4.671875 1.234375 C 5.109375 1.503906 5.460938 1.925781 5.734375 2.5 C 6.015625 3.070312 6.226562 3.820312 6.375 4.75 C 6.476562 5.394531 6.59375 5.882812 6.71875 6.21875 C 6.84375 6.550781 6.984375 6.773438 7.140625 6.890625 C 7.296875 7.015625 7.492188 7.078125 7.734375 7.078125 C 8.078125 7.078125 8.335938 6.953125 8.515625 6.703125 C 8.703125 6.460938 8.796875 6.066406 8.796875 5.515625 C 8.796875 4.910156 8.660156 4.335938 8.390625 3.796875 C 8.128906 3.253906 7.78125 2.785156 7.34375 2.390625 L 7.34375 2.203125 L 9.046875 1.0625 C 9.660156 1.613281 10.132812 2.28125 10.46875 3.0625 C 10.8125 3.851562 10.984375 4.710938 10.984375 5.640625 C 10.984375 7.066406 10.675781 8.097656 10.0625 8.734375 C 9.457031 9.378906 8.597656 9.703125 7.484375 9.703125 L 2.8125 9.703125 C 2.332031 9.703125 2.09375 9.910156 2.09375 10.328125 C 2.09375 10.492188 2.117188 10.65625 2.171875 10.8125 L 2.140625 10.953125 L 0.25 11.140625 C 0.15625 10.992188 0.078125 10.785156 0.015625 10.515625 C -0.046875 10.253906 -0.078125 9.960938 -0.078125 9.640625 C -0.078125 8.992188 0.046875 8.488281 0.296875 8.125 C 0.546875 7.769531 0.929688 7.515625 1.453125 7.359375 L 1.46875 7.15625 C 0.351562 6.625 -0.203125 5.640625 -0.203125 4.203125 Z M 1.8125 5.0625 C 1.8125 5.6875 2.019531 6.1875 2.4375 6.5625 C 2.863281 6.9375 3.453125 7.125 4.203125 7.125 L 5.296875 7.125 L 5.328125 6.9375 C 5.203125 6.769531 5.09375 6.554688 5 6.296875 C 4.914062 6.035156 4.832031 5.65625 4.75 5.15625 C 4.644531 4.570312 4.472656 4.148438 4.234375 3.890625 C 4.003906 3.628906 3.671875 3.5 3.234375 3.5 C 2.773438 3.5 2.421875 3.632812 2.171875 3.90625 C 1.929688 4.1875 1.8125 4.570312 1.8125 5.0625 Z M 1.8125 5.0625 "/></g></g></g><g fill="#b90076" fill-opacity="1"><g transform="translate(681.134201, 353.291251)"><g><path d="M 0 1.546875 L 10.765625 1.546875 L 10.765625 4.15625 L 9.328125 4.15625 L 9.28125 4.359375 C 9.863281 4.710938 10.289062 5.125 10.5625 5.59375 C 10.84375 6.0625 10.984375 6.664062 10.984375 7.40625 C 10.984375 8.21875 10.820312 8.867188 10.5 9.359375 C 10.175781 9.859375 9.703125 10.222656 9.078125 10.453125 L 9.078125 10.65625 C 9.722656 10.988281 10.203125 11.414062 10.515625 11.9375 C 10.828125 12.457031 10.984375 13.109375 10.984375 13.890625 C 10.984375 16.128906 9.738281 17.25 7.25 17.25 L 0 17.25 L 0 14.546875 L 6.90625 14.546875 C 7.539062 14.546875 7.992188 14.421875 8.265625 14.171875 C 8.546875 13.921875 8.6875 13.523438 8.6875 12.984375 C 8.6875 11.492188 7.695312 10.75 5.71875 10.75 L 0 10.75 L 0 8.046875 L 6.90625 8.046875 C 7.539062 8.046875 7.992188 7.921875 8.265625 7.671875 C 8.546875 7.421875 8.6875 7.019531 8.6875 6.46875 C 8.6875 5.78125 8.453125 5.238281 7.984375 4.84375 C 7.523438 4.457031 6.785156 4.265625 5.765625 4.265625 L 0 4.265625 Z M 0 1.546875 "/></g></g></g><g fill="#b90076" fill-opacity="1"><g transform="translate(681.134201, 371.916783)"><g><path d="M 4.78125 10.640625 L 4.78125 3.71875 C 3.84375 3.800781 3.160156 4.066406 2.734375 4.515625 C 2.304688 4.972656 2.09375 5.597656 2.09375 6.390625 C 2.09375 7.003906 2.207031 7.503906 2.4375 7.890625 C 2.664062 8.273438 3.015625 8.582031 3.484375 8.8125 L 3.484375 9.03125 L 2.328125 10.828125 C 1.578125 10.472656 0.96875 9.941406 0.5 9.234375 C 0.03125 8.523438 -0.203125 7.578125 -0.203125 6.390625 C -0.203125 5.273438 0.00390625 4.3125 0.421875 3.5 C 0.847656 2.6875 1.476562 2.0625 2.3125 1.625 C 3.15625 1.1875 4.175781 0.96875 5.375 0.96875 C 6.601562 0.96875 7.632812 1.195312 8.46875 1.65625 C 9.3125 2.125 9.941406 2.75 10.359375 3.53125 C 10.773438 4.320312 10.984375 5.207031 10.984375 6.1875 C 10.984375 7.71875 10.578125 8.882812 9.765625 9.6875 C 8.960938 10.5 7.78125 10.90625 6.21875 10.90625 C 5.644531 10.90625 5.203125 10.882812 4.890625 10.84375 Z M 6.53125 8.328125 C 7.34375 8.296875 7.9375 8.101562 8.3125 7.75 C 8.6875 7.394531 8.875 6.875 8.875 6.1875 C 8.875 4.820312 8.09375 4.019531 6.53125 3.78125 Z M 6.53125 8.328125 "/></g></g></g><g fill="#b90076" fill-opacity="1"><g transform="translate(681.134201, 383.621193)"><g><path d="M -0.203125 5.046875 C -0.203125 4.304688 -0.117188 3.628906 0.046875 3.015625 C 0.222656 2.398438 0.460938 1.875 0.765625 1.4375 C 1.066406 1.007812 1.414062 0.691406 1.8125 0.484375 L 3.421875 2 L 3.421875 2.203125 C 2.941406 2.554688 2.582031 2.976562 2.34375 3.46875 C 2.101562 3.957031 1.984375 4.488281 1.984375 5.0625 C 1.984375 5.582031 2.078125 5.976562 2.265625 6.25 C 2.453125 6.519531 2.722656 6.65625 3.078125 6.65625 C 3.347656 6.65625 3.578125 6.554688 3.765625 6.359375 C 3.953125 6.171875 4.097656 5.863281 4.203125 5.4375 L 4.546875 4 C 4.796875 2.9375 5.179688 2.15625 5.703125 1.65625 C 6.234375 1.164062 6.898438 0.921875 7.703125 0.921875 C 8.378906 0.921875 8.960938 1.09375 9.453125 1.4375 C 9.953125 1.78125 10.332031 2.257812 10.59375 2.875 C 10.851562 3.5 10.984375 4.226562 10.984375 5.0625 C 10.984375 6.03125 10.84375 6.832031 10.5625 7.46875 C 10.28125 8.101562 9.90625 8.601562 9.4375 8.96875 L 7.875 7.515625 L 7.875 7.328125 C 8.207031 7.023438 8.453125 6.6875 8.609375 6.3125 C 8.765625 5.9375 8.84375 5.519531 8.84375 5.0625 C 8.84375 3.988281 8.515625 3.453125 7.859375 3.453125 C 7.578125 3.453125 7.347656 3.550781 7.171875 3.75 C 6.992188 3.945312 6.847656 4.300781 6.734375 4.8125 L 6.453125 6.140625 C 6.210938 7.234375 5.832031 8.03125 5.3125 8.53125 C 4.800781 9.03125 4.109375 9.28125 3.234375 9.28125 C 2.546875 9.28125 1.941406 9.109375 1.421875 8.765625 C 0.898438 8.429688 0.5 7.945312 0.21875 7.3125 C -0.0625 6.675781 -0.203125 5.921875 -0.203125 5.046875 Z M -0.203125 5.046875 "/></g></g></g><g fill="#000000" fill-opacity="1"><g transform="translate(20.767293, 725.231716)"><g><path d="M 46.3125 15.953125 C 37.664062 15.953125 31.21875 13.914062 26.96875 9.84375 C 22.71875 5.769531 20.59375 -0.484375 20.59375 -8.921875 L 20.59375 -33.265625 C 20.59375 -36.722656 19.867188 -39.175781 18.421875 -40.625 C 16.972656 -42.070312 14.519531 -42.796875 11.0625 -42.796875 L 6.03125 -42.796875 L 6.03125 -59.203125 L 11.0625 -59.203125 C 14.519531 -59.203125 16.972656 -59.925781 18.421875 -61.375 C 19.867188 -62.820312 20.59375 -65.273438 20.59375 -68.734375 L 20.59375 -93.078125 C 20.59375 -101.523438 22.71875 -107.78125 26.96875 -111.84375 C 31.21875 -115.914062 37.664062 -117.953125 46.3125 -117.953125 L 56.234375 -117.953125 L 56.234375 -101.859375 L 50.203125 -101.859375 C 46.941406 -101.859375 44.570312 -101.101562 43.09375 -99.59375 C 41.625 -98.09375 40.890625 -95.566406 40.890625 -92.015625 L 40.890625 -71.484375 C 40.890625 -65.734375 39.859375 -61.359375 37.796875 -58.359375 C 35.742188 -55.359375 32.554688 -53.171875 28.234375 -51.796875 L 28.234375 -50.203125 C 32.554688 -48.828125 35.742188 -46.640625 37.796875 -43.640625 C 39.859375 -40.640625 40.890625 -36.265625 40.890625 -30.515625 L 40.890625 -10 C 40.890625 -6.4375 41.625 -3.90625 43.09375 -2.40625 C 44.570312 -0.90625 46.941406 -0.15625 50.203125 -0.15625 L 56.234375 -0.15625 L 56.234375 15.953125 Z M 46.3125 15.953125 "/></g></g></g><g fill="#000000" fill-opacity="1"><g transform="translate(81.63172, 725.231716)"><g/></g></g><g fill="#000000" fill-opacity="1"><g transform="translate(118.480367, 725.231716)"><g/></g></g><g fill="#000000" fill-opacity="1"><g transform="translate(155.329015, 725.231716)"><g/></g></g><g fill="#000000" fill-opacity="1"><g transform="translate(192.172804, 725.231716)"><g><path d="M 4.65625 15.953125 L 4.65625 -0.15625 L 10.6875 -0.15625 C 13.882812 -0.15625 16.21875 -0.90625 17.6875 -2.40625 C 19.164062 -3.90625 19.90625 -6.4375 19.90625 -10 L 19.90625 -30.515625 C 19.90625 -36.265625 20.945312 -40.625 23.03125 -43.59375 C 25.125 -46.570312 28.332031 -48.773438 32.65625 -50.203125 L 32.65625 -51.796875 C 28.332031 -53.222656 25.125 -55.421875 23.03125 -58.390625 C 20.945312 -61.367188 19.90625 -65.734375 19.90625 -71.484375 L 19.90625 -92.015625 C 19.90625 -95.566406 19.164062 -98.09375 17.6875 -99.59375 C 16.21875 -101.101562 13.882812 -101.859375 10.6875 -101.859375 L 4.65625 -101.859375 L 4.65625 -117.953125 L 14.578125 -117.953125 C 23.222656 -117.953125 29.664062 -115.914062 33.90625 -111.84375 C 38.15625 -107.78125 40.28125 -101.523438 40.28125 -93.078125 L 40.28125 -68.734375 C 40.28125 -65.273438 41.003906 -62.820312 42.453125 -61.375 C 43.898438 -59.925781 46.351562 -59.203125 49.8125 -59.203125 L 54.78125 -59.203125 L 54.78125 -42.796875 L 49.8125 -42.796875 C 46.351562 -42.796875 43.898438 -42.070312 42.453125 -40.625 C 41.003906 -39.175781 40.28125 -36.722656 40.28125 -33.265625 L 40.28125 -8.921875 C 40.28125 -0.484375 38.15625 5.769531 33.90625 9.84375 C 29.664062 13.914062 23.222656 15.953125 14.578125 15.953125 Z M 4.65625 15.953125 "/></g></g></g><g fill="#000000" fill-opacity="1"><g transform="translate(99.197372, 639.740028)"><g><path d="M 9.859375 0.40625 C 7.441406 0.40625 5.65625 -0.253906 4.5 -1.578125 C 3.351562 -2.898438 2.78125 -4.796875 2.78125 -7.265625 L 2.78125 -21.546875 L 8.1875 -21.546875 L 8.1875 -7.953125 C 8.1875 -6.640625 8.46875 -5.675781 9.03125 -5.0625 C 9.601562 -4.457031 10.476562 -4.15625 11.65625 -4.15625 C 13.15625 -4.15625 14.320312 -4.644531 15.15625 -5.625 C 15.988281 -6.613281 16.40625 -8.164062 16.40625 -10.28125 L 16.40625 -21.546875 L 21.8125 -21.546875 L 21.8125 0 L 16.625 0 L 16.625 -3.171875 L 16.21875 -3.265625 C 15.519531 -2.023438 14.671875 -1.101562 13.671875 -0.5 C 12.679688 0.101562 11.410156 0.40625 9.859375 0.40625 Z M 9.859375 0.40625 "/></g></g></g><g fill="#000000" fill-opacity="1"><g transform="translate(124.116812, 639.740028)"><g><path d="M 3.109375 0 L 3.109375 -21.546875 L 8.296875 -21.546875 L 8.296875 -18.375 L 8.71875 -18.28125 C 10.050781 -20.726562 12.222656 -21.953125 15.234375 -21.953125 C 17.722656 -21.953125 19.550781 -21.273438 20.71875 -19.921875 C 21.882812 -18.566406 22.46875 -16.59375 22.46875 -14 L 22.46875 0 L 17.046875 0 L 17.046875 -13.34375 C 17.046875 -14.769531 16.757812 -15.800781 16.1875 -16.4375 C 15.613281 -17.070312 14.695312 -17.390625 13.4375 -17.390625 C 11.882812 -17.390625 10.675781 -16.882812 9.8125 -15.875 C 8.945312 -14.875 8.515625 -13.300781 8.515625 -11.15625 L 8.515625 0 Z M 3.109375 0 "/></g></g></g><g fill="#000000" fill-opacity="1"><g transform="translate(149.348722, 639.740028)"><g><path d="M 10.078125 0.40625 C 8.609375 0.40625 7.257812 0.234375 6.03125 -0.109375 C 4.8125 -0.453125 3.769531 -0.925781 2.90625 -1.53125 C 2.039062 -2.132812 1.398438 -2.828125 0.984375 -3.609375 L 3.984375 -6.859375 L 4.390625 -6.859375 C 5.109375 -5.890625 5.957031 -5.164062 6.9375 -4.6875 C 7.914062 -4.207031 8.976562 -3.96875 10.125 -3.96875 C 11.175781 -3.96875 11.96875 -4.15625 12.5 -4.53125 C 13.03125 -4.90625 13.296875 -5.445312 13.296875 -6.15625 C 13.296875 -6.695312 13.101562 -7.15625 12.71875 -7.53125 C 12.34375 -7.90625 11.722656 -8.195312 10.859375 -8.40625 L 8.015625 -9.078125 C 5.878906 -9.585938 4.316406 -10.363281 3.328125 -11.40625 C 2.347656 -12.457031 1.859375 -13.789062 1.859375 -15.40625 C 1.859375 -16.75 2.195312 -17.914062 2.875 -18.90625 C 3.5625 -19.894531 4.523438 -20.648438 5.765625 -21.171875 C 7.015625 -21.691406 8.46875 -21.953125 10.125 -21.953125 C 12.0625 -21.953125 13.664062 -21.671875 14.9375 -21.109375 C 16.21875 -20.554688 17.21875 -19.8125 17.9375 -18.875 L 15.046875 -15.75 L 14.65625 -15.75 C 14.050781 -16.425781 13.375 -16.921875 12.625 -17.234375 C 11.875 -17.546875 11.039062 -17.703125 10.125 -17.703125 C 7.988281 -17.703125 6.921875 -17.035156 6.921875 -15.703125 C 6.921875 -15.140625 7.117188 -14.679688 7.515625 -14.328125 C 7.910156 -13.984375 8.609375 -13.703125 9.609375 -13.484375 L 12.265625 -12.890625 C 14.453125 -12.421875 16.050781 -11.664062 17.0625 -10.625 C 18.070312 -9.59375 18.578125 -8.207031 18.578125 -6.46875 C 18.578125 -5.101562 18.238281 -3.898438 17.5625 -2.859375 C 16.882812 -1.816406 15.90625 -1.007812 14.625 -0.4375 C 13.351562 0.125 11.835938 0.40625 10.078125 0.40625 Z M 10.078125 0.40625 "/></g></g></g><g fill="#000000" fill-opacity="1"><g transform="translate(98.140911, 715.870472)"><g><path d="M 13.140625 0.484375 C 11.285156 0.484375 9.816406 -0.0351562 8.734375 -1.078125 C 7.660156 -2.117188 7.125 -3.5 7.125 -5.21875 C 7.125 -6.914062 7.660156 -8.304688 8.734375 -9.390625 C 9.816406 -10.484375 11.285156 -11.03125 13.140625 -11.03125 C 15.023438 -11.03125 16.503906 -10.507812 17.578125 -9.46875 C 18.648438 -8.425781 19.1875 -7.046875 19.1875 -5.328125 C 19.1875 -3.597656 18.640625 -2.195312 17.546875 -1.125 C 16.460938 -0.0507812 14.992188 0.484375 13.140625 0.484375 Z M 13.140625 0.484375 "/></g></g></g><g fill="#000000" fill-opacity="1"><g transform="translate(124.458247, 715.870472)"><g><path d="M 13.140625 0.484375 C 11.285156 0.484375 9.816406 -0.0351562 8.734375 -1.078125 C 7.660156 -2.117188 7.125 -3.5 7.125 -5.21875 C 7.125 -6.914062 7.660156 -8.304688 8.734375 -9.390625 C 9.816406 -10.484375 11.285156 -11.03125 13.140625 -11.03125 C 15.023438 -11.03125 16.503906 -10.507812 17.578125 -9.46875 C 18.648438 -8.425781 19.1875 -7.046875 19.1875 -5.328125 C 19.1875 -3.597656 18.640625 -2.195312 17.546875 -1.125 C 16.460938 -0.0507812 14.992188 0.484375 13.140625 0.484375 Z M 13.140625 0.484375 "/></g></g></g><g fill="#000000" fill-opacity="1"><g transform="translate(150.775583, 715.870472)"><g><path d="M 13.140625 0.484375 C 11.285156 0.484375 9.816406 -0.0351562 8.734375 -1.078125 C 7.660156 -2.117188 7.125 -3.5 7.125 -5.21875 C 7.125 -6.914062 7.660156 -8.304688 8.734375 -9.390625 C 9.816406 -10.484375 11.285156 -11.03125 13.140625 -11.03125 C 15.023438 -11.03125 16.503906 -10.507812 17.578125 -9.46875 C 18.648438 -8.425781 19.1875 -7.046875 19.1875 -5.328125 C 19.1875 -3.597656 18.640625 -2.195312 17.546875 -1.125 C 16.460938 -0.0507812 14.992188 0.484375 13.140625 0.484375 Z M 13.140625 0.484375 "/></g></g></g><g fill="#ffffff" fill-opacity="1"><g transform="translate(552.489648, 553.457533)"><g><path d="M 5.0625 0.171875 C 4.332031 0.171875 3.675781 0.0703125 3.09375 -0.125 C 2.519531 -0.320312 2.039062 -0.582031 1.65625 -0.90625 C 1.269531 -1.226562 0.984375 -1.582031 0.796875 -1.96875 L 1.53125 -2.875 L 1.734375 -2.875 C 2.453125 -1.664062 3.5625 -1.0625 5.0625 -1.0625 C 5.925781 -1.0625 6.570312 -1.242188 7 -1.609375 C 7.425781 -1.972656 7.640625 -2.476562 7.640625 -3.125 C 7.640625 -3.5 7.566406 -3.816406 7.421875 -4.078125 C 7.285156 -4.347656 7.054688 -4.578125 6.734375 -4.765625 C 6.410156 -4.953125 5.972656 -5.113281 5.421875 -5.25 L 4.0625 -5.578125 C 3.0625 -5.828125 2.320312 -6.21875 1.84375 -6.75 C 1.363281 -7.28125 1.125 -7.953125 1.125 -8.765625 C 1.125 -9.335938 1.269531 -9.847656 1.5625 -10.296875 C 1.863281 -10.742188 2.296875 -11.09375 2.859375 -11.34375 C 3.429688 -11.601562 4.113281 -11.734375 4.90625 -11.734375 C 5.769531 -11.734375 6.5 -11.609375 7.09375 -11.359375 C 7.695312 -11.117188 8.179688 -10.753906 8.546875 -10.265625 L 7.875 -9.375 L 7.6875 -9.375 C 7.351562 -9.78125 6.957031 -10.078125 6.5 -10.265625 C 6.050781 -10.453125 5.519531 -10.546875 4.90625 -10.546875 C 4.101562 -10.546875 3.492188 -10.390625 3.078125 -10.078125 C 2.671875 -9.765625 2.46875 -9.335938 2.46875 -8.796875 C 2.46875 -8.265625 2.617188 -7.84375 2.921875 -7.53125 C 3.222656 -7.226562 3.734375 -6.992188 4.453125 -6.828125 L 5.828125 -6.5 C 6.953125 -6.226562 7.765625 -5.820312 8.265625 -5.28125 C 8.773438 -4.738281 9.03125 -4.039062 9.03125 -3.1875 C 9.03125 -2.53125 8.882812 -1.953125 8.59375 -1.453125 C 8.300781 -0.953125 7.851562 -0.554688 7.25 -0.265625 C 6.65625 0.0234375 5.925781 0.171875 5.0625 0.171875 Z M 5.0625 0.171875 "/></g></g><g transform="translate(562.401413, 553.457533)"><g><path d="M 5.90625 -1.390625 L 6.3125 -0.453125 C 6.101562 -0.253906 5.832031 -0.101562 5.5 0 C 5.164062 0.113281 4.804688 0.171875 4.421875 0.171875 C 2.753906 0.171875 1.921875 -0.671875 1.921875 -2.359375 L 1.921875 -7.671875 L 0.390625 -7.671875 L 0.390625 -8.734375 L 1.921875 -8.734375 L 1.921875 -10.578125 L 3.203125 -10.796875 L 3.203125 -8.734375 L 6.015625 -8.734375 L 6.015625 -7.671875 L 3.203125 -7.671875 L 3.203125 -2.484375 C 3.203125 -1.484375 3.640625 -0.984375 4.515625 -0.984375 C 4.984375 -0.984375 5.390625 -1.117188 5.734375 -1.390625 Z M 5.90625 -1.390625 "/></g></g><g transform="translate(569.046171, 553.457533)"><g><path d="M 5.015625 0.171875 C 4.191406 0.171875 3.472656 0 2.859375 -0.34375 C 2.253906 -0.695312 1.785156 -1.210938 1.453125 -1.890625 C 1.117188 -2.566406 0.953125 -3.390625 0.953125 -4.359375 C 0.953125 -5.328125 1.117188 -6.148438 1.453125 -6.828125 C 1.785156 -7.503906 2.253906 -8.015625 2.859375 -8.359375 C 3.472656 -8.710938 4.191406 -8.890625 5.015625 -8.890625 C 5.835938 -8.890625 6.550781 -8.710938 7.15625 -8.359375 C 7.757812 -8.015625 8.226562 -7.503906 8.5625 -6.828125 C 8.894531 -6.148438 9.0625 -5.328125 9.0625 -4.359375 C 9.0625 -3.390625 8.894531 -2.566406 8.5625 -1.890625 C 8.226562 -1.210938 7.757812 -0.695312 7.15625 -0.34375 C 6.550781 0 5.835938 0.171875 5.015625 0.171875 Z M 5.015625 -0.984375 C 5.878906 -0.984375 6.539062 -1.257812 7 -1.8125 C 7.46875 -2.363281 7.703125 -3.210938 7.703125 -4.359375 C 7.703125 -5.515625 7.46875 -6.363281 7 -6.90625 C 6.539062 -7.457031 5.878906 -7.734375 5.015625 -7.734375 C 4.140625 -7.734375 3.46875 -7.457031 3 -6.90625 C 2.539062 -6.351562 2.3125 -5.503906 2.3125 -4.359375 C 2.3125 -3.210938 2.539062 -2.363281 3 -1.8125 C 3.46875 -1.257812 4.140625 -0.984375 5.015625 -0.984375 Z M 5.015625 -0.984375 "/></g></g><g transform="translate(579.060771, 553.457533)"><g><path d="M 1.515625 0 L 1.515625 -8.734375 L 2.75 -8.734375 L 2.75 -7.359375 L 2.90625 -7.3125 C 3.3125 -8.3125 4.078125 -8.8125 5.203125 -8.8125 C 5.796875 -8.8125 6.242188 -8.703125 6.546875 -8.484375 L 6.203125 -7.390625 L 6.046875 -7.359375 C 5.722656 -7.523438 5.363281 -7.609375 4.96875 -7.609375 C 4.28125 -7.609375 3.75 -7.34375 3.375 -6.8125 C 3 -6.289062 2.8125 -5.445312 2.8125 -4.28125 L 2.8125 0 Z M 1.515625 0 "/></g></g><g transform="translate(585.800455, 553.457533)"><g><path d="M 8.3125 -4.0625 L 2.3125 -4.0625 C 2.351562 -3 2.609375 -2.21875 3.078125 -1.71875 C 3.554688 -1.226562 4.207031 -0.984375 5.03125 -0.984375 C 5.644531 -0.984375 6.140625 -1.09375 6.515625 -1.3125 C 6.898438 -1.539062 7.203125 -1.890625 7.421875 -2.359375 L 7.59375 -2.359375 L 8.421875 -1.859375 C 8.171875 -1.234375 7.765625 -0.738281 7.203125 -0.375 C 6.648438 -0.0078125 5.925781 0.171875 5.03125 0.171875 C 4.1875 0.171875 3.457031 0.00390625 2.84375 -0.328125 C 2.238281 -0.660156 1.769531 -1.164062 1.4375 -1.84375 C 1.113281 -2.519531 0.953125 -3.359375 0.953125 -4.359375 C 0.953125 -5.347656 1.125 -6.179688 1.46875 -6.859375 C 1.820312 -7.546875 2.296875 -8.054688 2.890625 -8.390625 C 3.492188 -8.722656 4.175781 -8.890625 4.9375 -8.890625 C 6.0625 -8.890625 6.9375 -8.570312 7.5625 -7.9375 C 8.1875 -7.3125 8.503906 -6.378906 8.515625 -5.140625 C 8.515625 -4.660156 8.503906 -4.332031 8.484375 -4.15625 Z M 7.234375 -5.140625 C 7.210938 -6.066406 7.003906 -6.738281 6.609375 -7.15625 C 6.222656 -7.582031 5.664062 -7.796875 4.9375 -7.796875 C 4.175781 -7.796875 3.578125 -7.582031 3.140625 -7.15625 C 2.703125 -6.738281 2.4375 -6.066406 2.34375 -5.140625 Z M 7.234375 -5.140625 "/></g></g><g transform="translate(595.103117, 553.457533)"><g><path d="M 4.53125 0.171875 C 3.820312 0.171875 3.195312 0.00390625 2.65625 -0.328125 C 2.125 -0.671875 1.707031 -1.175781 1.40625 -1.84375 C 1.101562 -2.519531 0.953125 -3.359375 0.953125 -4.359375 C 0.953125 -5.359375 1.109375 -6.195312 1.421875 -6.875 C 1.742188 -7.550781 2.179688 -8.054688 2.734375 -8.390625 C 3.296875 -8.722656 3.941406 -8.890625 4.671875 -8.890625 C 5.253906 -8.890625 5.773438 -8.78125 6.234375 -8.5625 C 6.703125 -8.34375 7.101562 -7.984375 7.4375 -7.484375 L 7.609375 -7.515625 L 7.609375 -12.234375 L 8.890625 -12.234375 L 8.890625 0 L 7.609375 0 L 7.609375 -1.28125 L 7.4375 -1.3125 C 7.15625 -0.875 6.769531 -0.515625 6.28125 -0.234375 C 5.789062 0.0351562 5.207031 0.171875 4.53125 0.171875 Z M 4.921875 -0.984375 C 5.734375 -0.984375 6.382812 -1.257812 6.875 -1.8125 C 7.363281 -2.375 7.609375 -3.222656 7.609375 -4.359375 C 7.609375 -5.492188 7.363281 -6.335938 6.875 -6.890625 C 6.382812 -7.453125 5.734375 -7.734375 4.921875 -7.734375 C 4.085938 -7.734375 3.441406 -7.460938 2.984375 -6.921875 C 2.535156 -6.378906 2.3125 -5.523438 2.3125 -4.359375 C 2.3125 -2.109375 3.179688 -0.984375 4.921875 -0.984375 Z M 4.921875 -0.984375 "/></g></g><g transform="translate(605.521149, 553.457533)"><g/></g><g transform="translate(609.492183, 553.457533)"><g><path d="M 5.015625 0.171875 C 4.191406 0.171875 3.472656 0 2.859375 -0.34375 C 2.253906 -0.695312 1.785156 -1.210938 1.453125 -1.890625 C 1.117188 -2.566406 0.953125 -3.390625 0.953125 -4.359375 C 0.953125 -5.328125 1.117188 -6.148438 1.453125 -6.828125 C 1.785156 -7.503906 2.253906 -8.015625 2.859375 -8.359375 C 3.472656 -8.710938 4.191406 -8.890625 5.015625 -8.890625 C 5.835938 -8.890625 6.550781 -8.710938 7.15625 -8.359375 C 7.757812 -8.015625 8.226562 -7.503906 8.5625 -6.828125 C 8.894531 -6.148438 9.0625 -5.328125 9.0625 -4.359375 C 9.0625 -3.390625 8.894531 -2.566406 8.5625 -1.890625 C 8.226562 -1.210938 7.757812 -0.695312 7.15625 -0.34375 C 6.550781 0 5.835938 0.171875 5.015625 0.171875 Z M 5.015625 -0.984375 C 5.878906 -0.984375 6.539062 -1.257812 7 -1.8125 C 7.46875 -2.363281 7.703125 -3.210938 7.703125 -4.359375 C 7.703125 -5.515625 7.46875 -6.363281 7 -6.90625 C 6.539062 -7.457031 5.878906 -7.734375 5.015625 -7.734375 C 4.140625 -7.734375 3.46875 -7.457031 3 -6.90625 C 2.539062 -6.351562 2.3125 -5.503906 2.3125 -4.359375 C 2.3125 -3.210938 2.539062 -2.363281 3 -1.8125 C 3.46875 -1.257812 4.140625 -0.984375 5.015625 -0.984375 Z M 5.015625 -0.984375 "/></g></g><g transform="translate(619.506784, 553.457533)"><g><path d="M 1.515625 0 L 1.515625 -8.734375 L 2.75 -8.734375 L 2.75 -7.359375 L 2.90625 -7.3125 C 3.195312 -7.820312 3.566406 -8.210938 4.015625 -8.484375 C 4.472656 -8.753906 5.023438 -8.890625 5.671875 -8.890625 C 6.722656 -8.890625 7.484375 -8.617188 7.953125 -8.078125 C 8.421875 -7.546875 8.65625 -6.726562 8.65625 -5.625 L 8.65625 0 L 7.375 0 L 7.375 -5.578125 C 7.375 -6.109375 7.304688 -6.53125 7.171875 -6.84375 C 7.035156 -7.164062 6.828125 -7.398438 6.546875 -7.546875 C 6.265625 -7.691406 5.894531 -7.765625 5.4375 -7.765625 C 4.644531 -7.765625 4.007812 -7.503906 3.53125 -6.984375 C 3.050781 -6.460938 2.8125 -5.628906 2.8125 -4.484375 L 2.8125 0 Z M 1.515625 0 "/></g></g><g transform="translate(629.553026, 553.457533)"><g/></g><g transform="translate(633.52406, 553.457533)"><g><path d="M 6.078125 0.171875 C 5.109375 0.171875 4.253906 -0.046875 3.515625 -0.484375 C 2.773438 -0.929688 2.195312 -1.601562 1.78125 -2.5 C 1.363281 -3.394531 1.15625 -4.488281 1.15625 -5.78125 C 1.15625 -7.082031 1.375 -8.175781 1.8125 -9.0625 C 2.257812 -9.957031 2.878906 -10.625 3.671875 -11.0625 C 4.460938 -11.507812 5.378906 -11.734375 6.421875 -11.734375 C 7.523438 -11.734375 8.429688 -11.53125 9.140625 -11.125 C 9.859375 -10.726562 10.363281 -10.140625 10.65625 -9.359375 L 9.765625 -8.828125 L 9.578125 -8.828125 C 9.273438 -9.429688 8.867188 -9.863281 8.359375 -10.125 C 7.847656 -10.382812 7.203125 -10.515625 6.421875 -10.515625 C 3.878906 -10.515625 2.609375 -8.9375 2.609375 -5.78125 C 2.609375 -4.144531 2.925781 -2.945312 3.5625 -2.1875 C 4.207031 -1.4375 5.101562 -1.0625 6.25 -1.0625 C 7.300781 -1.0625 8.085938 -1.300781 8.609375 -1.78125 C 9.140625 -2.257812 9.40625 -3.015625 9.40625 -4.046875 L 9.40625 -5.078125 L 6.109375 -5.078125 L 6.109375 -6.15625 L 10.734375 -6.15625 L 10.734375 0 L 9.46875 0 L 9.46875 -1.546875 L 9.296875 -1.59375 C 8.992188 -1 8.566406 -0.554688 8.015625 -0.265625 C 7.472656 0.0234375 6.828125 0.171875 6.078125 0.171875 Z M 6.078125 0.171875 "/></g></g><g transform="translate(645.547909, 553.457533)"><g><path d="M 5.890625 -11.5625 C 6.679688 -11.5625 7.363281 -11.421875 7.9375 -11.140625 C 8.507812 -10.859375 8.941406 -10.453125 9.234375 -9.921875 C 9.535156 -9.390625 9.6875 -8.765625 9.6875 -8.046875 C 9.6875 -7.328125 9.535156 -6.703125 9.234375 -6.171875 C 8.941406 -5.648438 8.507812 -5.242188 7.9375 -4.953125 C 7.363281 -4.671875 6.679688 -4.53125 5.890625 -4.53125 L 3.109375 -4.53125 L 3.109375 0 L 1.75 0 L 1.75 -11.5625 Z M 5.84375 -5.6875 C 7.457031 -5.6875 8.265625 -6.472656 8.265625 -8.046875 C 8.265625 -9.617188 7.457031 -10.40625 5.84375 -10.40625 L 3.109375 -10.40625 L 3.109375 -5.6875 Z M 5.84375 -5.6875 "/></g></g><g transform="translate(656.092508, 553.457533)"><g><path d="M 5.96875 0.171875 C 4.550781 0.171875 3.476562 -0.1875 2.75 -0.90625 C 2.019531 -1.632812 1.65625 -2.703125 1.65625 -4.109375 L 1.65625 -11.5625 L 3 -11.5625 L 3 -4.125 C 3 -3.113281 3.242188 -2.351562 3.734375 -1.84375 C 4.222656 -1.34375 4.96875 -1.09375 5.96875 -1.09375 C 7.9375 -1.09375 8.921875 -2.101562 8.921875 -4.125 L 8.921875 -11.5625 L 10.28125 -11.5625 L 10.28125 -4.109375 C 10.28125 -2.703125 9.914062 -1.632812 9.1875 -0.90625 C 8.457031 -0.1875 7.382812 0.171875 5.96875 0.171875 Z M 5.96875 0.171875 "/></g></g></g></svg>