<svg xmlns="http://www.w3.org/2000/svg" xmlns:xlink="http://www.w3.org/1999/xlink" width="4535" zoomAndPan="magnify" viewBox="0 0 3401.25 1417.500002" height="1889" preserveAspectRatio="xMidYMid meet" version="1.0"><defs><g/></defs><path stroke-linecap="butt" transform="matrix(0.749691, 0, 0, 0.749846, 955.86766, 277.993007)" fill="none" stroke-linejoin="miter" d="M -0.000630417 10.000965 L 1593.337589 10.000965 " stroke="#b0afb1" stroke-width="20" stroke-opacity="1" stroke-miterlimit="4"/><path stroke-linecap="butt" transform="matrix(0.749619, 0.000000000000000395, -0.000000000000000395, 0.749846, 526.959088, 574.365963)" fill="none" stroke-linejoin="miter" d="M 0.0024674 9.998482 L 1294.404135 9.998482 " stroke="#b0afb1" stroke-width="20" stroke-opacity="1" stroke-miterlimit="4"/><path stroke-linecap="butt" transform="matrix(0.749691, 0, 0, 0.749846, 1012.26135, 433.304941)" fill="none" stroke-linejoin="miter" d="M 0.000492012 10.00172 L 1593.333501 10.00172 " stroke="#b0afb1" stroke-width="20" stroke-opacity="1" stroke-miterlimit="4"/><path stroke-linecap="butt" transform="matrix(0.749691, 0, 0, 0.749846, 1203.625018, 371.110919)" fill="none" stroke-linejoin="miter" d="M -0.0000237096 10 L 1593.332985 10 " stroke="#b0afb1" stroke-width="20" stroke-opacity="1" stroke-miterlimit="4"/><path stroke-linecap="butt" transform="matrix(0.749691, 0, 0, 0.749846, 731.688537, 662.455495)" fill="none" stroke-linejoin="miter" d="M -0.0013828 9.998897 L 1593.336836 9.998897 " stroke="#b0afb1" stroke-width="20" stroke-opacity="1" stroke-miterlimit="4"/><path stroke-linecap="butt" transform="matrix(0.749691, 0, 0, 0.749846, 783.515294, 770.367458)" fill="none" stroke-linejoin="miter" d="M 0.000442123 10.001697 L 1593.333451 10.001697 " stroke="#b0afb1" stroke-width="20" stroke-opacity="1" stroke-miterlimit="4"/><path stroke-linecap="butt" transform="matrix(0.749691, 0, 0, 0.749846, 1070.689426, 850.572172)" fill="none" stroke-linejoin="miter" d="M -0.00256904 9.999578 L 1593.33565 9.999578 " stroke="#b0afb1" stroke-width="20" stroke-opacity="1" stroke-miterlimit="4"/><path fill="#55b27e" d="M 2117.949219 366.53125 C 2117.949219 204.496094 2241.152344 73.035156 2392.996094 73.035156 C 2545.070312 73.035156 2668.046875 204.496094 2668.046875 366.53125 C 2668.046875 528.804688 2545.070312 660.027344 2392.996094 660.027344 C 2241.152344 660.027344 2117.949219 528.804688 2117.949219 366.53125 Z M 2117.949219 366.53125 " fill-opacity="1" fill-rule="evenodd"/><path stroke-linecap="butt" transform="matrix(12.134859, 0, 0, 12.135461, 2110.666989, 65.752643)" fill="none" stroke-linejoin="round" d="M 0.600108 24.785099 C 0.600108 11.432895 10.752935 0.600102 23.265956 0.600102 C 35.79797 0.600102 45.932127 11.432895 45.932127 24.785099 C 45.932127 38.156938 35.79797 48.970096 23.265956 48.970096 C 10.752935 48.970096 0.600108 38.156938 0.600108 24.785099 " stroke="#000000" stroke-width="0.64" stroke-opacity="1" stroke-miterlimit="4"/><path fill="#009853" d="M 2622.199219 291.339844 C 2606.4375 240.878906 2606.4375 274.59375 2606.4375 324.808594 C 2606.4375 458.941406 2495.839844 559.363281 2353.460938 559.363281 C 2321.921875 559.363281 2274.390625 542.628906 2242.851562 525.894531 C 2227.089844 525.894531 2211.082031 525.894531 2227.089844 542.640625 C 2274.390625 592.84375 2337.699219 609.578125 2401.003906 609.578125 C 2527.367188 609.578125 2637.976562 509.15625 2637.976562 375.023438 C 2637.976562 341.542969 2637.976562 308.074219 2622.199219 291.339844 Z M 2622.199219 291.339844 " fill-opacity="1" fill-rule="evenodd"/><path fill="#00733b" d="M 2401.234375 609.578125 C 2527.609375 609.578125 2637.976562 509.15625 2637.976562 374.78125 C 2622.199219 408.496094 2574.910156 592.84375 2401.234375 609.578125 Z M 2401.234375 609.578125 " fill-opacity="1" fill-rule="evenodd"/><path fill="#a9d4b4" d="M 2448.78125 141.1875 C 2259.839844 124.453125 2196.777344 241.609375 2196.777344 325.292969 C 2181 342.039062 2196.777344 375.511719 2196.777344 392.246094 C 2212.539062 425.714844 2244.066406 475.6875 2307.128906 442.449219 C 2385.714844 425.714844 2385.714844 342.027344 2433.015625 358.761719 C 2543.128906 375.511719 2605.953125 291.824219 2558.90625 208.136719 C 2543.128906 174.667969 2511.601562 157.921875 2448.78125 141.1875 Z M 2448.78125 141.1875 " fill-opacity="1" fill-rule="evenodd"/><path fill="#ffffff" d="M 2244.066406 275.816406 C 2244.066406 248.148438 2265.421875 225.359375 2291.609375 225.359375 C 2318.050781 225.359375 2339.152344 248.160156 2339.152344 275.816406 C 2339.152344 303.703125 2318.039062 326.265625 2291.609375 326.265625 C 2265.410156 326.265625 2244.066406 303.703125 2244.066406 275.816406 Z M 2354.675781 232.152344 C 2354.675781 218.320312 2361.46875 206.914062 2369.722656 206.914062 C 2378.203125 206.914062 2384.746094 218.320312 2384.746094 232.152344 C 2384.746094 246.21875 2378.191406 257.371094 2369.710938 257.371094 C 2361.457031 257.371094 2354.664062 246.21875 2354.664062 232.152344 Z M 2244.066406 375.753906 C 2244.066406 366.289062 2254.5 358.277344 2267.363281 358.277344 C 2280.214844 358.277344 2290.640625 366.289062 2290.640625 375.753906 C 2290.640625 385.449219 2280.203125 393.214844 2267.351562 393.214844 C 2254.488281 393.214844 2244.066406 385.449219 2244.066406 375.742188 Z M 2244.066406 375.753906 " fill-opacity="1" fill-rule="evenodd"/><path stroke-linecap="round" transform="matrix(12.134859, 0, 0, 12.135461, 2110.666989, 65.752643)" fill="none" stroke-linejoin="round" d="M 0.600108 24.785099 C 0.600108 11.432895 10.752935 0.600102 23.265956 0.600102 C 35.79797 0.600102 45.932127 11.432895 45.932127 24.785099 C 45.932127 38.156938 35.79797 48.970096 23.265956 48.970096 C 10.752935 48.970096 0.600108 38.156938 0.600108 24.785099 " stroke="#000000" stroke-width="0.32" stroke-opacity="1" stroke-miterlimit="4"/><path fill="#e2007a" d="M 1933.53125 673.238281 C 1933.53125 544.261719 2028.902344 439.371094 2146.414062 439.371094 C 2264.140625 439.371094 2359.3125 544.261719 2359.3125 673.238281 C 2359.3125 802.410156 2264.132812 907.101562 2146.414062 907.101562 C 2028.902344 907.101562 1933.53125 802.410156 1933.53125 673.238281 Z M 1933.53125 673.238281 " fill-opacity="1" fill-rule="evenodd"/><path fill="#ac005e" d="M 2322.011719 613.414062 C 2309.390625 573.007812 2309.390625 600.003906 2309.390625 640.214844 C 2309.390625 747.628906 2221.402344 828.046875 2120.585938 828.046875 C 2082.898438 828.046875 2045.21875 814.644531 2032.585938 801.246094 C 2007.339844 801.246094 2007.339844 801.246094 2019.960938 814.65625 C 2045.21875 854.859375 2095.53125 868.261719 2145.832031 868.261719 C 2246.453125 868.261719 2334.453125 787.84375 2334.453125 680.429688 C 2334.453125 653.617188 2334.453125 626.816406 2322.011719 613.414062 Z M 2322.011719 613.414062 " fill-opacity="1" fill-rule="evenodd"/><path fill="#640033" d="M 2147.191406 868.261719 C 2247.230469 868.261719 2334.453125 787.84375 2334.453125 680.234375 C 2334.453125 707.230469 2297.152344 854.859375 2147.191406 868.261719 Z M 2147.191406 868.261719 " fill-opacity="1" fill-rule="evenodd"/><path fill="#ef91b8" d="M 2183.714844 493.171875 C 2045.996094 479.769531 1983.257812 573.007812 1983.257812 639.632812 L 1983.257812 693.054688 C 1995.882812 719.660156 2020.933594 759.484375 2083.480469 732.859375 C 2133.597656 719.652344 2133.597656 653.023438 2171.089844 666.230469 C 2258.882812 679.640625 2308.804688 613.015625 2283.945312 546.386719 C 2258.882812 519.78125 2233.832031 506.5625 2196.144531 493.164062 Z M 2183.714844 493.171875 " fill-opacity="1" fill-rule="evenodd"/><path fill="#ffffff" d="M 2020.546875 600.207031 C 2020.546875 578.449219 2040.359375 560.578125 2064.441406 560.578125 C 2088.730469 560.578125 2108.347656 578.449219 2108.347656 600.207031 C 2108.347656 622.148438 2088.730469 639.828125 2064.441406 639.828125 C 2040.359375 639.828125 2020.546875 622.148438 2020.546875 600.207031 Z M 2108.347656 566.019531 C 2108.347656 554.941406 2114.179688 545.816406 2121.167969 545.816406 C 2128.359375 545.816406 2133.996094 554.949219 2133.996094 566.019531 C 2133.996094 577.28125 2128.359375 586.214844 2121.167969 586.214844 C 2114.171875 586.214844 2108.339844 577.28125 2108.339844 566.019531 Z M 2033.753906 680.234375 C 2033.753906 673.042969 2039.195312 667.019531 2045.804688 667.019531 C 2052.605469 667.019531 2057.84375 673.042969 2057.84375 680.234375 C 2057.84375 687.621094 2052.597656 693.441406 2045.792969 693.441406 C 2039.195312 693.441406 2033.753906 687.609375 2033.753906 680.226562 Z M 2033.753906 680.234375 " fill-opacity="1" fill-rule="evenodd"/><path stroke-linecap="round" transform="matrix(9.718164, 0, 0, 9.718062, 1927.698607, 433.542194)" fill="none" stroke-linejoin="round" d="M 0.600179 24.665009 C 0.600179 11.393169 10.413874 0.599801 22.505841 0.599801 C 34.619916 0.599801 44.413111 11.393169 44.413111 24.665009 C 44.413111 37.956946 34.619112 48.729815 22.505841 48.729815 C 10.413874 48.729815 0.600179 37.956946 0.600179 24.665009 " stroke="#000000" stroke-width="0.64" stroke-opacity="1" stroke-miterlimit="4"/><path fill="#197896" d="M 1436.394531 528.394531 C 1436.394531 411.359375 1525.847656 316.183594 1636.09375 316.183594 C 1746.507812 316.183594 1835.792969 411.359375 1835.792969 528.394531 C 1835.792969 645.605469 1746.507812 740.605469 1636.09375 740.605469 C 1525.847656 740.605469 1436.394531 645.605469 1436.394531 528.394531 Z M 1436.394531 528.394531 " fill-opacity="1" fill-rule="evenodd"/><path fill="#003c5a" d="M 1800.578125 472.699219 C 1789.300781 436.03125 1789.300781 460.527344 1789.300781 497.019531 C 1789.300781 594.496094 1709.707031 667.457031 1607.566406 667.457031 C 1585.019531 667.457031 1550.863281 655.296875 1528.140625 643.136719 C 1516.871094 643.136719 1505.425781 643.136719 1516.871094 655.304688 C 1550.863281 691.785156 1596.296875 703.945312 1641.734375 703.945312 C 1732.421875 703.945312 1811.847656 630.976562 1811.847656 533.507812 C 1811.847656 509.179688 1811.847656 484.859375 1800.570312 472.699219 Z M 1800.578125 472.699219 " fill-opacity="1" fill-rule="evenodd"/><path fill="#00101c" d="M 1642.078125 703.945312 C 1732.773438 703.945312 1811.847656 631.503906 1811.847656 534.742188 C 1800.570312 559.0625 1766.589844 691.960938 1642.078125 703.945312 Z M 1642.078125 703.945312 " fill-opacity="1" fill-rule="evenodd"/><path fill="#71a4ba" d="M 1676.070312 363.589844 C 1539.242188 351.429688 1493.628906 436.558594 1493.628906 497.371094 C 1482.175781 509.539062 1493.628906 533.859375 1493.628906 546.019531 C 1505.074219 570.339844 1527.789062 606.65625 1573.398438 582.5 C 1630.457031 570.339844 1630.457031 509.53125 1664.625 521.699219 C 1744.570312 533.859375 1790.007812 473.050781 1755.847656 412.238281 C 1744.570312 387.917969 1721.679688 375.757812 1676.070312 363.589844 Z M 1676.070312 363.589844 " fill-opacity="1" fill-rule="evenodd"/><path fill="#ffffff" d="M 1527.257812 461.417969 C 1527.257812 441.320312 1542.765625 424.753906 1561.777344 424.753906 C 1580.976562 424.753906 1596.296875 441.320312 1596.296875 461.417969 C 1596.296875 481.683594 1580.96875 498.074219 1561.777344 498.074219 C 1542.757812 498.074219 1527.257812 481.683594 1527.257812 461.417969 Z M 1608.273438 431.101562 C 1608.273438 421.050781 1613.207031 412.769531 1619.195312 412.769531 C 1625.355469 412.769531 1630.105469 421.058594 1630.105469 431.101562 C 1630.105469 441.320312 1625.347656 449.425781 1619.1875 449.425781 C 1613.195312 449.425781 1608.261719 441.320312 1608.261719 431.101562 Z M 1527.257812 534.035156 C 1527.257812 527.160156 1535.1875 521.339844 1544.878906 521.339844 C 1554.730469 521.339844 1562.484375 527.160156 1562.484375 534.035156 C 1562.484375 541.089844 1554.730469 546.726562 1544.871094 546.726562 C 1535.179688 546.726562 1527.257812 541.082031 1527.257812 534.027344 Z M 1527.257812 534.035156 " fill-opacity="1" fill-rule="evenodd"/><path stroke-linecap="round" transform="matrix(8.810529, 0, 0, 8.818224, 1431.109527, 310.891723)" fill="none" stroke-linejoin="round" d="M 0.599851 24.665149 C 0.599851 11.393184 10.752831 0.600106 23.265825 0.600106 C 35.797883 0.600106 45.931798 11.393184 45.931798 24.665149 C 45.931798 37.957047 35.797883 48.730191 23.265825 48.730191 C 10.752831 48.730191 0.599851 37.957047 0.599851 24.665149 " stroke="#000000" stroke-width="0.64" stroke-opacity="1" stroke-miterlimit="4"/><g fill="#a6a6a6" fill-opacity="1"><g transform="translate(482.285551, 1241.349421)"><g><path d="M 160.671875 0 L 117.515625 0 C 115.546875 -2.726562 114.160156 -6.21875 113.359375 -10.46875 C 112.648438 -13.75 111.585938 -16.96875 110.171875 -20.125 C 108.753906 -23.289062 106.3125 -25.921875 102.84375 -28.015625 C 99.382812 -30.109375 94.242188 -31.234375 87.421875 -31.390625 L 57.78125 -31.390625 L 57.78125 0 L 12.125 0 L 12.125 -108.796875 L 86.359375 -108.796875 C 104.097656 -108.796875 118.414062 -107.46875 129.3125 -104.8125 C 140.207031 -102.164062 148.15625 -98 153.15625 -92.3125 C 158.164062 -86.625 160.671875 -79.207031 160.671875 -70.0625 C 160.671875 -62.425781 158.9375 -56.003906 155.46875 -50.796875 C 152.007812 -45.585938 146.539062 -41.46875 139.0625 -38.4375 C 146.28125 -35.457031 150.960938 -31.878906 153.109375 -27.703125 C 155.265625 -23.535156 156.59375 -18.953125 157.09375 -13.953125 C 157.601562 -9.503906 158.796875 -4.851562 160.671875 0 Z M 57.78125 -58.234375 L 83.859375 -58.3125 C 91.140625 -58.3125 96.875 -58.640625 101.0625 -59.296875 C 105.257812 -59.953125 108.359375 -60.847656 110.359375 -61.984375 C 112.359375 -63.117188 113.632812 -64.378906 114.1875 -65.765625 C 114.738281 -67.160156 115.015625 -68.59375 115.015625 -70.0625 C 115.015625 -71.519531 114.738281 -72.957031 114.1875 -74.375 C 113.632812 -75.789062 112.359375 -77.066406 110.359375 -78.203125 C 108.359375 -79.347656 105.257812 -80.25 101.0625 -80.90625 C 96.875 -81.5625 91.140625 -81.890625 83.859375 -81.890625 L 57.78125 -81.890625 Z M 57.78125 -58.234375 "/></g></g><g transform="translate(649.010192, 1241.349421)"><g><path d="M 182.734375 0 L 136.484375 0 L 126.234375 -17.8125 L 57.625 -17.8125 L 47.390625 0 L 1.140625 0 L 70.734375 -108.734375 L 113.125 -108.734375 Z M 110.84375 -44.734375 L 91.96875 -77.71875 L 73.015625 -44.734375 Z M 110.84375 -44.734375 "/></g></g><g transform="translate(832.869788, 1241.349421)"><g><path d="M 57.78125 0 L 12.125 0 L 12.125 -108.796875 L 86.359375 -108.796875 C 104.097656 -108.796875 118.414062 -107.46875 129.3125 -104.8125 C 140.207031 -102.164062 148.15625 -98 153.15625 -92.3125 C 158.164062 -86.625 160.671875 -79.207031 160.671875 -70.0625 C 160.671875 -60.957031 158.164062 -53.5625 153.15625 -47.875 C 148.15625 -42.1875 140.207031 -38.015625 129.3125 -35.359375 C 118.414062 -32.710938 104.097656 -31.390625 86.359375 -31.390625 L 57.78125 -31.390625 Z M 57.78125 -58.234375 L 83.859375 -58.3125 C 91.140625 -58.3125 96.875 -58.597656 101.0625 -59.171875 C 105.257812 -59.753906 108.359375 -60.578125 110.359375 -61.640625 C 112.359375 -62.703125 113.632812 -63.953125 114.1875 -65.390625 C 114.738281 -66.835938 115.015625 -68.394531 115.015625 -70.0625 C 115.015625 -71.78125 114.738281 -73.359375 114.1875 -74.796875 C 113.632812 -76.234375 112.359375 -77.484375 110.359375 -78.546875 C 108.359375 -79.609375 105.257812 -80.429688 101.0625 -81.015625 C 96.875 -81.597656 91.140625 -81.890625 83.859375 -81.890625 L 57.78125 -81.890625 Z M 57.78125 -58.234375 "/></g></g><g transform="translate(999.594428, 1241.349421)"><g><path d="M 57.78125 0 L 12.125 0 L 12.125 -108.796875 L 57.78125 -108.796875 Z M 57.78125 0 "/></g></g><g transform="translate(1069.498984, 1241.349421)"><g><path d="M 84.921875 0 L 12.125 0 L 12.125 -108.796875 L 84.921875 -108.796875 C 114.691406 -108.796875 136.097656 -104.628906 149.140625 -96.296875 C 159.648438 -89.566406 165.640625 -80.414062 167.109375 -68.84375 C 167.765625 -63.84375 168.09375 -59.015625 168.09375 -54.359375 C 168.09375 -49.765625 167.773438 -44.953125 167.140625 -39.921875 C 166.515625 -34.890625 164.835938 -30.007812 162.109375 -25.28125 C 159.378906 -20.5625 155.039062 -16.304688 149.09375 -12.515625 C 143.15625 -8.722656 135.019531 -5.6875 124.6875 -3.40625 C 114.351562 -1.132812 101.097656 0 84.921875 0 Z M 80.59375 -26.921875 C 103.800781 -26.921875 116.921875 -32.78125 119.953125 -44.5 C 120.753906 -47.789062 121.15625 -51.078125 121.15625 -54.359375 C 121.15625 -57.703125 120.738281 -61.003906 119.90625 -64.265625 C 119.070312 -67.523438 117.300781 -70.476562 114.59375 -73.125 C 111.894531 -75.78125 107.84375 -77.90625 102.4375 -79.5 C 97.03125 -81.09375 89.75 -81.890625 80.59375 -81.890625 L 57.78125 -81.890625 L 57.78125 -26.921875 Z M 80.59375 -26.921875 "/></g></g><g transform="translate(1243.653826, 1241.349421)"><g><path d="M 71.875 2.34375 C 57.164062 2.34375 45.3125 0.765625 36.3125 -2.390625 C 27.320312 -5.546875 20.472656 -9.890625 15.765625 -15.421875 C 11.066406 -20.960938 7.910156 -27.347656 6.296875 -34.578125 L 54.75 -34.578125 C 58.332031 -29.421875 64.039062 -26.84375 71.875 -26.84375 C 79.707031 -26.84375 85.421875 -29.421875 89.015625 -34.578125 C 89.316406 -35.078125 89.46875 -35.53125 89.46875 -35.9375 C 89.46875 -37.300781 87.660156 -38.320312 84.046875 -39 C 80.429688 -39.6875 75.035156 -40.207031 67.859375 -40.5625 C 58.804688 -40.96875 49.300781 -41.929688 39.34375 -43.453125 C 17.15625 -46.878906 6.0625 -55.796875 6.0625 -70.203125 C 6.0625 -71.421875 6.140625 -72.710938 6.296875 -74.078125 C 7.910156 -81.304688 11.066406 -87.6875 15.765625 -93.21875 C 20.472656 -98.757812 27.320312 -103.109375 36.3125 -106.265625 C 45.3125 -109.421875 57.164062 -111 71.875 -111 C 86.582031 -111 98.4375 -109.421875 107.4375 -106.265625 C 116.4375 -103.109375 123.285156 -98.757812 127.984375 -93.21875 C 132.679688 -87.6875 135.84375 -81.304688 137.46875 -74.078125 L 89.015625 -74.078125 C 85.421875 -79.234375 79.707031 -81.8125 71.875 -81.8125 C 64.039062 -81.8125 58.332031 -79.234375 54.75 -74.078125 C 54.488281 -73.671875 54.359375 -73.289062 54.359375 -72.9375 C 54.359375 -71.726562 56.085938 -70.832031 59.546875 -70.25 C 63.015625 -69.664062 68.125 -69.171875 74.875 -68.765625 C 81.625 -68.359375 88.8125 -67.703125 96.4375 -66.796875 C 104.070312 -65.890625 111.210938 -64.3125 117.859375 -62.0625 C 124.503906 -59.8125 129.695312 -56.488281 133.4375 -52.09375 C 136.375 -48.707031 137.84375 -44.410156 137.84375 -39.203125 C 137.84375 -37.734375 137.71875 -36.191406 137.46875 -34.578125 C 135.84375 -27.347656 132.679688 -20.960938 127.984375 -15.421875 C 123.285156 -9.890625 116.4375 -5.546875 107.4375 -2.390625 C 98.4375 0.765625 86.582031 2.34375 71.875 2.34375 Z M 71.875 2.34375 "/></g></g><g transform="translate(1387.55713, 1241.349421)"><g><path d="M 4.546875 -44.890625 L 4.546875 -63 L 74.296875 -63 L 74.296875 -44.890625 Z M 4.546875 -44.890625 "/></g></g><g transform="translate(1466.408256, 1241.349421)"><g><path d="M 71.875 2.34375 C 57.164062 2.34375 45.3125 0.765625 36.3125 -2.390625 C 27.320312 -5.546875 20.472656 -9.890625 15.765625 -15.421875 C 11.066406 -20.960938 7.910156 -27.347656 6.296875 -34.578125 L 54.75 -34.578125 C 58.332031 -29.421875 64.039062 -26.84375 71.875 -26.84375 C 79.707031 -26.84375 85.421875 -29.421875 89.015625 -34.578125 C 89.316406 -35.078125 89.46875 -35.53125 89.46875 -35.9375 C 89.46875 -37.300781 87.660156 -38.320312 84.046875 -39 C 80.429688 -39.6875 75.035156 -40.207031 67.859375 -40.5625 C 58.804688 -40.96875 49.300781 -41.929688 39.34375 -43.453125 C 17.15625 -46.878906 6.0625 -55.796875 6.0625 -70.203125 C 6.0625 -71.421875 6.140625 -72.710938 6.296875 -74.078125 C 7.910156 -81.304688 11.066406 -87.6875 15.765625 -93.21875 C 20.472656 -98.757812 27.320312 -103.109375 36.3125 -106.265625 C 45.3125 -109.421875 57.164062 -111 71.875 -111 C 86.582031 -111 98.4375 -109.421875 107.4375 -106.265625 C 116.4375 -103.109375 123.285156 -98.757812 127.984375 -93.21875 C 132.679688 -87.6875 135.84375 -81.304688 137.46875 -74.078125 L 89.015625 -74.078125 C 85.421875 -79.234375 79.707031 -81.8125 71.875 -81.8125 C 64.039062 -81.8125 58.332031 -79.234375 54.75 -74.078125 C 54.488281 -73.671875 54.359375 -73.289062 54.359375 -72.9375 C 54.359375 -71.726562 56.085938 -70.832031 59.546875 -70.25 C 63.015625 -69.664062 68.125 -69.171875 74.875 -68.765625 C 81.625 -68.359375 88.8125 -67.703125 96.4375 -66.796875 C 104.070312 -65.890625 111.210938 -64.3125 117.859375 -62.0625 C 124.503906 -59.8125 129.695312 -56.488281 133.4375 -52.09375 C 136.375 -48.707031 137.84375 -44.410156 137.84375 -39.203125 C 137.84375 -37.734375 137.71875 -36.191406 137.46875 -34.578125 C 135.84375 -27.347656 132.679688 -20.960938 127.984375 -15.421875 C 123.285156 -9.890625 116.4375 -5.546875 107.4375 -2.390625 C 98.4375 0.765625 86.582031 2.34375 71.875 2.34375 Z M 71.875 2.34375 "/></g></g><g transform="translate(1610.311561, 1241.349421)"><g><path d="M 57.78125 0 L 12.125 0 L 12.125 -108.796875 L 57.78125 -108.796875 Z M 57.78125 0 "/></g></g><g transform="translate(1680.216116, 1241.349421)"><g><path d="M 173.546875 0 L 119.265625 0 L 57.78125 -73.625 L 57.78125 0 L 12.125 0 L 12.125 -108.796875 L 66.421875 -108.796875 L 127.90625 -35.5625 L 127.90625 -108.796875 L 173.546875 -108.796875 Z M 173.546875 0 "/></g></g><g transform="translate(1865.895354, 1241.349421)"><g><path d="M 82.265625 2.34375 C 55.367188 2.34375 35.578125 -3.1875 22.890625 -14.25 C 11.671875 -24.0625 6.0625 -37.40625 6.0625 -54.28125 C 6.0625 -71.21875 11.671875 -84.585938 22.890625 -94.390625 C 35.578125 -105.460938 55.367188 -111 82.265625 -111 C 97.578125 -111 110.3125 -109.28125 120.46875 -105.84375 C 130.632812 -102.40625 138.609375 -97.71875 144.390625 -91.78125 C 150.179688 -85.84375 154.140625 -79.003906 156.265625 -71.265625 L 107.4375 -71.265625 C 102.332031 -78.296875 93.941406 -81.8125 82.265625 -81.8125 C 71.242188 -81.8125 63.128906 -78.648438 57.921875 -72.328125 C 53.773438 -67.222656 51.703125 -61.207031 51.703125 -54.28125 C 51.703125 -47.363281 53.773438 -41.375 57.921875 -36.3125 C 63.128906 -30 71.242188 -26.84375 82.265625 -26.84375 C 91.160156 -26.84375 97.84375 -27.613281 102.3125 -29.15625 C 106.789062 -30.695312 110.066406 -32.707031 112.140625 -35.1875 L 94.328125 -35.1875 L 94.328125 -54.28125 L 156.265625 -54.28125 L 156.265625 0.078125 L 137.3125 0.078125 L 133.4375 -10.46875 C 121.363281 -1.925781 104.304688 2.34375 82.265625 2.34375 Z M 82.265625 2.34375 "/></g></g><g transform="translate(2031.255263, 1241.349421)"><g><path d="M 139.125 0 L 12.125 0 L 12.125 -108.796875 L 57.78125 -108.796875 L 57.78125 -26.921875 L 139.125 -26.921875 Z M 139.125 0 "/></g></g><g transform="translate(2173.414745, 1241.349421)"><g><path d="M 143.15625 0 L 12.125 0 L 12.125 -108.796875 L 137.15625 -108.796875 L 137.15625 -81.890625 L 57.78125 -81.890625 L 57.78125 -64.828125 L 124.875 -64.828125 L 124.875 -43.90625 L 57.78125 -43.90625 L 57.78125 -26.921875 L 143.15625 -26.921875 Z M 143.15625 0 "/></g></g><g transform="translate(2322.625337, 1241.349421)"><g><path d="M 82.265625 2.34375 C 55.367188 2.34375 35.578125 -3.1875 22.890625 -14.25 C 11.671875 -24.007812 6.0625 -37.351562 6.0625 -54.28125 C 6.0625 -71.21875 11.671875 -84.585938 22.890625 -94.390625 C 35.578125 -105.410156 55.367188 -110.921875 82.265625 -110.921875 C 98.035156 -110.921875 111.078125 -109.113281 121.390625 -105.5 C 131.703125 -101.882812 139.710938 -96.941406 145.421875 -90.671875 C 151.140625 -84.410156 154.929688 -77.238281 156.796875 -69.15625 L 108.796875 -69.15625 C 103.992188 -77.59375 95.148438 -81.8125 82.265625 -81.8125 C 71.242188 -81.8125 63.128906 -78.625 57.921875 -72.25 C 53.773438 -67.195312 51.703125 -61.207031 51.703125 -54.28125 C 51.703125 -47.363281 53.773438 -41.375 57.921875 -36.3125 C 63.128906 -29.945312 71.242188 -26.765625 82.265625 -26.765625 C 95.148438 -26.765625 103.992188 -31.007812 108.796875 -39.5 L 156.796875 -39.5 C 154.929688 -31.363281 151.140625 -24.160156 145.421875 -17.890625 C 139.710938 -11.617188 131.703125 -6.675781 121.390625 -3.0625 C 111.078125 0.539062 98.035156 2.34375 82.265625 2.34375 Z M 82.265625 2.34375 "/></g></g><g transform="translate(2485.48324, 1241.349421)"><g><path d="M 143.15625 0 L 12.125 0 L 12.125 -108.796875 L 137.15625 -108.796875 L 137.15625 -81.890625 L 57.78125 -81.890625 L 57.78125 -64.828125 L 124.875 -64.828125 L 124.875 -43.90625 L 57.78125 -43.90625 L 57.78125 -26.921875 L 143.15625 -26.921875 Z M 143.15625 0 "/></g></g><g transform="translate(2634.693832, 1241.349421)"><g><path d="M 139.125 0 L 12.125 0 L 12.125 -108.796875 L 57.78125 -108.796875 L 57.78125 -26.921875 L 139.125 -26.921875 Z M 139.125 0 "/></g></g><g transform="translate(2776.853313, 1241.349421)"><g><path d="M 139.125 0 L 12.125 0 L 12.125 -108.796875 L 57.78125 -108.796875 L 57.78125 -26.921875 L 139.125 -26.921875 Z M 139.125 0 "/></g></g></g></svg>
