<?xml version="1.0" encoding="UTF-8"?>
<!-- Generator: https://ezgif.com/png-to-svg -->
<svg version="1.1" xmlns="http://www.w3.org/2000/svg" width="3204" height="792">
<path d="M0 0 C1.31 0.01 2.62 0.01 3.97 0.02 C18.49 0.26 31.1 2.99 44.19 9.44 C45.66 10.16 45.66 10.16 47.17 10.89 C60.31 17.89 69.98 28.04 74.81 42.28 C76.91 54.35 75.63 66.42 68.5 76.56 C67.42 77.87 66.31 79.17 65.19 80.44 C64.56 81.17 63.94 81.9 63.29 82.65 C50.43 96.63 30.14 104.2 11.52 105.74 C7.8 105.87 4.1 105.91 0.38 105.88 C-0.94 105.87 -2.25 105.86 -3.6 105.85 C-18.11 105.61 -30.72 102.88 -43.81 96.44 C-44.8 95.96 -45.78 95.48 -46.79 94.98 C-59.93 87.98 -69.6 77.83 -74.44 63.6 C-76.53 51.53 -75.25 39.46 -68.12 29.31 C-67.05 28 -65.94 26.71 -64.81 25.44 C-64.19 24.71 -63.56 23.98 -62.92 23.23 C-47.14 6.07 -22.54 -0.18 0 0 Z " fill="#4169E1" transform="translate(3031.8125,370.5625)"/>
<path d="M0 0 C1.06 0.36 2.11 0.72 3.2 1.1 C18.97 7.06 31.71 17.38 38.82 32.77 C40.99 37.97 41.55 42.64 41.5 48.25 C41.49 49.08 41.49 49.91 41.48 50.77 C41.09 64.53 34.1 74.19 24.56 83.56 C5.14 100.42 -20.44 102.3 -45 101 C-50.59 100.35 -55.71 98.92 -61 97 C-62.6 96.44 -62.6 96.44 -64.23 95.87 C-80.07 89.8 -92.65 79.8 -99.81 64.24 C-101.98 59.03 -102.55 54.36 -102.5 48.75 C-102.49 47.92 -102.49 47.09 -102.48 46.23 C-102.12 33.76 -96.49 24.68 -87.97 15.91 C-65.57 -5.23 -28.57 -10.23 0 0 Z " fill="#76B900" transform="translate(2839,265)"/>
<path d="M0 0 C1.18 0.98 2.35 1.98 3.5 3 C4.16 3.55 4.82 4.09 5.5 4.66 C12.16 10.62 18.77 20.84 19.69 29.89 C20.25 44.52 18.49 55.65 8.5 67 C7.95 67.65 7.4 68.31 6.83 68.98 C-0.99 77.59 -12.49 83.52 -23.5 87 C-24.42 87.3 -25.33 87.6 -26.28 87.9 C-49.71 94.19 -74.96 90.86 -95.86 78.97 C-99.34 76.91 -102.48 74.69 -105.5 72 C-106.16 71.45 -106.82 70.91 -107.5 70.34 C-114.16 64.38 -120.77 54.16 -121.69 45.11 C-122.25 30.48 -120.49 19.35 -110.5 8 C-109.95 7.35 -109.4 6.69 -108.83 6.02 C-101.01 -2.59 -89.51 -8.52 -78.5 -12 C-77.58 -12.3 -76.67 -12.6 -75.72 -12.9 C-50.09 -19.78 -21.61 -15.42 0 0 Z " fill="#7400FF" transform="translate(2708.5,491)"/>
<path d="M0 0 C761.97 0 1523.94 0 2309 0 C2309 0.66 2309 1.32 2309 2 C1547.03 2 785.06 2 0 2 C0 1.34 0 0.68 0 0 Z " fill="#7400FF" transform="translate(234,526)"/>
<path d="M0 0 C755.04 0 1510.08 0 2288 0 C2288 0.66 2288 1.32 2288 2 C1532.96 2 777.92 2 0 2 C0 1.34 0 0.68 0 0 Z " fill="#76B900" transform="translate(401,319)"/>
<path d="M0 0 C732.6 0 1465.2 0 2220 0 C2220 0.66 2220 1.32 2220 2 C1487.4 2 754.8 2 0 2 C0 1.34 0 0.68 0 0 Z " fill="#7400FF" transform="translate(0,594)"/>
<path d="M0 0 C732.6 0 1465.2 0 2220 0 C2220 0.66 2220 1.32 2220 2 C1487.4 2 754.8 2 0 2 C0 1.34 0 0.68 0 0 Z " fill="#76B900" transform="translate(251,241)"/>
<path d="M0 0 C7.39 2.31 11.36 10.23 15.18 16.48 C16.82 19.13 18.6 21.63 20.44 24.13 C21.64 25.77 22.81 27.43 23.98 29.09 C27.28 33.76 30.68 38.35 34.07 42.95 C34.98 44.18 34.98 44.18 35.9 45.43 C38.47 48.9 41.04 52.37 43.63 55.82 C43.96 40.97 44.29 26.12 44.63 10.82 C41 10.82 37.37 10.82 33.63 10.82 C30.44 9.64 30.44 9.64 28.63 7.82 C28.13 5.26 28.13 5.26 28.63 2.82 C33.42 -0.37 38.91 0.49 44.51 0.51 C46.62 0.51 48.74 0.49 50.85 0.46 C52.19 0.46 53.54 0.46 54.88 0.46 C56.1 0.46 57.33 0.45 58.58 0.45 C61.63 0.82 61.63 0.82 63.55 2.19 C64.63 3.82 64.63 3.82 64.63 6.39 C63.63 8.82 63.63 8.82 61.32 10.14 C58.63 10.82 58.63 10.82 54.63 10.82 C54.63 11.6 54.64 12.37 54.64 13.17 C54.66 20.45 54.67 27.74 54.68 35.02 C54.69 38.77 54.7 42.51 54.71 46.26 C54.72 49.87 54.72 53.48 54.73 57.09 C54.73 58.47 54.73 59.85 54.74 61.24 C54.74 63.16 54.75 65.09 54.75 67.02 C54.75 68.12 54.75 69.22 54.75 70.35 C54.63 72.82 54.63 72.82 53.63 73.82 C49.85 74.47 46.4 74.55 42.63 73.82 C39.59 71.56 37.82 68.7 35.82 65.51 C34.63 63.76 33.44 62 32.25 60.25 C31.35 58.9 31.35 58.9 30.44 57.52 C27.6 53.29 24.55 49.22 21.51 45.14 C20.46 43.72 19.42 42.29 18.37 40.87 C13.16 33.83 7.89 26.83 2.63 19.82 C2.3 34.67 1.97 49.52 1.63 64.82 C6.25 64.82 10.87 64.82 15.63 64.82 C17.63 67.82 17.63 67.82 17.38 70.45 C17.13 71.23 16.89 72.02 16.63 72.82 C12.23 75.03 6.25 74.01 1.35 74.01 C-0.86 74.01 -3.06 74.03 -5.27 74.05 C-6.67 74.05 -8.06 74.05 -9.46 74.05 C-10.74 74.06 -12.01 74.06 -13.33 74.07 C-16.37 73.82 -16.37 73.82 -18.37 71.82 C-18.62 69.32 -18.62 69.32 -18.37 66.82 C-17.38 65.83 -17.38 65.83 -16.37 64.82 C-14.06 64.82 -11.75 64.82 -9.37 64.82 C-9.37 47 -9.37 29.18 -9.37 10.82 C-11.68 10.82 -13.99 10.82 -16.37 10.82 C-19.31 9.64 -19.31 9.64 -21.37 7.82 C-21.87 5.26 -21.87 5.26 -21.37 2.82 C-15.3 -1.22 -7.06 -0.97 0 0 Z " fill="#000000" transform="translate(1415.3681640625,399.1767578125)"/>
<path d="M0 0 C0.68 -0 1.36 -0 2.07 -0.01 C4.32 -0.01 6.57 0.02 8.82 0.04 C10.38 0.05 11.95 0.05 13.51 0.05 C16.78 0.06 20.05 0.08 23.33 0.11 C27.53 0.15 31.74 0.17 35.94 0.18 C39.94 0.19 43.94 0.21 47.94 0.23 C49.1 0.24 49.1 0.24 50.27 0.24 C52.43 0.25 54.6 0.27 56.76 0.29 C58.61 0.31 58.61 0.31 60.49 0.32 C63.25 0.47 63.25 0.47 64.25 1.47 C64.53 4.92 64.48 8.38 64.5 11.84 C64.52 12.82 64.54 13.79 64.56 14.79 C64.57 16.19 64.57 16.19 64.58 17.62 C64.59 18.48 64.6 19.33 64.61 20.22 C64.25 22.47 64.25 22.47 62.96 24.28 C61.25 25.47 61.25 25.47 57.62 25.28 C56.51 25.01 55.4 24.75 54.25 24.47 C52.16 20.29 53.25 15.15 53.25 10.47 C40.38 10.47 27.51 10.47 14.25 10.47 C14.25 17.4 14.25 24.33 14.25 31.47 C19.86 31.47 25.47 31.47 31.25 31.47 C31.25 29.16 31.25 26.85 31.25 24.47 C33.25 22.47 33.25 22.47 36.75 22.22 C40.25 22.47 40.25 22.47 42.25 24.47 C42.7 28.1 42.57 31.76 42.56 35.41 C42.58 36.42 42.59 37.44 42.61 38.48 C42.61 39.46 42.61 40.43 42.61 41.43 C42.62 42.33 42.62 43.22 42.62 44.14 C42.25 46.47 42.25 46.47 40.95 48.3 C39.25 49.47 39.25 49.47 35.62 49.28 C34.51 49.01 33.4 48.75 32.25 48.47 C31.25 46.47 31.25 46.47 31.25 40.47 C25.64 40.47 20.03 40.47 14.25 40.47 C14.25 48.39 14.25 56.31 14.25 64.47 C28.11 64.47 41.97 64.47 56.25 64.47 C56.25 59.52 56.25 54.57 56.25 49.47 C59.25 46.47 59.25 46.47 62.31 46.16 C65.25 46.47 65.25 46.47 67.25 48.47 C67.49 50.88 67.49 50.88 67.48 53.88 C67.48 54.95 67.48 56.02 67.47 57.13 C67.46 58.25 67.45 59.38 67.44 60.53 C67.44 62.22 67.44 62.22 67.44 63.95 C67.39 72.33 67.39 72.33 66.25 73.47 C63.99 73.57 61.73 73.6 59.47 73.6 C58.76 73.6 58.05 73.6 57.32 73.6 C54.96 73.61 52.61 73.61 50.25 73.6 C48.62 73.6 46.99 73.6 45.36 73.61 C41.94 73.61 38.52 73.61 35.09 73.6 C30.7 73.59 26.31 73.6 21.92 73.6 C18.55 73.61 15.18 73.61 11.81 73.6 C10.19 73.6 8.57 73.6 6.95 73.61 C4.69 73.61 2.42 73.6 0.16 73.6 C-1.13 73.6 -2.42 73.6 -3.75 73.6 C-6.75 73.47 -6.75 73.47 -8.75 72.47 C-9.5 70.09 -9.5 70.09 -9.75 67.47 C-9.09 66.48 -8.43 65.49 -7.75 64.47 C-4.12 64.47 -0.49 64.47 3.25 64.47 C3.25 46.65 3.25 28.83 3.25 10.47 C0.94 10.47 -1.37 10.47 -3.75 10.47 C-6.63 9.72 -6.63 9.72 -8.75 8.47 C-9.75 6.59 -9.75 6.59 -9.75 4.47 C-7.38 -0.15 -4.94 -0.02 0 0 Z " fill="#000000" transform="translate(1876.75048828125,399.530029296875)"/>
<path d="M0 0 C0.67 -0 1.34 -0.01 2.03 -0.01 C4.25 -0.02 6.47 -0.02 8.69 -0.02 C10.23 -0.03 11.77 -0.03 13.31 -0.03 C16.54 -0.04 19.76 -0.04 22.99 -0.04 C27.13 -0.04 31.28 -0.05 35.42 -0.07 C38.6 -0.08 41.78 -0.08 44.96 -0.08 C46.49 -0.08 48.01 -0.09 49.54 -0.1 C51.68 -0.11 53.81 -0.1 55.94 -0.1 C57.16 -0.1 58.37 -0.1 59.62 -0.1 C62.47 0.15 62.47 0.15 64.47 2.15 C64.92 5.44 64.79 8.76 64.78 12.08 C64.8 13 64.82 13.92 64.83 14.87 C64.83 15.75 64.83 16.64 64.83 17.55 C64.84 18.36 64.84 19.17 64.84 20 C64.38 22.68 63.68 23.59 61.47 25.15 C57.85 24.96 57.85 24.96 54.47 24.15 C52.38 19.96 53.47 14.82 53.47 10.15 C40.27 10.15 27.07 10.15 13.47 10.15 C13.47 17.08 13.47 24.01 13.47 31.15 C19.41 31.15 25.35 31.15 31.47 31.15 C31.47 28.84 31.47 26.53 31.47 24.15 C33.47 22.15 33.47 22.15 36.97 21.83 C38.7 21.99 38.7 21.99 40.47 22.15 C43.39 26.52 42.8 30.5 42.78 35.65 C42.8 36.61 42.82 37.57 42.83 38.56 C42.83 39.49 42.83 40.41 42.83 41.36 C42.84 42.21 42.84 43.05 42.84 43.92 C42.47 46.15 42.47 46.15 41.17 47.96 C39.47 49.15 39.47 49.15 35.85 48.9 C32.47 48.15 32.47 48.15 31.47 47.15 C31.47 44.84 31.47 42.53 31.47 40.15 C25.53 40.15 19.59 40.15 13.47 40.15 C13.47 48.07 13.47 55.99 13.47 64.15 C27.66 64.15 41.85 64.15 56.47 64.15 C56.47 59.2 56.47 54.25 56.47 49.15 C57.13 48.16 57.79 47.17 58.47 46.15 C61.97 45.83 61.97 45.83 65.47 46.15 C67.47 48.15 67.47 48.15 67.71 50.56 C67.71 51.55 67.71 52.54 67.7 53.56 C67.7 54.63 67.7 55.7 67.7 56.8 C67.68 57.93 67.67 59.05 67.66 60.21 C67.66 61.9 67.66 61.9 67.66 63.62 C67.61 72.01 67.61 72.01 66.47 73.15 C64.22 73.26 61.96 73.29 59.7 73.31 C59 73.31 58.29 73.32 57.56 73.32 C55.21 73.34 52.86 73.34 50.51 73.35 C48.88 73.35 47.25 73.36 45.63 73.37 C42.21 73.38 38.79 73.38 35.37 73.39 C30.99 73.39 26.6 73.42 22.22 73.44 C18.85 73.46 15.49 73.47 12.13 73.47 C10.51 73.47 8.89 73.48 7.28 73.49 C5.02 73.51 2.76 73.51 0.5 73.5 C-0.79 73.51 -2.08 73.51 -3.4 73.51 C-6.53 73.15 -6.53 73.15 -8.48 71.79 C-9.53 70.15 -9.53 70.15 -9.28 67.52 C-8.53 65.15 -8.53 65.15 -7.53 64.15 C-3.9 64.15 -0.27 64.15 3.47 64.15 C3.47 46.33 3.47 28.51 3.47 10.15 C0.83 10.15 -1.81 10.15 -4.53 10.15 C-7.53 8.65 -7.53 8.65 -9.53 7.15 C-9.15 4.21 -9.15 4.21 -8.53 1.15 C-5.66 -0.29 -3.2 0.01 0 0 Z " fill="#000000" transform="translate(1688.529296875,399.854736328125)"/>
<path d="M0 0 C0.93 -0.01 1.85 -0.03 2.8 -0.04 C3.8 -0.04 4.8 -0.04 5.83 -0.05 C7.39 -0.06 7.39 -0.06 8.97 -0.07 C11.17 -0.08 13.36 -0.08 15.56 -0.08 C18.89 -0.08 22.22 -0.12 25.54 -0.16 C27.68 -0.16 29.82 -0.17 31.96 -0.17 C33.43 -0.19 33.43 -0.19 34.94 -0.21 C44.99 -0.15 53.54 2.49 60.83 9.58 C65.13 14.19 65.99 17.63 65.78 23.86 C65.05 28.92 62.16 31.61 58.55 34.98 C55.6 37.16 52.72 38.7 49.43 40.29 C50.03 40.79 50.64 41.29 51.26 41.8 C56.46 46.26 60.89 50.81 65.05 56.23 C65.49 56.8 65.93 57.36 66.38 57.95 C69.43 62.02 69.43 62.02 69.43 64.29 C70.71 64.25 71.99 64.21 73.3 64.17 C75.48 64.1 75.48 64.1 77.43 64.29 C79.43 66.29 79.43 66.29 79.68 68.79 C79.43 71.29 79.43 71.29 77.43 73.29 C72.52 74.46 68.32 74.55 63.43 73.29 C59.26 70.07 56.48 65.42 53.62 61.06 C48.83 53.92 42.73 47.1 34.43 44.29 C28.1 43.35 21.82 43.38 15.43 43.29 C15.43 50.22 15.43 57.15 15.43 64.29 C19.01 64.19 22.59 64.1 26.17 64 C27.25 64.09 28.32 64.19 29.43 64.29 C31.43 67.29 31.43 67.29 31.18 69.92 C30.93 70.7 30.68 71.48 30.43 72.29 C27.38 73.81 24.21 73.45 20.87 73.46 C20.12 73.46 19.37 73.47 18.6 73.47 C17.02 73.47 15.44 73.48 13.86 73.48 C11.44 73.48 9.01 73.5 6.59 73.52 C5.06 73.52 3.52 73.52 1.99 73.52 C1.26 73.53 0.54 73.54 -0.21 73.54 C-5.34 73.52 -5.34 73.52 -7.57 71.29 C-7.82 68.79 -7.82 68.79 -7.57 66.29 C-6.58 65.3 -6.58 65.3 -5.57 64.29 C-2.27 64.29 1.03 64.29 4.43 64.29 C4.43 46.47 4.43 28.65 4.43 10.29 C2.12 10.29 -0.19 10.29 -2.57 10.29 C-5.51 9.1 -5.51 9.1 -7.57 7.29 C-8.07 4.73 -8.07 4.73 -7.57 2.29 C-4.41 0.18 -3.62 0.03 0 0 Z M15.43 10.29 C15.43 17.88 15.43 25.47 15.43 33.29 C20.32 33.38 20.32 33.38 25.3 33.48 C26.31 33.51 27.31 33.53 28.35 33.56 C37.37 33.64 45.23 31.86 52.43 26.29 C54.66 24.42 54.66 24.42 54.99 21.54 C54.26 17.33 52.59 16.17 49.35 13.59 C45.05 10.68 42.17 10.05 36.91 10.1 C35.66 10.1 34.41 10.11 33.12 10.11 C31.82 10.13 30.52 10.15 29.18 10.17 C27.2 10.18 27.2 10.18 25.19 10.19 C21.93 10.22 18.68 10.25 15.43 10.29 Z " fill="#000000" transform="translate(557.572265625,399.70947265625)"/>
<path d="M0 0 C1.56 0 3.11 0.01 4.67 0.03 C5.89 0.04 5.89 0.04 7.15 0.04 C9.76 0.05 12.38 0.08 15 0.1 C16.77 0.11 18.55 0.12 20.32 0.13 C24.67 0.15 29.02 0.19 33.38 0.23 C35.55 4.68 37.73 9.13 39.9 13.59 C41.06 15.98 42.23 18.36 43.4 20.74 C47.12 28.34 50.75 35.95 54.08 43.72 C54.65 45.01 55.22 46.31 55.78 47.6 C56.83 50.01 57.84 52.43 58.82 54.87 C61.13 60.64 61.13 60.64 65.75 64.4 C68.01 64.92 70.06 65.2 72.38 65.23 C72.5 68.1 72.5 68.1 72.38 71.23 C69.51 74.1 67.48 73.49 63.47 73.49 C62.45 73.5 62.45 73.5 61.41 73.5 C59.97 73.5 58.53 73.5 57.09 73.49 C54.88 73.48 52.68 73.49 50.47 73.5 C49.08 73.5 47.68 73.5 46.28 73.49 C45.01 73.49 43.73 73.49 42.42 73.49 C39.38 73.23 39.38 73.23 37.38 71.23 C37.19 68.16 37.19 68.16 37.38 65.23 C39.19 63.42 41.99 63.85 44.44 63.66 C45.54 63.58 46.65 63.5 47.79 63.41 C48.64 63.35 49.5 63.29 50.38 63.23 C50.02 62.46 49.65 61.69 49.28 60.89 C48.59 59.39 48.59 59.39 47.88 57.85 C47.18 56.36 47.18 56.36 46.47 54.83 C45.38 52.23 45.38 52.23 45.38 50.23 C32.84 50.23 20.3 50.23 7.38 50.23 C6.39 53.2 5.4 56.17 4.38 59.23 C3.72 60.55 3.06 61.87 2.38 63.23 C3.22 63.28 4.06 63.33 4.93 63.38 C6.03 63.45 7.12 63.53 8.25 63.6 C9.34 63.67 10.43 63.74 11.56 63.81 C14.38 64.23 14.38 64.23 16.38 66.23 C16.13 69.29 16.13 69.29 15.38 72.23 C10.97 74.43 4.99 73.41 0.09 73.41 C-2.11 73.41 -4.32 73.43 -6.53 73.45 C-7.92 73.45 -9.32 73.46 -10.72 73.46 C-11.99 73.46 -13.27 73.47 -14.58 73.47 C-17.62 73.23 -17.62 73.23 -19.62 71.23 C-19.87 68.73 -19.87 68.73 -19.62 66.23 C-17.62 64.23 -17.62 64.23 -15.68 64.03 C-13.66 64.1 -11.64 64.16 -9.62 64.23 C-9.53 63.55 -9.43 62.88 -9.33 62.19 C-8.45 58.49 -6.91 55.23 -5.27 51.83 C-4.93 51.12 -4.6 50.4 -4.25 49.67 C-3.17 47.4 -2.09 45.12 -1 42.85 C-0.29 41.36 0.42 39.88 1.12 38.39 C2.17 36.18 3.22 33.97 4.27 31.76 C7.68 24.6 11.04 17.42 14.38 10.23 C13.27 10.25 12.17 10.27 11.04 10.29 C9.77 10.31 8.5 10.33 7.19 10.35 C6.08 10.38 6.08 10.38 4.95 10.41 C0.96 10.44 -2.04 10 -5.62 8.23 C-5.75 5.35 -5.75 5.35 -5.62 2.23 C-3.62 0.23 -3.62 0.23 0 0 Z M25.38 11.23 C23.52 15.34 21.67 19.45 19.82 23.56 C19.19 24.96 18.56 26.36 17.93 27.76 C17.03 29.77 16.12 31.78 15.22 33.79 C14.94 34.41 14.65 35.04 14.36 35.69 C12.97 38.36 12.97 38.36 12.38 41.23 C21.62 41.23 30.86 41.23 40.38 41.23 C38.3 35 35.7 29.32 32.88 23.41 C32.13 21.82 32.13 21.82 31.36 20.2 C30.88 19.19 30.4 18.18 29.91 17.15 C29.47 16.22 29.03 15.3 28.58 14.36 C27.56 12.09 27.56 12.09 25.38 11.23 Z " fill="#000000" transform="translate(658.62353515625,399.77294921875)"/>
<path d="M0 0 C2.42 0.74 2.42 0.74 5.14 -1.57 C8.76 -1.32 8.76 -1.32 12.14 -0.57 C13.71 2.57 13.32 5.92 13.32 9.36 C13.34 10.09 13.35 10.82 13.36 11.57 C13.37 15.4 13.31 17.17 11.14 20.43 C7.64 20.74 7.64 20.74 4.14 20.43 C2.14 18.43 2.14 18.43 1.57 15.55 C-0.32 11.43 -2.4 10.83 -6.48 9.19 C-16.14 6.1 -26.18 6.36 -35.55 10.22 C-38.65 11.84 -40.68 13.71 -42.86 16.43 C-43.59 17.27 -44.31 18.12 -45.05 18.99 C-49.09 24.41 -49.23 28.57 -49.24 35.18 C-49.26 36.04 -49.29 36.91 -49.31 37.81 C-49.34 44.83 -47.85 50.17 -43.04 55.41 C-32.61 62.83 -20.97 64.61 -8.36 62.55 C-6.53 62.19 -4.69 61.82 -2.86 61.43 C-0.39 60.93 -0.39 60.93 2.14 60.43 C2.14 55.81 2.14 51.19 2.14 46.43 C0.58 46.45 -0.97 46.47 -2.57 46.5 C-4.61 46.51 -6.64 46.53 -8.68 46.55 C-9.7 46.57 -10.72 46.58 -11.78 46.6 C-12.76 46.61 -13.75 46.61 -14.76 46.62 C-15.66 46.63 -16.57 46.64 -17.5 46.65 C-19.86 46.43 -19.86 46.43 -22.86 44.43 C-23.24 41.43 -23.24 41.43 -22.86 38.43 C-19.11 35.92 -16.15 36.14 -11.8 36.16 C-10.62 36.16 -10.62 36.16 -9.41 36.15 C-7.75 36.15 -6.09 36.16 -4.42 36.17 C-1.87 36.18 0.67 36.17 3.22 36.15 C4.84 36.15 6.46 36.16 8.07 36.16 C8.84 36.16 9.6 36.15 10.39 36.15 C14.17 36.18 15.91 36.27 19.14 38.43 C19.59 41.36 19.59 42.81 17.82 45.24 C16.14 46.43 16.14 46.43 13.14 46.43 C13.14 53.03 13.14 59.63 13.14 66.43 C-2.44 73.35 -19.9 76.97 -36.62 71.33 C-37.36 71.03 -38.1 70.73 -38.86 70.43 C-39.57 70.15 -40.28 69.87 -41.02 69.58 C-49.86 65.64 -56.05 59.29 -59.86 50.43 C-61.29 45.61 -61.13 40.78 -61.18 35.8 C-61.2 34.85 -61.23 33.91 -61.26 32.93 C-61.36 22.19 -57.89 14.41 -50.48 6.69 C-36.5 -5.41 -16.81 -5.84 0 0 Z " fill="#000000" transform="translate(1554.86328125,401.57421875)"/>
<path d="M0 0 C0.85 -0.01 1.7 -0.02 2.57 -0.03 C3.95 -0.03 3.95 -0.03 5.36 -0.03 C6.31 -0.03 7.26 -0.03 8.24 -0.04 C10.26 -0.04 12.28 -0.05 14.29 -0.04 C17.35 -0.04 20.41 -0.06 23.47 -0.09 C25.43 -0.09 27.4 -0.09 29.36 -0.09 C30.27 -0.1 31.17 -0.11 32.1 -0.12 C43.65 -0.03 53.08 3.67 61.58 11.46 C68.71 19.21 70.35 25.88 70.46 36.27 C70.47 37.2 70.48 38.13 70.5 39.08 C70.37 47.95 67.87 56.11 61.72 62.68 C52.5 70.73 42.25 73.76 30.24 73.64 C29.26 73.64 28.28 73.64 27.27 73.64 C25.21 73.64 23.15 73.63 21.1 73.61 C17.94 73.59 14.78 73.59 11.62 73.6 C9.62 73.59 7.62 73.58 5.62 73.58 C4.2 73.58 4.2 73.58 2.75 73.58 C1.88 73.57 1.01 73.56 0.11 73.55 C-0.66 73.54 -1.43 73.54 -2.22 73.54 C-4.11 73.27 -4.11 73.27 -6.11 71.27 C-6.29 68.21 -6.29 68.21 -6.11 65.27 C-5.61 64.78 -5.61 64.78 -5.11 64.27 C-2.47 64.27 0.17 64.27 2.89 64.27 C2.89 46.45 2.89 28.63 2.89 10.27 C0.25 9.94 -2.39 9.61 -5.11 9.27 C-6.11 8.27 -6.11 8.27 -6.29 5.34 C-6.01 0.63 -4.31 0.03 0 0 Z M13.89 10.27 C13.89 28.09 13.89 45.91 13.89 64.27 C35.86 65.25 35.86 65.25 53.89 55.27 C59.07 48.87 60.4 42.19 60.2 34.11 C59.33 26.07 55.86 20.57 50.19 14.97 C38.8 6.57 29.32 10.27 13.89 10.27 Z " fill="#000000" transform="translate(938.107421875,399.725341796875)"/>
<path d="M0 0 C0.66 -0.66 1.32 -1.32 2 -2 C5 -2.25 5 -2.25 8 -2 C10.82 0.82 10.29 2.93 10.32 6.78 C10.32 8.1 10.32 8.1 10.31 9.44 C10.33 10.31 10.34 11.18 10.36 12.08 C10.36 12.92 10.36 13.76 10.36 14.62 C10.37 15.39 10.37 16.16 10.37 16.95 C9.9 19.55 9.1 20.44 7 22 C4.06 22.19 4.06 22.19 1 21 C-0.24 19.07 -1.1 17.1 -2.01 15 C-3.93 11.12 -6.85 9.45 -10.77 7.92 C-18.66 5.67 -26.95 6.02 -34.25 9.87 C-36.61 11.39 -37.94 12.36 -39 15 C-39.08 18.58 -39.08 18.58 -38 22 C-35.04 24.81 -32.25 25.65 -28.31 26.5 C-27.17 26.75 -26.02 27 -24.84 27.25 C-21.41 27.92 -17.97 28.51 -14.52 29.07 C4.64 32.23 4.64 32.23 10.94 40.41 C14.24 45.36 13.49 51.27 13 57 C11.44 60.44 11.44 60.44 9 63 C8.55 63.51 8.1 64.02 7.63 64.54 C0.31 71.93 -10.02 73.38 -20 73.5 C-28.51 73.44 -36.32 71.84 -44 68 C-44 68.66 -44 69.32 -44 70 C-46.76 71.38 -48.95 71.19 -52 71 C-54.88 68.12 -54.29 65.79 -54.32 61.86 C-54.32 60.94 -54.32 60.01 -54.31 59.06 C-54.33 58.14 -54.34 57.22 -54.36 56.28 C-54.36 55.39 -54.36 54.51 -54.36 53.6 C-54.37 52.79 -54.37 51.98 -54.37 51.14 C-53.91 48.48 -53.15 47.6 -51 46 C-48.12 45.69 -48.12 45.69 -45 47 C-43.75 49.16 -43.75 49.16 -42.56 51.81 C-40.66 56.01 -39.3 58.39 -35.07 60.32 C-24.63 63.73 -13.9 64.21 -3.89 59.23 C-0.87 57.26 0.56 55.27 2 52 C2.49 48.88 2.49 48.88 1 46 C-5.02 40.46 -12.59 39.62 -20.38 38.44 C-42.41 35 -42.41 35 -48.94 26.68 C-51.63 22.41 -51.44 17.86 -51 13 C-48.96 6.63 -43.81 2.02 -37.98 -1.07 C-25.88 -5.97 -12.01 -4.4 0 0 Z " fill="#000000" transform="translate(1270,402)"/>
<path d="M0 0 C0 -0.66 0 -1.32 0 -2 C3.31 -2.69 3.31 -2.69 7 -3 C9.09 -1.5 9.88 -0.59 10.39 1.95 C10.39 3.02 10.39 3.02 10.4 4.12 C10.4 4.91 10.41 5.7 10.41 6.52 C10.4 7.34 10.39 8.16 10.38 9 C10.39 9.82 10.4 10.64 10.41 11.48 C10.41 12.27 10.4 13.06 10.4 13.88 C10.4 14.59 10.39 15.31 10.39 16.05 C9.89 18.56 8.99 19.45 7 21 C4.26 21.41 2.72 21.47 0.38 19.94 C-1 18 -1 18 -2.44 14.5 C-4.48 9.92 -6.16 8.71 -10.74 6.95 C-18.88 4.58 -27.47 5.16 -35 9 C-37.59 10.59 -37.59 10.59 -39 13 C-39.75 16.5 -39.75 16.5 -39 20 C-33.21 27.44 -19.3 27.56 -10.5 28.82 C-2.52 30.03 4.2 32.2 10 38 C13.74 43.24 13.79 48.79 13 55 C11.13 61.18 6.32 64.72 1 68 C-8.71 73.14 -22.33 74.04 -32.93 71.04 C-35.1 70.3 -37.26 69.52 -39.4 68.68 C-41.96 67.73 -41.96 67.73 -44.16 68.87 C-45.07 69.43 -45.07 69.43 -46 70 C-49.12 70.25 -49.12 70.25 -52 70 C-54.94 67.06 -54.29 64.48 -54.32 60.46 C-54.32 59.48 -54.32 58.51 -54.31 57.5 C-54.34 56.04 -54.34 56.04 -54.36 54.54 C-54.36 53.61 -54.36 52.68 -54.36 51.72 C-54.37 50.86 -54.37 50.01 -54.37 49.12 C-54.25 48.42 -54.13 47.72 -54 47 C-51 45 -51 45 -48.12 44.75 C-45 46 -45 46 -43.85 48.12 C-43.31 49.42 -43.31 49.42 -42.75 50.75 C-40.41 55.94 -38.03 57.98 -32.81 60.16 C-23.9 62.82 -14.08 63.04 -5.64 58.82 C-1.66 56.56 -1.66 56.56 1 53 C1.47 48.12 1.47 48.12 -0.44 43.75 C-7.76 38.75 -17.18 37.96 -25.74 36.63 C-34.9 35.09 -43.08 33.19 -48.94 25.59 C-51.94 21.09 -51.52 16.24 -51 11 C-48.03 4.69 -42.47 -0.23 -36 -2.81 C-24.54 -6.56 -10.53 -6.26 0 0 Z " fill="#000000" transform="translate(1082,403)"/>
<path d="M0 0 C1.35 -0.02 1.35 -0.02 2.73 -0.04 C3.71 -0.04 4.68 -0.04 5.69 -0.05 C7.2 -0.06 7.2 -0.06 8.75 -0.07 C10.89 -0.08 13.04 -0.08 15.18 -0.08 C18.43 -0.08 21.67 -0.12 24.92 -0.16 C50.99 -0.3 50.99 -0.3 60.98 9.51 C65.17 14.3 66.11 18.55 65.87 24.77 C65.18 29.93 63.51 33.61 59.51 37.01 C51.7 42.44 44.16 45.44 34.58 45.39 C33.47 45.38 32.35 45.38 31.21 45.38 C30.06 45.37 28.91 45.36 27.72 45.35 C26.55 45.35 25.38 45.34 24.18 45.34 C21.3 45.33 18.42 45.31 15.54 45.29 C15.54 51.56 15.54 57.83 15.54 64.29 C17.17 64.27 18.81 64.24 20.5 64.22 C22.63 64.2 24.77 64.18 26.91 64.17 C27.99 64.15 29.07 64.13 30.18 64.11 C31.22 64.11 32.25 64.1 33.31 64.1 C34.74 64.08 34.74 64.08 36.2 64.06 C38.54 64.29 38.54 64.29 40.54 66.29 C40.79 68.79 40.79 68.79 40.54 71.29 C38.13 73.7 37.58 73.54 34.3 73.55 C33.43 73.56 32.55 73.56 31.65 73.57 C30.23 73.56 30.23 73.56 28.79 73.56 C27.82 73.56 26.85 73.56 25.85 73.56 C23.8 73.56 21.75 73.56 19.7 73.55 C16.55 73.54 13.4 73.55 10.25 73.56 C8.26 73.56 6.27 73.56 4.29 73.56 C3.34 73.56 2.39 73.56 1.42 73.57 C0.11 73.56 0.11 73.56 -1.23 73.55 C-2 73.55 -2.77 73.55 -3.57 73.54 C-5.46 73.29 -5.46 73.29 -7.46 71.29 C-7.71 68.79 -7.71 68.79 -7.46 66.29 C-6.47 65.3 -6.47 65.3 -5.46 64.29 C-2.16 64.29 1.14 64.29 4.54 64.29 C4.54 46.47 4.54 28.65 4.54 10.29 C2.23 10.29 -0.08 10.29 -2.46 10.29 C-5.4 9.1 -5.4 9.1 -7.46 7.29 C-7.96 4.73 -7.96 4.73 -7.46 2.29 C-4.33 0.2 -3.57 0.03 0 0 Z M15.54 10.29 C15.54 18.54 15.54 26.79 15.54 35.29 C19.47 35.37 23.41 35.46 27.47 35.54 C28.7 35.58 29.92 35.61 31.18 35.65 C38.76 35.73 45.2 34.9 51.19 29.91 C53.48 27.48 54.49 25.51 55.1 22.23 C54.37 18.43 53.34 16.96 50.54 14.29 C43.32 9.6 36.97 9.81 28.54 10.04 C26.66 10.07 26.66 10.07 24.74 10.1 C21.67 10.14 18.6 10.21 15.54 10.29 Z " fill="#000000" transform="translate(752.464599609375,399.70947265625)"/>
<path d="M0 0 C0.53 -0.77 0.53 -0.77 1.06 -1.56 C3 -3 3 -3 6.62 -2.81 C7.74 -2.54 8.85 -2.28 10 -2 C11.76 1.53 11.23 5.55 11.25 9.44 C11.27 10.31 11.29 11.18 11.31 12.08 C11.32 13.34 11.32 13.34 11.33 14.62 C11.34 15.39 11.35 16.16 11.36 16.95 C10.9 19.57 10.13 20.44 8 22 C4.56 22.25 4.56 22.25 1 21 C0.01 19.09 0.01 19.09 -0.81 16.75 C-2.37 12.48 -3.93 11.02 -8 9 C-16.71 5.18 -26.4 4.29 -35.44 7.69 C-42.32 10.9 -46.87 14.93 -50.08 21.85 C-52.28 29.38 -52.67 39.36 -49.5 46.62 C-44.98 53.69 -37.95 58.57 -30 61 C-20.11 63.15 -10.55 61.39 -2 56 C-0.62 54.91 0.76 53.8 2.12 52.69 C5.03 50.41 5.58 49.99 9.44 50.06 C12 51 12 51 13 52 C13.12 54.91 13.1 56.37 12 59 C3.88 67.51 -7.03 71.88 -18.61 72.34 C-30.58 72.56 -41.72 69.95 -51 62 C-58.81 54.35 -63.04 47.41 -63.29 36.45 C-63.39 23.7 -61.81 14.73 -52.62 5.23 C-37.03 -8.03 -18.15 -6.34 0 0 Z " fill="#000000" transform="translate(1839,403)"/>
<path d="M0 0 C0.85 -0.01 1.71 -0.01 2.59 -0.02 C3.51 -0.02 4.44 -0.02 5.39 -0.02 C6.34 -0.03 7.28 -0.03 8.26 -0.03 C10.26 -0.04 12.27 -0.04 14.27 -0.04 C17.34 -0.04 20.42 -0.06 23.49 -0.08 C25.44 -0.08 27.38 -0.08 29.33 -0.09 C30.71 -0.1 30.71 -0.1 32.13 -0.11 C32.98 -0.1 33.83 -0.1 34.71 -0.1 C35.47 -0.1 36.22 -0.1 37 -0.1 C38.86 0.15 38.86 0.15 40.86 2.15 C40.98 5.27 40.98 5.27 40.86 8.15 C35.86 10.15 35.86 10.15 22.86 10.15 C22.86 27.97 22.86 45.79 22.86 64.15 C34.74 64.15 46.62 64.15 58.86 64.15 C58.78 57.32 58.78 57.32 58.68 50.5 C58.67 49.66 58.67 48.81 58.66 47.93 C58.65 47.07 58.64 46.2 58.63 45.3 C58.86 43.15 58.86 43.15 60.86 41.15 C64.36 40.83 64.36 40.83 67.86 41.15 C70.24 44.72 70.1 46.29 70.09 50.53 C70.09 51.78 70.08 53.03 70.08 54.31 C70.07 55.62 70.06 56.92 70.04 58.27 C70.04 60.24 70.04 60.24 70.04 62.25 C70 72.01 70 72.01 68.86 73.15 C66.57 73.25 64.27 73.28 61.98 73.29 C61.26 73.29 60.55 73.3 59.8 73.3 C57.42 73.31 55.03 73.31 52.64 73.31 C50.99 73.32 49.34 73.32 47.68 73.32 C44.21 73.33 40.75 73.33 37.28 73.33 C32.82 73.33 28.37 73.34 23.92 73.36 C20.5 73.37 17.08 73.37 13.67 73.37 C12.03 73.38 10.39 73.38 8.74 73.39 C6.45 73.4 4.16 73.39 1.86 73.39 C0.55 73.39 -0.75 73.39 -2.1 73.39 C-5.14 73.15 -5.14 73.15 -7.14 71.15 C-7.39 68.65 -7.39 68.65 -7.14 66.15 C-6.15 65.16 -6.15 65.16 -5.14 64.15 C0.47 64.15 6.08 64.15 11.86 64.15 C11.86 46.33 11.86 28.51 11.86 10.15 C7.24 10.15 2.62 10.15 -2.14 10.15 C-3.79 9.16 -5.44 8.17 -7.14 7.15 C-6.77 4.21 -6.77 4.21 -6.14 1.15 C-3.85 -0 -2.55 0.01 0 0 Z " fill="#000000" transform="translate(1595.142578125,399.854736328125)"/>
<path d="M0 0 C0.85 -0.01 1.7 -0.02 2.58 -0.03 C3.96 -0.03 3.96 -0.03 5.37 -0.03 C6.31 -0.03 7.26 -0.03 8.23 -0.04 C10.23 -0.04 12.23 -0.05 14.23 -0.04 C17.3 -0.04 20.36 -0.06 23.42 -0.09 C25.36 -0.09 27.3 -0.09 29.24 -0.09 C30.62 -0.1 30.62 -0.1 32.03 -0.12 C32.88 -0.11 33.74 -0.1 34.62 -0.1 C35.37 -0.1 36.12 -0.1 36.89 -0.1 C39.43 0.38 40.34 1.23 41.87 3.27 C41.81 5.84 41.81 5.84 40.87 8.27 C36.87 10.27 36.87 10.27 22.87 10.27 C22.87 28.09 22.87 45.91 22.87 64.27 C34.75 64.27 46.63 64.27 58.87 64.27 C58.83 58.16 58.83 58.16 58.78 52.04 C58.78 51.28 58.78 50.51 58.78 49.72 C58.77 48.94 58.77 48.16 58.76 47.36 C58.87 45.27 58.87 45.27 59.87 42.27 C62.64 40.89 64.82 41.08 67.87 41.27 C69.87 43.27 69.87 43.27 70.12 46.15 C70.11 47.35 70.11 48.54 70.1 49.78 C70.1 51.08 70.1 52.37 70.1 53.71 C70.09 54.39 70.09 55.06 70.08 55.76 C70.06 57.83 70.06 59.9 70.06 61.98 C70.01 72.13 70.01 72.13 68.87 73.27 C66.61 73.38 64.35 73.41 62.09 73.42 C61.38 73.42 60.67 73.43 59.94 73.43 C57.59 73.44 55.23 73.44 52.88 73.44 C51.25 73.45 49.62 73.45 47.99 73.45 C44.56 73.46 41.14 73.46 37.72 73.46 C33.33 73.46 28.93 73.47 24.54 73.49 C21.17 73.5 17.8 73.5 14.43 73.5 C12.81 73.5 11.19 73.51 9.57 73.52 C7.31 73.53 5.05 73.52 2.79 73.52 C1.5 73.52 0.21 73.52 -1.12 73.52 C-4.13 73.27 -4.13 73.27 -6.13 71.27 C-6.31 68.21 -6.31 68.21 -6.13 65.27 C-5.63 64.78 -5.63 64.78 -5.13 64.27 C0.48 64.27 6.09 64.27 11.87 64.27 C11.87 46.45 11.87 28.63 11.87 10.27 C7.58 10.27 3.29 10.27 -1.13 10.27 C-3.6 9.28 -3.6 9.28 -6.13 8.27 C-6.25 5.4 -6.25 5.4 -6.13 2.27 C-3.74 -0.11 -3.24 0.02 0 0 Z " fill="#000000" transform="translate(1971.126708984375,399.725341796875)"/>
<path d="M0 0 C1.28 -0.01 1.28 -0.01 2.58 -0.02 C3.5 -0.02 4.42 -0.01 5.37 -0.01 C6.31 -0.01 7.26 -0.01 8.23 -0.01 C10.23 -0.01 12.23 -0.01 14.23 -0 C17.29 0.01 20.36 -0 23.42 -0.01 C25.36 -0.01 27.3 -0.01 29.24 -0.01 C30.16 -0.01 31.08 -0.01 32.03 -0.02 C32.88 -0.01 33.74 -0.01 34.62 0 C35.37 0 36.12 0 36.89 0 C38.87 0.26 38.87 0.26 41.87 2.26 C42.37 4.7 42.37 4.7 41.87 7.26 C36.87 10.26 36.87 10.26 22.87 10.26 C22.87 28.08 22.87 45.9 22.87 64.26 C35.08 64.26 47.29 64.26 59.87 64.26 C59.79 57.44 59.79 57.44 59.69 50.62 C59.69 49.77 59.68 48.92 59.68 48.05 C59.67 47.18 59.66 46.31 59.65 45.41 C59.87 43.26 59.87 43.26 61.87 41.26 C64.87 41.01 64.87 41.01 67.87 41.26 C69.87 43.26 69.87 43.26 70.12 46.13 C70.11 47.33 70.11 48.53 70.1 49.76 C70.1 51.06 70.1 52.36 70.1 53.69 C70.09 54.37 70.09 55.05 70.08 55.74 C70.06 57.82 70.06 59.89 70.06 61.96 C70.01 72.12 70.01 72.12 68.87 73.26 C66.61 73.36 64.35 73.4 62.09 73.4 C61.38 73.41 60.67 73.41 59.94 73.41 C57.59 73.42 55.23 73.43 52.88 73.43 C51.25 73.43 49.62 73.43 47.99 73.44 C44.56 73.44 41.14 73.44 37.72 73.44 C33.33 73.44 28.93 73.46 24.54 73.47 C21.17 73.49 17.8 73.49 14.43 73.49 C12.81 73.49 11.19 73.49 9.57 73.5 C7.31 73.51 5.05 73.51 2.79 73.5 C1.5 73.5 0.21 73.5 -1.12 73.51 C-4.13 73.26 -4.13 73.26 -6.13 71.26 C-6.25 68.13 -6.25 68.13 -6.13 65.26 C-0.75 62.57 5.86 64.26 11.87 64.26 C11.87 46.44 11.87 28.62 11.87 10.26 C7.58 10.26 3.29 10.26 -1.13 10.26 C-3.6 9.27 -3.6 9.27 -6.13 8.26 C-6.25 5.38 -6.25 5.38 -6.13 2.26 C-3.74 -0.13 -3.24 0.01 0 0 Z " fill="#000000" transform="translate(2065.126708984375,399.7412109375)"/>
<path d="M0 0 C1.67 -0.01 1.67 -0.01 3.37 -0.03 C5.18 -0.03 5.18 -0.03 7.02 -0.03 C8.87 -0.03 8.87 -0.03 10.76 -0.04 C14.04 -0.05 17.32 -0.04 20.6 -0.04 C22.61 -0.04 24.63 -0.05 26.64 -0.06 C30.49 -0.09 34.35 -0.09 38.21 -0.09 C40.01 -0.1 40.01 -0.1 41.85 -0.12 C43.52 -0.11 43.52 -0.11 45.23 -0.1 C46.7 -0.1 46.7 -0.1 48.21 -0.1 C50.68 0.27 50.68 0.27 52.52 1.64 C53.68 3.27 53.68 3.27 53.62 5.84 C52.68 8.27 52.68 8.27 48.68 10.27 C42.08 10.27 35.48 10.27 28.68 10.27 C28.68 28.09 28.68 45.91 28.68 64.27 C36.27 64.27 43.86 64.27 51.68 64.27 C53.68 66.27 53.68 66.27 53.93 68.77 C53.68 71.27 53.68 71.27 51.68 73.27 C49.29 73.53 49.29 73.53 46.25 73.53 C45.12 73.54 43.98 73.55 42.81 73.55 C40.97 73.55 40.97 73.55 39.09 73.54 C37.83 73.54 36.57 73.54 35.28 73.55 C32.61 73.55 29.95 73.54 27.29 73.54 C23.87 73.52 20.45 73.53 17.04 73.54 C13.78 73.55 10.53 73.55 7.27 73.54 C6.04 73.54 4.81 73.55 3.55 73.55 C1.84 73.54 1.84 73.54 0.11 73.53 C-0.89 73.53 -1.9 73.53 -2.93 73.53 C-5.32 73.27 -5.32 73.27 -7.32 71.27 C-7.45 68.15 -7.45 68.15 -7.32 65.27 C0.14 61.54 9.34 64.27 17.68 64.27 C17.68 46.45 17.68 28.63 17.68 10.27 C11.08 10.27 4.48 10.27 -2.32 10.27 C-4.8 9.28 -4.8 9.28 -7.32 8.27 C-7.45 5.4 -7.45 5.4 -7.32 2.27 C-4.72 -0.33 -3.63 0.02 0 0 Z " fill="#000000" transform="translate(850.320068359375,399.725341796875)"/>
<path d="M0 0 C1.11 -0.01 2.23 -0.01 3.38 -0.02 C4.59 -0.02 5.79 -0.02 7.04 -0.02 C8.27 -0.03 9.51 -0.03 10.78 -0.03 C13.4 -0.04 16.01 -0.04 18.63 -0.04 C21.32 -0.04 24.01 -0.05 26.7 -0.06 C30.56 -0.08 34.43 -0.08 38.29 -0.09 C39.5 -0.09 40.71 -0.1 41.95 -0.11 C43.62 -0.1 43.62 -0.1 45.33 -0.1 C46.31 -0.1 47.3 -0.1 48.31 -0.1 C50.66 0.15 50.66 0.15 52.66 2.15 C52.79 5.27 52.79 5.27 52.66 8.15 C47.66 10.15 47.66 10.15 27.66 10.15 C27.66 27.97 27.66 45.79 27.66 64.15 C35.58 64.15 43.5 64.15 51.66 64.15 C52.66 65.15 52.66 65.15 52.85 68.08 C52.66 71.15 52.66 71.15 50.66 73.15 C48.32 73.41 48.32 73.41 45.34 73.42 C43.68 73.43 43.68 73.43 41.98 73.45 C40.17 73.45 40.17 73.45 38.32 73.45 C37.09 73.45 35.86 73.45 34.59 73.46 C31.31 73.47 28.02 73.46 24.74 73.46 C22.73 73.46 20.72 73.47 18.71 73.48 C14.85 73.51 10.99 73.51 7.14 73.51 C5.93 73.52 4.73 73.53 3.49 73.54 C1.82 73.53 1.82 73.53 0.11 73.52 C-1.36 73.52 -1.36 73.52 -2.86 73.52 C-5.34 73.15 -5.34 73.15 -7.19 71.79 C-8.34 70.15 -8.34 70.15 -8.09 67.52 C-7.34 65.15 -7.34 65.15 -6.34 64.15 C1.25 64.15 8.84 64.15 16.66 64.15 C16.66 46.33 16.66 28.51 16.66 10.15 C10.06 10.15 3.46 10.15 -3.34 10.15 C-4.99 9.16 -6.64 8.17 -8.34 7.15 C-7.96 4.21 -7.96 4.21 -7.34 1.15 C-4.76 -0.14 -2.89 0.01 0 0 Z " fill="#000000" transform="translate(1321.3359375,399.854736328125)"/>
<path d="M0 0 C212.85 0 425.7 0 645 0 C645 0.66 645 1.32 645 2 C432.15 2 219.3 2 0 2 C0 1.34 0 0.68 0 0 Z " fill="#4169E1" transform="translate(2270,426)"/>
<path d="M0 0 C1.3 -0 2.6 -0.01 3.93 -0.01 C5.36 -0.01 6.79 -0.01 8.22 -0 C9.67 -0 11.12 -0.01 12.58 -0.01 C15.63 -0.01 18.68 -0.01 21.73 -0 C25.64 0 29.56 0 33.48 -0 C36.48 -0.01 39.49 -0.01 42.49 -0 C43.93 -0 45.38 -0 46.82 -0.01 C48.84 -0.01 50.85 -0 52.87 0 C54.6 0 54.6 0 56.35 0 C58.94 0.13 58.94 0.13 59.94 1.13 C60.03 2.79 60.07 4.46 60.06 6.13 C60.06 7.49 60.06 7.49 60.07 8.88 C59.94 11.13 59.94 11.13 58.94 12.13 C56.92 12.23 54.89 12.26 52.87 12.26 C50.92 12.26 50.92 12.26 48.94 12.27 C47.51 12.27 46.08 12.26 44.65 12.26 C43.2 12.26 41.75 12.26 40.29 12.27 C37.24 12.27 34.19 12.26 31.14 12.26 C27.23 12.25 23.31 12.26 19.39 12.26 C16.39 12.27 13.39 12.27 10.38 12.26 C8.94 12.26 7.49 12.26 6.05 12.27 C4.03 12.27 2.02 12.26 0 12.26 C-1.72 12.26 -1.72 12.26 -3.48 12.26 C-6.06 12.13 -6.06 12.13 -7.06 11.13 C-7.16 9.47 -7.19 7.8 -7.19 6.13 C-7.19 5.22 -7.19 4.31 -7.2 3.38 C-6.93 -1.17 -3.9 0 0 0 Z " fill="#000000" transform="translate(1129.064453125,430.87060546875)"/>
<path d="M0 0 C123.75 0 247.5 0 375 0 C375 0.66 375 1.32 375 2 C251.25 2 127.5 2 0 2 C0 1.34 0 0.68 0 0 Z " fill="#4169E1" transform="translate(60,426)"/>
</svg>
