<?xml version="1.0" encoding="UTF-8" standalone="no"?>
<!-- Generator: https://ezgif.com/png-to-svg -->

<svg
   version="1.1"
   width="1160"
   height="792"
   id="svg8"
   sodipodi:docname="logo_small.svg"
   inkscape:version="1.4.2 (ebf0e940, 2025-05-08)"
   xmlns:inkscape="http://www.inkscape.org/namespaces/inkscape"
   xmlns:sodipodi="http://sodipodi.sourceforge.net/DTD/sodipodi-0.dtd"
   xmlns="http://www.w3.org/2000/svg"
   xmlns:svg="http://www.w3.org/2000/svg">
  <defs
     id="defs8" />
  <sodipodi:namedview
     id="namedview8"
     pagecolor="#ffffff"
     bordercolor="#000000"
     borderopacity="0.25"
     inkscape:showpageshadow="2"
     inkscape:pageopacity="0.0"
     inkscape:pagecheckerboard="0"
     inkscape:deskcolor="#d1d1d1"
     inkscape:zoom="0.21826753"
     inkscape:cx="-460.44412"
     inkscape:cy="-137.44601"
     inkscape:window-width="2016"
     inkscape:window-height="1247"
     inkscape:window-x="0"
     inkscape:window-y="25"
     inkscape:window-maximized="0"
     inkscape:current-layer="svg8" />
  <path
     d="m 987.8125,288.5625 c 1.31,0.01 2.62,0.01 3.97,0.02 14.52,0.24 27.13,2.97 40.22,9.42 1.47,0.72 1.47,0.72 2.98,1.45 13.14,7 22.81,17.15 27.64,31.39 2.1,12.07 0.82,24.14 -6.31,34.28 -1.08,1.31 -2.19,2.61 -3.31,3.88 -0.63,0.73 -1.25,1.46 -1.9,2.21 -12.86,13.98 -33.15,21.55 -51.77,23.09 -3.72,0.13 -7.42,0.17 -11.14,0.14 -1.32,-0.01 -2.63,-0.02 -3.98,-0.03 -14.51,-0.24 -27.12,-2.97 -40.21,-9.41 -0.99,-0.48 -1.97,-0.96 -2.98,-1.46 -13.14,-7 -22.81,-17.15 -27.65,-31.38 -2.09,-12.07 -0.81,-24.14 6.32,-34.29 1.07,-1.31 2.18,-2.6 3.31,-3.87 0.62,-0.73 1.25,-1.46 1.89,-2.21 15.78,-17.16 40.38,-23.41 62.92,-23.23 z"
     fill="#4169e1"
     id="path1" />
  <path
     d="m 795,196 c 1.06,0.36 2.11,0.72 3.2,1.1 15.77,5.96 28.51,16.28 35.62,31.67 2.17,5.2 2.73,9.87 2.68,15.48 -0.01,0.83 -0.01,1.66 -0.02,2.52 -0.39,13.76 -7.38,23.42 -16.92,32.79 -19.42,16.86 -45,18.74 -69.56,17.44 -5.59,-0.65 -10.71,-2.08 -16,-4 -1.6,-0.56 -1.6,-0.56 -3.23,-1.13 -15.84,-6.07 -28.42,-16.07 -35.58,-31.63 -2.17,-5.21 -2.74,-9.88 -2.69,-15.49 0.01,-0.83 0.01,-1.66 0.02,-2.52 0.36,-12.47 5.99,-21.55 14.51,-30.32 22.4,-21.14 59.4,-26.14 87.97,-15.91 z"
     fill="#76b900"
     id="path2" />
  <path
     d="m 664.5,399 c 1.18,0.98 2.35,1.98 3.5,3 0.66,0.55 1.32,1.09 2,1.66 6.66,5.96 13.27,16.18 14.19,25.23 0.56,14.63 -1.2,25.76 -11.19,37.11 -0.55,0.65 -1.1,1.31 -1.67,1.98 -7.82,8.61 -19.32,14.54 -30.33,18.02 -0.92,0.3 -1.83,0.6 -2.78,0.9 -23.43,6.29 -48.68,2.96 -69.58,-8.93 -3.48,-2.06 -6.62,-4.28 -9.64,-6.97 -0.66,-0.55 -1.32,-1.09 -2,-1.66 -6.66,-5.96 -13.27,-16.18 -14.19,-25.23 -0.56,-14.63 1.2,-25.76 11.19,-37.11 0.55,-0.65 1.1,-1.31 1.67,-1.98 7.82,-8.61 19.32,-14.54 30.33,-18.02 0.92,-0.3 1.83,-0.6 2.78,-0.9 25.63,-6.88 54.11,-2.52 75.72,12.9 z"
     fill="#7400ff"
     id="path3" />
  <path
     d="m 198,344 c 222.09,0 444.18,0 673,0 0,1.65 0,3.3 0,5 -222.09,0 -444.18,0 -673,0 0,-1.65 0,-3.3 0,-5 z"
     fill="#4169e1"
     id="path4"
     style="stroke-width:1.58114" />
  <path
     d="m 66,260 c 191.07,0 382.14,0 579,0 0,1.65 0,3.3 0,5 -191.07,0 -382.14,0 -579,0 0,-1.65 0,-3.3 0,-5 z"
     fill="#76b900"
     id="path5"
     style="stroke-width:1.58114" />
  <path
     d="m 0,196 c 140.91,0 281.82,0 427,0 0,1.65 0,3.3 0,5 -140.91,0 -281.82,0 -427,0 0,-1.65 0,-3.3 0,-5 z"
     fill="#76b900"
     id="path6"
     style="stroke-width:1.58114" />
  <path
     d="m 119,429 c 125.4,0 250.8,0 380,0 0,1.65 0,3.3 0,5 -125.4,0 -250.8,0 -380,0 0,-1.65 0,-3.3 0,-5 z"
     fill="#7400ff"
     id="path7"
     style="stroke-width:1.58114" />
  <path
     d="m 0,489 c 82.17,0 164.34,0 249,0 0,1.65 0,3.3 0,5 -82.17,0 -164.34,0 -249,0 0,-1.65 0,-3.3 0,-5 z"
     fill="#7400ff"
     id="path8"
     style="stroke-width:1.58114" />
  <path
     d="m 106.60067,585.33606 c 1.63843,0 4.42376,0.46874 6.71757,0.93748 1.31074,-2.81245 3.27686,-6.40613 4.75144,-9.21858 -9.99442,-1.71872 -16.87583,-0.15625 -24.08492,2.34371 -6.717562,2.18746 -12.615909,5.93739 -17.03967,10.62481 v 56.87396 h 11.960538 v -55.31149 c 4.259917,-3.43744 9.666735,-6.24989 17.531202,-6.24989 z M 182.46,636.42888 v -39.53053 c 0,-12.65602 -11.79669,-20.15588 -23.75723,-20.15588 -9.83058,0 -16.3843,1.56247 -24.90413,5.93739 l 2.94917,6.56238 c 6.38988,-3.12494 11.63285,-4.84366 18.84194,-4.84366 8.02831,0 15.56509,5.3124 15.56509,13.12476 v 6.71863 c -6.55372,0 -11.63285,0 -19.49732,0 -13.76281,-0.15625 -24.57644,7.9686 -24.74029,21.24961 -0.32768,12.49977 10.32211,22.34335 23.26571,22.65584 14.25434,0.15625 25.39566,-5.15616 32.27706,-11.71854 z m -11.63285,-1.56247 c -2.12996,2.18746 -8.51983,5.78115 -15.40124,5.6249 -9.50289,0 -16.3843,-7.49987 -16.3843,-15.31222 0,-8.5936 6.88141,-13.59351 16.05662,-13.59351 5.89834,-0.15624 11.96053,-0.15624 15.72892,-0.15624 z m 64.55423,-57.9677 c 19.49731,-0.31249 28.34483,17.18719 28.50867,37.03058 0,17.49968 -9.1752,33.90564 -28.83636,34.53062 -8.02831,0 -14.90971,-2.3437 -21.62727,-6.24988 v 40.46801 l -11.7967,-4.06242 0.16385,-89.84212 c -0.16385,0 9.1752,-11.71854 33.42396,-12.03103 z m -2.94918,63.43635 c 15.72893,-0.93748 17.69504,-15.62471 17.69504,-27.187 0,-11.2498 -1.96611,-28.12449 -16.87582,-28.74948 -10.15827,-0.62499 -18.35042,3.90618 -19.98885,5.46865 v 44.53044 c 3.93224,2.34371 11.7967,6.40613 19.16963,5.93739 z m 53.90434,6.56238 h 11.7967 v -70.15497 l -11.7967,3.74993 z m -1.96611,-92.18582 c 0,4.06242 3.4407,7.34361 7.70062,7.34361 4.42376,0 7.86446,-3.28119 7.86446,-7.34361 0,-4.21868 -3.4407,-7.49987 -7.70062,-7.49987 -4.42376,0 -7.86446,3.28119 -7.86446,7.34362 z m 95.52038,81.40477 -0.16384,-98.27947 -11.46901,3.74994 v 40.15552 c -6.88141,-3.12495 -13.92665,-4.99991 -21.46343,-4.99991 -19.825,-0.15625 -29.65558,19.2184 -29.65558,35.7806 0,16.2497 8.68368,35.7806 28.34483,35.62435 13.27129,0 24.57645,-4.68742 34.40703,-12.03103 z m -11.63285,-1.24998 c -4.42376,2.81245 -11.7967,6.40613 -19.16963,6.40613 -14.58202,0 -19.00579,-17.18718 -19.00579,-27.96824 0,-11.40604 4.58761,-29.06197 19.66116,-29.06197 7.20909,0.15625 12.45207,2.6562 18.51426,6.24989 z m 50.46373,13.906 c 13.76281,0 28.34483,-6.87488 28.50867,-21.56211 0,-6.24989 -2.94917,-10.31231 -6.8814,-13.28101 -3.76839,-2.81245 -8.35599,-4.37492 -12.77975,-6.09364 -4.58761,-1.71872 -9.5029,-3.59368 -13.10744,-5.15615 -3.76839,-1.56248 -6.22603,-3.74994 -6.22603,-7.65612 0.16384,-7.34361 7.70062,-10.78105 14.58202,-10.78105 5.24298,0.15625 10.32211,1.56247 15.72893,4.53117 l 4.42376,-6.71863 c -6.55372,-3.43744 -13.43513,-5.78114 -20.80806,-5.78114 -12.77975,0 -25.06798,7.18736 -25.06798,20.31213 0,6.40613 2.94918,10.31231 6.88141,12.96851 3.76839,2.81245 8.35599,4.37492 12.77975,5.93739 2.2938,0.62499 4.5876,1.56247 6.71756,2.34371 5.40682,2.03121 11.7967,4.06243 11.96054,10.78105 0.32769,8.5936 -9.01136,12.03104 -16.87583,12.03104 -6.38987,-0.15625 -13.59896,-2.49996 -18.51425,-6.09364 l -4.25992,6.56238 c 6.22603,4.53117 14.58203,7.65611 22.93802,7.65611 z m 44.40136,-37.65557 h 31.29401 v -11.87478 h -26.37872 -4.91529 z m 71.43544,37.65557 c 13.76281,0 28.34483,-6.87488 28.50867,-21.56211 0,-6.24989 -2.94917,-10.31231 -6.8814,-13.28101 -3.76839,-2.81245 -8.35599,-4.37492 -12.77975,-6.09364 -4.58761,-1.71872 -9.5029,-3.59368 -13.10744,-5.15615 -3.76839,-1.56248 -6.22603,-3.74994 -6.22603,-7.65612 0.16384,-7.34361 7.70062,-10.78105 14.58202,-10.78105 5.24298,0.15625 10.32211,1.56247 15.72893,4.53117 l 4.42376,-6.71863 c -6.55372,-3.43744 -13.43513,-5.78114 -20.80806,-5.78114 -12.77975,0 -25.06798,7.18736 -25.06798,20.31213 0,6.40613 2.94918,10.31231 6.88141,12.96851 3.76839,2.81245 8.35599,4.37492 12.77975,5.93739 2.2938,0.62499 4.5876,1.56247 6.71756,2.34371 5.40682,2.03121 11.7967,4.06243 11.96054,10.78105 0.32769,8.5936 -9.01136,12.03104 -16.87583,12.03104 -6.38987,-0.15625 -13.59896,-2.49996 -18.51425,-6.09364 l -4.25992,6.56238 c 6.22603,4.53117 14.58202,7.65611 22.93802,7.65611 z m 46.36747,-1.87497 h 11.79669 v -70.15497 l -11.79669,3.74993 z m -1.96612,-92.18582 c 0,4.06242 3.4407,7.34361 7.70062,7.34361 4.42376,0 7.86446,-3.28119 7.86446,-7.34361 0,-4.21868 -3.4407,-7.49987 -7.70062,-7.49987 -4.42376,0 -7.86446,3.28119 -7.86446,7.34362 z m 91.752,92.18582 v -52.3428 c 0,-9.21858 -7.70062,-15.15597 -16.3843,-17.03094 -8.51984,-1.87496 -16.54814,-0.31249 -22.44649,1.24998 -7.53678,1.87497 -12.94359,5.15616 -19.00578,9.37483 v 58.74893 h 11.96053 v -57.34271 c 3.76839,-2.49995 9.83058,-5.15615 16.22046,-5.3124 10.48595,-0.15625 17.69504,5.6249 17.69504,16.09346 v 46.56165 z m 78.15303,-57.49895 c -10.3221,-8.5936 -23.75723,-12.49978 -34.89855,-12.49978 -19.00579,0 -28.18099,20.46838 -28.18099,35.93685 0,16.5622 8.68368,35.31186 28.34483,35.31186 9.17521,0.15625 15.89277,-2.49995 23.26571,-7.18737 0.16384,1.56247 0,3.12494 0,4.84366 0,4.99991 -0.16385,13.59351 -2.62149,17.96843 -4.91529,8.90608 -18.02273,10.15606 -27.19794,11.40604 l 1.80228,7.18737 c 12.12438,-0.3125 29.16405,-4.68742 35.22624,-15.62472 3.60454,-6.24988 4.09607,-16.5622 4.09607,-24.8433 z m -11.96053,44.0617 c -6.22604,3.59368 -11.96054,7.03112 -19.33347,7.03112 -14.25434,0 -18.6781,-16.40595 -18.6781,-27.34325 0,-11.40605 4.42376,-28.43699 19.49731,-28.43699 7.20909,0 12.45207,2.49996 18.51426,6.09364 z m 56.19807,14.53098 v -5.93739 c -8.356,-0.31249 -13.43513,-2.49995 -13.43513,-11.56229 v -92.49832 l -11.63285,3.59369 v 89.21712 c 0,11.71854 9.17521,18.59342 25.06798,17.18719 z m 65.86493,-7.34361 -2.78533,-5.46865 c -6.06219,2.81244 -11.96053,5.46865 -20.15268,5.62489 -13.43513,0.46874 -22.93802,-11.56229 -21.62728,-29.37446 h 43.90992 c -0.32768,-21.09337 -7.70062,-34.21813 -27.68946,-34.21813 -20.9719,0 -28.67252,18.59341 -28.83637,36.56183 0,11.56229 4.75145,22.34335 12.61591,28.74948 8.51984,6.87488 21.95496,6.71863 32.27707,3.90618 4.75145,-1.40622 8.51984,-3.43744 12.28822,-5.78114 z m -12.77975,-35.93685 h -31.45785 c 0.81921,-9.84357 4.91529,-20.46838 16.3843,-20.46838 10.64979,0 15.23739,10.62481 15.23739,20.62463 z m 55.87046,43.59296 c 10.48595,0 19.33347,-2.81245 26.37872,-7.18737 l -3.11302,-5.93739 c -6.55372,2.96869 -12.12438,5.62489 -19.825,5.46865 -13.59897,-0.15625 -20.48037,-14.84348 -20.48037,-27.18701 0,-12.96851 6.38987,-28.43698 19.33347,-29.06197 5.57066,-0.3125 12.28822,1.56247 17.20351,3.74993 l 3.4407,-6.09364 c -11.30516,-6.71863 -26.54256,-7.18737 -36.53698,-0.62499 -9.99442,6.56238 -15.56508,19.2184 -15.56508,32.03067 0,17.18719 10.81363,34.68687 29.16405,34.84312 z m 93.88209,-7.65611 -2.78533,-5.46865 c -6.06219,2.81244 -11.96053,5.46865 -20.15268,5.62489 -13.43513,0.46874 -22.93802,-11.56229 -21.62728,-29.37446 h 43.90992 c -0.32768,-21.09337 -7.70062,-34.21813 -27.68946,-34.21813 -20.9719,0 -28.67252,18.59341 -28.83637,36.56183 0,11.56229 4.75145,22.34335 12.61591,28.74948 8.51984,6.87488 21.95496,6.71863 32.27707,3.90618 4.75145,-1.40622 8.51983,-3.43744 12.28822,-5.78114 z m -12.77975,-35.93685 h -31.45785 c 0.81921,-9.84357 4.91529,-20.46838 16.3843,-20.46838 10.64979,0 15.23739,10.62481 15.23739,20.62463 z m 56.03431,43.28046 v -5.93739 c -8.356,-0.31249 -13.4352,-2.49995 -13.4352,-11.56229 v -92.49832 l -11.6328,3.59369 v 89.21712 c 0,11.71854 9.1752,18.59342 25.068,17.18719 z m 38.0116,0 v -5.93739 c -8.356,-0.31249 -13.4351,-2.49995 -13.4351,-11.56229 v -92.49832 l -11.6328,3.59369 v 89.21712 c 0,11.71854 9.1752,18.59342 25.0679,17.18719 z"
     id="text26"
     style="font-weight:500;font-size:160px;font-family:Flux;-inkscape-font-specification:'Flux, Medium';fill:#aaaaaa;stroke:#000000;stroke-width:0"
     aria-label="rapids-singlecell" />
</svg>
