<?xml version="1.0" encoding="UTF-8" standalone="no"?>
<!-- Generator: https://ezgif.com/png-to-svg -->

<svg
   version="1.1"
   width="3204"
   height="792"
   id="svg26"
   sodipodi:docname="logo3-ezgif.com-gif-maker.svg"
   inkscape:version="1.4.2 (ebf0e940, 2025-05-08)"
   xmlns:inkscape="http://www.inkscape.org/namespaces/inkscape"
   xmlns:sodipodi="http://sodipodi.sourceforge.net/DTD/sodipodi-0.dtd"
   xmlns="http://www.w3.org/2000/svg"
   xmlns:svg="http://www.w3.org/2000/svg">
  <defs
     id="defs26" />
  <sodipodi:namedview
     id="namedview26"
     pagecolor="#ffffff"
     bordercolor="#000000"
     borderopacity="0.25"
     inkscape:showpageshadow="2"
     inkscape:pageopacity="0.0"
     inkscape:pagecheckerboard="0"
     inkscape:deskcolor="#d1d1d1"
     inkscape:zoom="0.37553912"
     inkscape:cx="1282.1567"
     inkscape:cy="-163.76456"
     inkscape:window-width="1768"
     inkscape:window-height="1038"
     inkscape:window-x="0"
     inkscape:window-y="44"
     inkscape:window-maximized="0"
     inkscape:current-layer="svg26" />
  <path
     d="M0 0 C1.31 0.01 2.62 0.01 3.97 0.02 C18.49 0.26 31.1 2.99 44.19 9.44 C45.66 10.16 45.66 10.16 47.17 10.89 C60.31 17.89 69.98 28.04 74.81 42.28 C76.91 54.35 75.63 66.42 68.5 76.56 C67.42 77.87 66.31 79.17 65.19 80.44 C64.56 81.17 63.94 81.9 63.29 82.65 C50.43 96.63 30.14 104.2 11.52 105.74 C7.8 105.87 4.1 105.91 0.38 105.88 C-0.94 105.87 -2.25 105.86 -3.6 105.85 C-18.11 105.61 -30.72 102.88 -43.81 96.44 C-44.8 95.96 -45.78 95.48 -46.79 94.98 C-59.93 87.98 -69.6 77.83 -74.44 63.6 C-76.53 51.53 -75.25 39.46 -68.12 29.31 C-67.05 28 -65.94 26.71 -64.81 25.44 C-64.19 24.71 -63.56 23.98 -62.92 23.23 C-47.14 6.07 -22.54 -0.18 0 0 Z "
     fill="#4169E1"
     transform="translate(3031.8125,370.5625)"
     id="path1" />
  <path
     d="M0 0 C1.06 0.36 2.11 0.72 3.2 1.1 C18.97 7.06 31.71 17.38 38.82 32.77 C40.99 37.97 41.55 42.64 41.5 48.25 C41.49 49.08 41.49 49.91 41.48 50.77 C41.09 64.53 34.1 74.19 24.56 83.56 C5.14 100.42 -20.44 102.3 -45 101 C-50.59 100.35 -55.71 98.92 -61 97 C-62.6 96.44 -62.6 96.44 -64.23 95.87 C-80.07 89.8 -92.65 79.8 -99.81 64.24 C-101.98 59.03 -102.55 54.36 -102.5 48.75 C-102.49 47.92 -102.49 47.09 -102.48 46.23 C-102.12 33.76 -96.49 24.68 -87.97 15.91 C-65.57 -5.23 -28.57 -10.23 0 0 Z "
     fill="#76B900"
     transform="translate(2839,265)"
     id="path2" />
  <path
     d="M0 0 C1.18 0.98 2.35 1.98 3.5 3 C4.16 3.55 4.82 4.09 5.5 4.66 C12.16 10.62 18.77 20.84 19.69 29.89 C20.25 44.52 18.49 55.65 8.5 67 C7.95 67.65 7.4 68.31 6.83 68.98 C-0.99 77.59 -12.49 83.52 -23.5 87 C-24.42 87.3 -25.33 87.6 -26.28 87.9 C-49.71 94.19 -74.96 90.86 -95.86 78.97 C-99.34 76.91 -102.48 74.69 -105.5 72 C-106.16 71.45 -106.82 70.91 -107.5 70.34 C-114.16 64.38 -120.77 54.16 -121.69 45.11 C-122.25 30.48 -120.49 19.35 -110.5 8 C-109.95 7.35 -109.4 6.69 -108.83 6.02 C-101.01 -2.59 -89.51 -8.52 -78.5 -12 C-77.58 -12.3 -76.67 -12.6 -75.72 -12.9 C-50.09 -19.78 -21.61 -15.42 0 0 Z "
     fill="#7400FF"
     transform="translate(2708.5,491)"
     id="path3" />
  <path
     d="M0 0 C761.97 0 1523.94 0 2309 0 C2309 0.66 2309 1.32 2309 2 C1547.03 2 785.06 2 0 2 C0 1.34 0 0.68 0 0 Z "
     fill="#7400FF"
     transform="translate(234,526)"
     id="path4" />
  <path
     d="M0 0 C755.04 0 1510.08 0 2288 0 C2288 0.66 2288 1.32 2288 2 C1532.96 2 777.92 2 0 2 C0 1.34 0 0.68 0 0 Z "
     fill="#76B900"
     transform="translate(401,319)"
     id="path5" />
  <path
     d="M0 0 C732.6 0 1465.2 0 2220 0 C2220 0.66 2220 1.32 2220 2 C1487.4 2 754.8 2 0 2 C0 1.34 0 0.68 0 0 Z "
     fill="#7400FF"
     transform="translate(0,594)"
     id="path6" />
  <path
     d="M0 0 C732.6 0 1465.2 0 2220 0 C2220 0.66 2220 1.32 2220 2 C1487.4 2 754.8 2 0 2 C0 1.34 0 0.68 0 0 Z "
     fill="#76B900"
     transform="translate(251,241)"
     id="path7" />
  <path
     d="M0 0 C252.12 0 504.24 0 764 0 C764 0.66 764 1.32 764 2 C511.88 2 259.76 2 0 2 C0 1.34 0 0.68 0 0 Z "
     fill="#4169E1"
     transform="translate(2151,426)"
     id="path22" />
  <path
     d="M0 0 C155.76 0 311.52 0 472 0 C472 0.66 472 1.32 472 2 C316.24 2 160.48 2 0 2 C0 1.34 0 0.68 0 0 Z "
     fill="#4169E1"
     transform="translate(60,426)"
     id="path25" />
  <text
     xml:space="preserve"
     style="font-style:italic;font-variant:normal;font-weight:normal;font-stretch:normal;font-size:133.333px;font-family:Sans;-inkscape-font-specification:'Sans, Italic';font-variant-ligatures:normal;font-variant-caps:normal;font-variant-numeric:normal;font-variant-east-asian:normal;text-align:start;writing-mode:lr-tb;direction:ltr;text-anchor:start;fill:#ffffff;stroke:#000000;stroke-width:0;stroke-dasharray:none"
     x="637.86768"
     y="469.95126"
     id="text26"><tspan
       sodipodi:role="line"
       id="tspan26"
       style="font-style:italic;font-variant:normal;font-weight:normal;font-stretch:normal;font-size:133.333px;font-family:Sans;-inkscape-font-specification:'Sans, Italic';font-variant-ligatures:normal;font-variant-caps:normal;font-variant-numeric:normal;font-variant-east-asian:normal;fill:#666666;fill-opacity:1;stroke-width:0;stroke-dasharray:none"
       x="637.86768"
       y="469.95126">RAPIDS-SINGLECELL</tspan></text>
</svg>
