<?xml version="1.0" encoding="UTF-8" standalone="no"?>
<svg
   width="1067.5037"
   zoomAndPan="magnify"
   viewBox="0 0 800.62775 437.81369"
   height="583.75159"
   preserveAspectRatio="xMidYMid meet"
   version="1.0"
   id="svg168"
   sodipodi:docname="logo3.svg"
   inkscape:version="1.1.2 (0a00cf5339, 2022-02-04)"
   xmlns:inkscape="http://www.inkscape.org/namespaces/inkscape"
   xmlns:sodipodi="http://sodipodi.sourceforge.net/DTD/sodipodi-0.dtd"
   xmlns="http://www.w3.org/2000/svg"
   xmlns:svg="http://www.w3.org/2000/svg">
  <sodipodi:namedview
     id="namedview170"
     pagecolor="#ffffff"
     bordercolor="#666666"
     borderopacity="1.0"
     inkscape:pageshadow="2"
     inkscape:pageopacity="0.0"
     inkscape:pagecheckerboard="0"
     showgrid="false"
     inkscape:zoom="0.80833333"
     inkscape:cx="-113.81443"
     inkscape:cy="219.58763"
     inkscape:window-width="3440"
     inkscape:window-height="1284"
     inkscape:window-x="0"
     inkscape:window-y="27"
     inkscape:window-maximized="1"
     inkscape:current-layer="g166" />
  <defs
     id="defs4">
    <g
       id="g2" />
  </defs>
  <rect
     x="0"
     width="800.62775"
     fill="#ffffff"
     y="-2.8421709e-14"
     height="437.81369"
     fill-opacity="1"
     id="rect8"
     style="fill:none;stroke-width:0.609106" />
  <path
     stroke-linecap="butt"
     fill="none"
     stroke-linejoin="miter"
     d="M 166.84737,81.880788 H 537.35105"
     stroke="#b0afb1"
     stroke-width="4.50178"
     stroke-opacity="1"
     stroke-miterlimit="4"
     id="path12" />
  <path
     stroke-linecap="butt"
     fill="none"
     stroke-linejoin="miter"
     d="M 33.941117,173.71672 H 334.69895"
     stroke="#b0afb1"
     stroke-width="4.5"
     stroke-opacity="1"
     stroke-miterlimit="4"
     id="path14" />
  <path
     stroke-linecap="butt"
     fill="none"
     stroke-linejoin="miter"
     d="M 184.32002,130.00578 H 554.8276"
     stroke="#b0afb1"
     stroke-width="4.50178"
     stroke-opacity="1"
     stroke-miterlimit="4"
     id="path16" />
  <path
     stroke-linecap="butt"
     fill="none"
     stroke-linejoin="miter"
     d="M 243.6169,110.73625 H 614.12449"
     stroke="#b0afb1"
     stroke-width="4.50178"
     stroke-opacity="1"
     stroke-miterlimit="4"
     id="path18" />
  <path
     stroke-linecap="butt"
     fill="none"
     stroke-linejoin="miter"
     d="M 97.382523,201.01359 H 467.8862"
     stroke="#b0afb1"
     stroke-width="4.50178"
     stroke-opacity="1"
     stroke-miterlimit="4"
     id="path20" />
  <path
     stroke-linecap="butt"
     fill="none"
     stroke-linejoin="miter"
     d="M 113.44111,234.4511 H 483.94479"
     stroke="#b0afb1"
     stroke-width="4.50178"
     stroke-opacity="1"
     stroke-miterlimit="4"
     id="path22" />
  <path
     stroke-linecap="butt"
     fill="none"
     stroke-linejoin="miter"
     d="M 202.42549,259.30266 H 572.93307"
     stroke="#b0afb1"
     stroke-width="4.50178"
     stroke-opacity="1"
     stroke-miterlimit="4"
     id="path24" />
  <path
     fill="#55b27e"
     d="m 526.93721,107.06829 c 0,-50.250003 38.23828,-91.019543 85.36718,-91.019543 47.19922,0 85.36329,40.76954 85.36329,91.019543 0,50.32421 -38.16407,91.01562 -85.36329,91.01562 -47.1289,0 -85.36718,-40.69141 -85.36718,-91.01562 z m 0,0"
     fill-opacity="1"
     fill-rule="evenodd"
     id="path26" />
  <path
     stroke-linecap="butt"
     fill="none"
     stroke-linejoin="round"
     d="m 526.93721,107.06828 c 0,-50.249996 38.23828,-91.019528 85.36719,-91.019528 47.19922,0 85.36328,40.769532 85.36328,91.019528 0,50.32422 -38.16406,91.01563 -85.36328,91.01563 -47.12891,0 -85.36719,-40.69141 -85.36719,-91.01563"
     stroke="#000000"
     stroke-width="2.40948"
     stroke-opacity="1"
     stroke-miterlimit="4"
     id="path28" />
  <path
     fill="#009853"
     d="m 683.44111,83.747967 c -4.89453,-15.64843 -4.89453,-5.1914 -4.89453,10.38282 0,41.593753 -34.32422,72.738283 -78.51172,72.738283 -9.78906,0 -24.54297,-5.19141 -34.33203,-10.37891 -4.89062,0 -9.85937,0 -4.89062,5.19141 14.67968,15.57031 34.32812,20.75781 53.97656,20.75781 39.21875,0 73.54687,-31.14063 73.54687,-72.73828 0,-10.382813 0,-20.761723 -4.89453,-25.953133 z m 0,0"
     fill-opacity="1"
     fill-rule="evenodd"
     id="path30" />
  <path
     fill="#00733b"
     d="m 614.85908,182.43938 c 39.22266,0 73.47656,-31.14063 73.47656,-72.8125 -4.89453,10.45312 -19.57421,67.625 -73.47656,72.8125 z m 0,0"
     fill-opacity="1"
     fill-rule="evenodd"
     id="path32" />
  <path
     fill="#a9d4b4"
     d="m 629.61689,37.185467 c -58.64062,-5.1914 -78.21484,31.14063 -78.21484,57.09375 -4.89453,5.19532 0,15.574223 0,20.761723 4.89453,10.37891 14.67969,25.87891 34.25,15.57031 24.39063,-5.1914 24.39063,-31.140623 39.07422,-25.95312 34.17187,5.19531 53.67187,-20.757813 39.07031,-46.710943 -4.89844,-10.3789 -14.68359,-15.57422 -34.17969,-20.76172 z m 0,0"
     fill-opacity="1"
     fill-rule="evenodd"
     id="path34" />
  <path
     fill="#ffffff"
     d="m 566.08174,78.935467 c 0,-8.57812 6.6289,-15.64843 14.7539,-15.64843 8.20704,0 14.75782,7.07031 14.75782,15.64843 0,8.64844 -6.55469,15.64453 -14.75782,15.64453 -8.1289,0 -14.7539,-6.99609 -14.7539,-15.64453 z m 34.32812,-13.53906 c 0,-4.29297 2.10938,-7.82812 4.67188,-7.82812 2.6289,0 4.66015,3.53515 4.66015,7.82812 0,4.35938 -2.03125,7.82031 -4.66406,7.82031 -2.5625,0 -4.67187,-3.46093 -4.67187,-7.82031 z m -34.32812,44.531253 c 0,-2.93359 3.23828,-5.41797 7.23047,-5.41797 3.98828,0 7.22265,2.48438 7.22265,5.41797 0,3.00781 -3.23828,5.41406 -7.22656,5.41406 -3.99219,0 -7.22656,-2.40625 -7.22656,-5.41797 z m 0,0"
     fill-opacity="1"
     fill-rule="evenodd"
     id="path36" />
  <path
     stroke-linecap="round"
     fill="none"
     stroke-linejoin="round"
     d="m 526.93721,107.06828 c 0,-50.249996 38.23828,-91.019528 85.36719,-91.019528 47.19922,0 85.36328,40.769532 85.36328,91.019528 0,50.32422 -38.16406,91.01563 -85.36328,91.01563 -47.12891,0 -85.36719,-40.69141 -85.36719,-91.01563"
     stroke="#000000"
     stroke-width="1.20474"
     stroke-opacity="1"
     stroke-miterlimit="4"
     id="path38" />
  <path
     fill="#e2007a"
     d="m 469.78877,201.8925 c 0,-39.89062 29.50781,-72.33203 65.87109,-72.33203 36.42578,0 65.875,32.44141 65.875,72.33203 0,39.95313 -29.44922,72.33594 -65.875,72.33594 -36.36328,0 -65.87109,-32.38281 -65.87109,-72.33594 z m 0,0"
     fill-opacity="1"
     fill-rule="evenodd"
     id="path40" />
  <path
     fill="#ac005e"
     d="m 589.9958,183.3925 c -3.90625,-12.5 -3.90625,-4.14843 -3.90625,8.28907 0,33.22265 -27.22656,58.09375 -58.42187,58.09375 -11.66016,0 -23.32032,-4.14453 -27.23047,-8.28907 -7.8125,0 -7.8125,0 -3.90625,4.14844 7.8164,12.4336 23.38281,16.57813 38.94922,16.57813 31.13281,0 58.36328,-24.8711 58.36328,-58.09375 0,-8.29297 0,-16.58203 -3.84766,-20.72657 z m 0,0"
     fill-opacity="1"
     fill-rule="evenodd"
     id="path42" />
  <path
     fill="#640033"
     d="m 535.90205,262.21282 c 30.95313,0 57.94141,-24.8711 57.94141,-58.15625 0,8.35156 -11.53907,54.01172 -57.94141,58.15625 z m 0,0"
     fill-opacity="1"
     fill-rule="evenodd"
     id="path44" />
  <path
     fill="#ef91b8"
     d="m 547.20283,146.2011 c -42.61328,-4.14453 -62.02734,24.6914 -62.02734,45.30078 v 16.51953 c 3.90625,8.23047 11.65625,20.55078 31.01172,12.3125 15.50781,-4.08594 15.50781,-24.69141 27.10937,-20.60547 27.16406,4.14844 42.61328,-16.46094 34.91797,-37.0664 -7.75391,-8.23047 -15.50781,-12.32032 -27.16797,-16.46485 z m 0,0"
     fill-opacity="1"
     fill-rule="evenodd"
     id="path46" />
  <path
     fill="#ffffff"
     d="m 496.71064,179.30657 c 0,-6.73047 6.13282,-12.25782 13.58594,-12.25782 7.51172,0 13.58594,5.52735 13.58594,12.25782 0,6.78515 -6.07422,12.2539 -13.58594,12.2539 -7.45312,0 -13.58594,-5.46875 -13.58594,-12.2539 z m 27.17188,-10.57422 c 0,-3.42578 1.80469,-6.25 3.96484,-6.25 2.22657,0 3.96875,2.82422 3.96875,6.25 0,3.48437 -1.74218,6.24609 -3.96875,6.24609 -2.16406,0 -3.96875,-2.76172 -3.96875,-6.24609 z m -23.08203,35.32422 c 0,-2.22266 1.68359,-4.08594 3.72656,-4.08594 2.10547,0 3.72656,1.86328 3.72656,4.08594 0,2.28515 -1.625,4.08593 -3.73047,4.08593 -2.03906,0 -3.72265,-1.80078 -3.72265,-4.08593 z m 0,0"
     fill-opacity="1"
     fill-rule="evenodd"
     id="path48" />
  <path
     stroke-linecap="round"
     fill="none"
     stroke-linejoin="round"
     d="m 469.78877,201.89249 c 0,-39.89062 29.50781,-72.33203 65.87109,-72.33203 36.42579,0 65.875,32.44141 65.875,72.33203 0,39.95312 -29.44921,72.33593 -65.875,72.33593 -36.36328,0 -65.87109,-32.38281 -65.87109,-72.33593"
     stroke="#000000"
     stroke-width="1.9241"
     stroke-opacity="1"
     stroke-miterlimit="4"
     id="path50" />
  <path
     fill="#197896"
     d="m 315.74189,157.00188 c 0,-36.1875 27.67969,-65.617193 61.79297,-65.617193 34.16407,0 61.78907,29.429693 61.78907,65.617193 0,36.23828 -27.625,65.61328 -61.78907,65.61328 -34.11328,0 -61.79297,-29.375 -61.79297,-65.61328 z m 0,0"
     fill-opacity="1"
     fill-rule="evenodd"
     id="path52" />
  <path
     fill="#003c5a"
     d="m 428.42549,139.77922 c -3.48828,-11.33593 -3.48828,-3.76172 -3.48828,7.51953 0,30.14063 -24.62891,52.69922 -56.23047,52.69922 -6.97656,0 -17.54688,-3.75781 -24.57813,-7.51953 -3.48437,0 -7.02734,0 -3.48437,3.76172 10.51562,11.28125 24.57422,15.03906 38.63281,15.03906 28.0625,0 52.63672,-22.5625 52.63672,-52.69922 0,-7.51953 0,-15.04296 -3.48828,-18.80078 z m 0,0"
     fill-opacity="1"
     fill-rule="evenodd"
     id="path54" />
  <path
     fill="#00101c"
     d="m 379.38252,211.27922 c 28.06641,0 52.53125,-22.39843 52.53125,-52.3164 -3.48828,7.51953 -14.00391,48.61328 -52.53125,52.3164 z m 0,0"
     fill-opacity="1"
     fill-rule="evenodd"
     id="path56" />
  <path
     fill="#71a4ba"
     d="m 389.90205,106.04094 c -42.33594,-3.75781 -56.44922,22.5625 -56.44922,41.36719 -3.54297,3.76172 0,11.28125 0,15.04297 3.53906,7.51953 10.57031,18.74609 24.67969,11.28125 17.65625,-3.76172 17.65625,-22.56641 28.22656,-18.80078 24.73828,3.75781 38.79688,-15.04297 28.22656,-33.84766 -3.48828,-7.51953 -10.57031,-11.27734 -24.68359,-15.04297 z m 0,0"
     fill-opacity="1"
     fill-rule="evenodd"
     id="path58" />
  <path
     fill="#ffffff"
     d="m 343.85908,136.29094 c 0,-6.21484 4.79688,-11.33594 10.67969,-11.33594 5.94141,0 10.67969,5.1211 10.67969,11.33594 0,6.26563 -4.74219,11.33594 -10.67969,11.33594 -5.88672,0 -10.67969,-5.07031 -10.67969,-11.33594 z m 25.06641,-9.375 c 0,-3.10547 1.52734,-5.66797 3.3789,-5.66797 1.90625,0 3.375,2.5625 3.375,5.66797 0,3.16016 -1.47265,5.66797 -3.3789,5.66797 -1.85156,0 -3.37891,-2.50781 -3.37891,-5.66797 z m -25.06641,31.82813 c 0,-2.125 2.45313,-3.92578 5.44922,-3.92578 3.05078,0 5.44922,1.80078 5.44922,3.92578 0,2.18359 -2.39844,3.92578 -5.44922,3.92578 -3,0 -5.44922,-1.7461 -5.44922,-3.92578 z m 0,0"
     fill-opacity="1"
     fill-rule="evenodd"
     id="path60" />
  <path
     stroke-linecap="round"
     fill="none"
     stroke-linejoin="round"
     d="m 315.7419,157.00187 c 0,-36.1875 27.67969,-65.617183 61.79297,-65.617183 34.16407,0 61.78907,29.429683 61.78907,65.617183 0,36.23828 -27.625,65.61327 -61.78907,65.61327 -34.11328,0 -61.79297,-29.37499 -61.79297,-65.61327"
     stroke="#000000"
     stroke-width="1.74487"
     stroke-opacity="1"
     stroke-miterlimit="4"
     id="path62" />
  <g
     fill="#000000"
     fill-opacity="1"
     id="g166"
     transform="translate(-7.3674774,-190.74812)">
    <g
       transform="translate(27.467508,588.6609)"
       id="g68"
       style="fill:#ffffff;stroke:#000000;stroke-opacity:1">
      <g
         id="g66"
         style="fill:#ffffff;stroke:#000000;stroke-opacity:1">
        <path
           d="m 49.78125,0 h -13.375 C 35.800781,-0.84375 35.375,-1.921875 35.125,-3.234375 c -0.21875,-1.019531 -0.554688,-2.019531 -1,-3 -0.4375,-0.976563 -1.195312,-1.789063 -2.265625,-2.4375 -1.074219,-0.65625 -2.667969,-1.003906 -4.78125,-1.046875 H 17.90625 V 0 H 3.765625 V -33.703125 H 26.75 c 5.5,0 9.9375,0.414063 13.3125,1.234375 3.375,0.8125 5.835938,2.105469 7.390625,3.875 1.550781,1.761719 2.328125,4.058594 2.328125,6.890625 0,2.367187 -0.539062,4.355469 -1.609375,5.96875 -1.074219,1.617187 -2.773437,2.890625 -5.09375,3.828125 2.238281,0.917969 3.691406,2.027344 4.359375,3.328125 0.664062,1.292969 1.078125,2.710937 1.234375,4.25 C 48.828125,-2.941406 49.195312,-1.5 49.78125,0 Z m -31.875,-18.046875 8.078125,-0.01563 c 2.25,0 4.023437,-0.09766 5.328125,-0.296875 1.300781,-0.207031 2.257812,-0.488281 2.875,-0.84375 0.625,-0.351563 1.019531,-0.742187 1.1875,-1.171875 0.175781,-0.4375 0.265625,-0.878906 0.265625,-1.328125 0,-0.457031 -0.08984,-0.90625 -0.265625,-1.34375 -0.167969,-0.4375 -0.5625,-0.832031 -1.1875,-1.1875 -0.617188,-0.351563 -1.574219,-0.628906 -2.875,-0.828125 -1.304688,-0.207031 -3.078125,-0.3125 -5.328125,-0.3125 H 17.90625 Z m 0,0"
           id="path64"
           style="fill:#ffffff;stroke:#000000;stroke-opacity:1" />
      </g>
    </g>
    <g
       transform="translate(79.129662,588.6609)"
       id="g74"
       style="fill:#ffffff;stroke:#000000;stroke-opacity:1">
      <g
         id="g72"
         style="fill:#ffffff;stroke:#000000;stroke-opacity:1">
        <path
           d="M 56.609375,0 H 42.28125 l -3.171875,-5.515625 h -21.25 L 14.6875,0 H 0.359375 l 21.5625,-33.6875 h 13.125 z M 34.34375,-13.859375 28.5,-24.078125 l -5.875,10.21875 z m 0,0"
           id="path70"
           style="fill:#ffffff;stroke:#000000;stroke-opacity:1" />
      </g>
    </g>
    <g
       transform="translate(136.10134,588.6609)"
       id="g80"
       style="fill:#ffffff;stroke:#000000;stroke-opacity:1">
      <g
         id="g78"
         style="fill:#ffffff;stroke:#000000;stroke-opacity:1">
        <path
           d="M 17.90625,0 H 3.765625 V -33.703125 H 26.75 c 5.5,0 9.9375,0.414063 13.3125,1.234375 3.375,0.8125 5.835938,2.105469 7.390625,3.875 1.550781,1.761719 2.328125,4.058594 2.328125,6.890625 0,2.8125 -0.777344,5.105469 -2.328125,6.875 -1.554687,1.761719 -4.015625,3.054687 -7.390625,3.875 -3.375,0.824219 -7.8125,1.234375 -13.3125,1.234375 h -8.84375 z m 0,-18.046875 8.078125,-0.01563 c 2.25,0 4.023437,-0.08594 5.328125,-0.265625 1.300781,-0.1875 2.257812,-0.441406 2.875,-0.765625 0.625,-0.332031 1.019531,-0.722656 1.1875,-1.171875 0.175781,-0.445313 0.265625,-0.925781 0.265625,-1.4375 0,-0.53125 -0.08984,-1.019531 -0.265625,-1.46875 -0.167969,-0.445313 -0.5625,-0.832031 -1.1875,-1.15625 -0.617188,-0.332031 -1.574219,-0.585937 -2.875,-0.765625 -1.304688,-0.1875 -3.078125,-0.28125 -5.328125,-0.28125 H 17.90625 Z m 0,0"
           id="path76"
           style="fill:#ffffff;stroke:#000000;stroke-opacity:1" />
      </g>
    </g>
    <g
       transform="translate(187.7635,588.6609)"
       id="g86"
       style="fill:#ffffff;stroke:#000000;stroke-opacity:1">
      <g
         id="g84"
         style="fill:#ffffff;stroke:#000000;stroke-opacity:1">
        <path
           d="M 17.90625,0 H 3.765625 V -33.703125 H 17.90625 Z m 0,0"
           id="path82"
           style="fill:#ffffff;stroke:#000000;stroke-opacity:1" />
      </g>
    </g>
    <g
       transform="translate(209.42448,588.6609)"
       id="g92"
       style="fill:#ffffff;stroke:#000000;stroke-opacity:1">
      <g
         id="g90"
         style="fill:#ffffff;stroke:#000000;stroke-opacity:1">
        <path
           d="M 26.3125,0 H 3.765625 V -33.703125 H 26.3125 c 9.21875,0 15.847656,1.292969 19.890625,3.875 3.257813,2.085937 5.117187,4.917969 5.578125,8.5 0.195312,1.554687 0.296875,3.046875 0.296875,4.484375 0,1.429688 -0.101563,2.921875 -0.296875,4.484375 -0.199219,1.554687 -0.71875,3.0625 -1.5625,4.53125 C 49.375,-6.367188 48.03125,-5.050781 46.1875,-3.875 44.351562,-2.695312 41.832031,-1.753906 38.625,-1.046875 35.425781,-0.347656 31.320312,0 26.3125,0 Z m -1.34375,-8.34375 c 7.1875,0 11.25,-1.816406 12.1875,-5.453125 0.25,-1.007813 0.375,-2.023437 0.375,-3.046875 0,-1.03125 -0.132812,-2.050781 -0.390625,-3.0625 -0.25,-1.007812 -0.796875,-1.925781 -1.640625,-2.75 -0.835938,-0.820312 -2.089844,-1.476562 -3.765625,-1.96875 -1.679687,-0.5 -3.933594,-0.75 -6.765625,-0.75 h -7.0625 v 17.03125 z m 0,0"
           id="path88"
           style="fill:#ffffff;stroke:#000000;stroke-opacity:1" />
      </g>
    </g>
    <g
       transform="translate(263.389,588.6609)"
       id="g98"
       style="fill:#ffffff;stroke:#000000;stroke-opacity:1">
      <g
         id="g96"
         style="fill:#ffffff;stroke:#000000;stroke-opacity:1">
        <path
           d="M 22.265625,0.734375 C 17.710938,0.734375 14.039062,0.242188 11.25,-0.734375 8.46875,-1.710938 6.347656,-3.0625 4.890625,-4.78125 3.429688,-6.5 2.453125,-8.476562 1.953125,-10.71875 h 15 c 1.113281,1.605469 2.882813,2.40625 5.3125,2.40625 2.425781,0 4.195313,-0.800781 5.3125,-2.40625 0.09375,-0.15625 0.140625,-0.296875 0.140625,-0.421875 0,-0.414063 -0.5625,-0.726563 -1.6875,-0.9375 -1.117188,-0.21875 -2.78125,-0.378906 -5,-0.484375 -2.8125,-0.125 -5.761719,-0.421875 -8.84375,-0.890625 C 5.3125,-14.523438 1.875,-17.289062 1.875,-21.75 c 0,-0.375 0.023438,-0.773438 0.078125,-1.203125 0.5,-2.238281 1.476563,-4.210937 2.9375,-5.921875 1.457031,-1.71875 3.578125,-3.066406 6.359375,-4.046875 2.789062,-0.976563 6.460938,-1.46875 11.015625,-1.46875 4.5625,0 8.234375,0.492187 11.015625,1.46875 2.789062,0.980469 4.914062,2.328125 6.375,4.046875 1.457031,1.710938 2.4375,3.683594 2.9375,5.921875 H 27.578125 c -1.117187,-1.59375 -2.886719,-2.390625 -5.3125,-2.390625 -2.429687,0 -4.199219,0.796875 -5.3125,2.390625 -0.07422,0.125 -0.109375,0.246094 -0.109375,0.359375 0,0.375 0.535156,0.652344 1.609375,0.828125 1.070313,0.179687 2.648437,0.328125 4.734375,0.453125 2.09375,0.125 4.320312,0.335938 6.6875,0.625 2.363281,0.28125 4.578125,0.773438 6.640625,1.46875 2.0625,0.6875 3.671875,1.714844 4.828125,3.078125 0.90625,1.054687 1.359375,2.386719 1.359375,4 0,0.449219 -0.03906,0.921875 -0.109375,1.421875 -0.5,2.242188 -1.480469,4.21875 -2.9375,5.9375 -1.460938,1.71875 -3.585938,3.070312 -6.375,4.046875 C 30.5,0.242188 26.828125,0.734375 22.265625,0.734375 Z m 0,0"
           id="path94"
           style="fill:#ffffff;stroke:#000000;stroke-opacity:1" />
      </g>
    </g>
    <g
       transform="translate(307.97962,588.6609)"
       id="g104"
       style="fill:#ffffff;stroke:#000000;stroke-opacity:1">
      <g
         id="g102"
         style="fill:#ffffff;stroke:#000000;stroke-opacity:1">
        <path
           d="m 1.40625,-13.90625 v -5.609375 h 21.609375 v 5.609375 z m 0,0"
           id="path100"
           style="fill:#ffffff;stroke:#000000;stroke-opacity:1" />
      </g>
    </g>
    <g
       transform="translate(332.41283,588.6609)"
       id="g110"
       style="fill:#ffffff;stroke:#000000;stroke-opacity:1">
      <g
         id="g108"
         style="fill:#ffffff;stroke:#000000;stroke-opacity:1">
        <path
           d="M 22.265625,0.734375 C 17.710938,0.734375 14.039062,0.242188 11.25,-0.734375 8.46875,-1.710938 6.347656,-3.0625 4.890625,-4.78125 3.429688,-6.5 2.453125,-8.476562 1.953125,-10.71875 h 15 c 1.113281,1.605469 2.882813,2.40625 5.3125,2.40625 2.425781,0 4.195313,-0.800781 5.3125,-2.40625 0.09375,-0.15625 0.140625,-0.296875 0.140625,-0.421875 0,-0.414063 -0.5625,-0.726563 -1.6875,-0.9375 -1.117188,-0.21875 -2.78125,-0.378906 -5,-0.484375 -2.8125,-0.125 -5.761719,-0.421875 -8.84375,-0.890625 C 5.3125,-14.523438 1.875,-17.289062 1.875,-21.75 c 0,-0.375 0.023438,-0.773438 0.078125,-1.203125 0.5,-2.238281 1.476563,-4.210937 2.9375,-5.921875 1.457031,-1.71875 3.578125,-3.066406 6.359375,-4.046875 2.789062,-0.976563 6.460938,-1.46875 11.015625,-1.46875 4.5625,0 8.234375,0.492187 11.015625,1.46875 2.789062,0.980469 4.914062,2.328125 6.375,4.046875 1.457031,1.710938 2.4375,3.683594 2.9375,5.921875 H 27.578125 c -1.117187,-1.59375 -2.886719,-2.390625 -5.3125,-2.390625 -2.429687,0 -4.199219,0.796875 -5.3125,2.390625 -0.07422,0.125 -0.109375,0.246094 -0.109375,0.359375 0,0.375 0.535156,0.652344 1.609375,0.828125 1.070313,0.179687 2.648437,0.328125 4.734375,0.453125 2.09375,0.125 4.320312,0.335938 6.6875,0.625 2.363281,0.28125 4.578125,0.773438 6.640625,1.46875 2.0625,0.6875 3.671875,1.714844 4.828125,3.078125 0.90625,1.054687 1.359375,2.386719 1.359375,4 0,0.449219 -0.03906,0.921875 -0.109375,1.421875 -0.5,2.242188 -1.480469,4.21875 -2.9375,5.9375 -1.460938,1.71875 -3.585938,3.070312 -6.375,4.046875 C 30.5,0.242188 26.828125,0.734375 22.265625,0.734375 Z m 0,0"
           id="path106"
           style="fill:#ffffff;stroke:#000000;stroke-opacity:1" />
      </g>
    </g>
    <g
       transform="translate(377.00345,588.6609)"
       id="g116"
       style="fill:#ffffff;stroke:#000000;stroke-opacity:1">
      <g
         id="g114"
         style="fill:#ffffff;stroke:#000000;stroke-opacity:1">
        <path
           d="M 17.90625,0 H 3.765625 V -33.703125 H 17.90625 Z m 0,0"
           id="path112"
           style="fill:#ffffff;stroke:#000000;stroke-opacity:1" />
      </g>
    </g>
    <g
       transform="translate(398.66444,588.6609)"
       id="g122"
       style="fill:#ffffff;stroke:#000000;stroke-opacity:1">
      <g
         id="g120"
         style="fill:#ffffff;stroke:#000000;stroke-opacity:1">
        <path
           d="m 53.765625,0 h -16.8125 L 17.90625,-22.8125 V 0 H 3.765625 v -33.703125 h 16.8125 l 19.046875,22.6875 v -22.6875 h 14.140625 z m 0,0"
           id="path118"
           style="fill:#ffffff;stroke:#000000;stroke-opacity:1" />
      </g>
    </g>
    <g
       transform="translate(456.19996,588.6609)"
       id="g128"
       style="fill:#ffffff;stroke:#000000;stroke-opacity:1">
      <g
         id="g126"
         style="fill:#ffffff;stroke:#000000;stroke-opacity:1">
        <path
           d="m 25.484375,0.734375 c -8.335937,0 -14.464844,-1.71875 -18.390625,-5.15625 C 3.613281,-7.453125 1.875,-11.582031 1.875,-16.8125 c 0,-5.25 1.738281,-9.394531 5.21875,-12.4375 3.925781,-3.425781 10.054688,-5.140625 18.390625,-5.140625 4.75,0 8.695313,0.53125 11.84375,1.59375 3.144531,1.0625 5.613281,2.515625 7.40625,4.359375 1.789063,1.84375 3.019531,3.964844 3.6875,6.359375 H 33.28125 c -1.585938,-2.175781 -4.183594,-3.265625 -7.796875,-3.265625 -3.417969,0 -5.929687,0.980469 -7.53125,2.9375 -1.292969,1.585938 -1.9375,3.449219 -1.9375,5.59375 0,2.148438 0.644531,4 1.9375,5.5625 1.601563,1.960938 4.113281,2.9375 7.53125,2.9375 2.757813,0 4.832031,-0.238281 6.21875,-0.71875 1.382813,-0.476562 2.398437,-1.101562 3.046875,-1.875 H 29.21875 V -16.8125 H 48.421875 V 0.03125 h -5.875 L 41.34375,-3.234375 c -3.742188,2.648437 -9.027344,3.96875 -15.859375,3.96875 z m 0,0"
           id="path124"
           style="fill:#ffffff;stroke:#000000;stroke-opacity:1" />
      </g>
    </g>
    <g
       transform="translate(507.43923,588.6609)"
       id="g134"
       style="fill:#ffffff;stroke:#000000;stroke-opacity:1">
      <g
         id="g132"
         style="fill:#ffffff;stroke:#000000;stroke-opacity:1">
        <path
           d="M 43.109375,0 H 3.765625 V -33.703125 H 17.90625 V -8.34375 h 25.203125 z m 0,0"
           id="path130"
           style="fill:#ffffff;stroke:#000000;stroke-opacity:1" />
      </g>
    </g>
    <g
       transform="translate(551.4895,588.6609)"
       id="g140"
       style="fill:#ffffff;stroke:#000000;stroke-opacity:1">
      <g
         id="g138"
         style="fill:#ffffff;stroke:#000000;stroke-opacity:1">
        <path
           d="M 44.34375,0 H 3.765625 V -33.703125 H 42.5 V -25.375 H 17.90625 v 5.296875 H 38.6875 v 6.484375 H 17.90625 v 5.25 h 26.4375 z m 0,0"
           id="path136"
           style="fill:#ffffff;stroke:#000000;stroke-opacity:1" />
      </g>
    </g>
    <g
       transform="translate(597.72466,588.6609)"
       id="g146"
       style="fill:#ffffff;stroke:#000000;stroke-opacity:1">
      <g
         id="g144"
         style="fill:#ffffff;stroke:#000000;stroke-opacity:1">
        <path
           d="m 25.484375,0.734375 c -8.335937,0 -14.464844,-1.71875 -18.390625,-5.15625 C 3.613281,-7.441406 1.875,-11.570312 1.875,-16.8125 c 0,-5.25 1.738281,-9.394531 5.21875,-12.4375 3.925781,-3.414062 10.054688,-5.125 18.390625,-5.125 4.882813,0 8.925781,0.5625 12.125,1.6875 3.195313,1.117188 5.675781,2.648438 7.4375,4.59375 1.769531,1.9375 2.945313,4.164062 3.53125,6.671875 h -14.875 c -1.480469,-2.613281 -4.21875,-3.921875 -8.21875,-3.921875 -3.417969,0 -5.929687,0.984375 -7.53125,2.953125 -1.292969,1.574219 -1.9375,3.433594 -1.9375,5.578125 0,2.148438 0.644531,4 1.9375,5.5625 1.601563,1.96875 4.113281,2.953125 7.53125,2.953125 4,0 6.738281,-1.3125 8.21875,-3.9375 h 14.875 c -0.585937,2.523437 -1.761719,4.757813 -3.53125,6.703125 -1.761719,1.9375 -4.242187,3.46875 -7.4375,4.59375 -3.199219,1.113281 -7.242187,1.671875 -12.125,1.671875 z m 0,0"
           id="path142"
           style="fill:#ffffff;stroke:#000000;stroke-opacity:1" />
      </g>
    </g>
    <g
       transform="translate(648.18865,588.6609)"
       id="g152"
       style="fill:#ffffff;stroke:#000000;stroke-opacity:1">
      <g
         id="g150"
         style="fill:#ffffff;stroke:#000000;stroke-opacity:1">
        <path
           d="M 44.34375,0 H 3.765625 V -33.703125 H 42.5 V -25.375 H 17.90625 v 5.296875 H 38.6875 v 6.484375 H 17.90625 v 5.25 h 26.4375 z m 0,0"
           id="path148"
           style="fill:#ffffff;stroke:#000000;stroke-opacity:1" />
      </g>
    </g>
    <g
       transform="translate(694.42381,588.6609)"
       id="g158"
       style="fill:#ffffff;stroke:#000000;stroke-opacity:1">
      <g
         id="g156"
         style="fill:#ffffff;stroke:#000000;stroke-opacity:1">
        <path
           d="M 43.109375,0 H 3.765625 V -33.703125 H 17.90625 V -8.34375 h 25.203125 z m 0,0"
           id="path154"
           style="fill:#ffffff;stroke:#000000;stroke-opacity:1" />
      </g>
    </g>
    <g
       transform="translate(738.47408,588.6609)"
       id="g164"
       style="fill:#ffffff;stroke:#000000;stroke-opacity:1">
      <g
         id="g162"
         style="fill:#ffffff;stroke:#000000;stroke-opacity:1">
        <path
           d="M 43.109375,0 H 3.765625 V -33.703125 H 17.90625 V -8.34375 h 25.203125 z m 0,0"
           id="path160"
           style="fill:#ffffff;stroke:#000000;stroke-opacity:1" />
      </g>
    </g>
  </g>
</svg>
