<svg xmlns="http://www.w3.org/2000/svg" xmlns:xlink="http://www.w3.org/1999/xlink" width="4535" zoomAndPan="magnify" viewBox="0 0 3401.25 1417.500002" height="1889" preserveAspectRatio="xMidYMid meet" version="1.0"><defs><g/></defs><path stroke-linecap="butt" transform="matrix(0.749691, 0, 0, 0.749846, 955.86766, 277.993007)" fill="none" stroke-linejoin="miter" d="M -0.000630417 10.000965 L 1593.337589 10.000965 " stroke="#b0afb1" stroke-width="20" stroke-opacity="1" stroke-miterlimit="4"/><path stroke-linecap="butt" transform="matrix(0.749619, 0.000000000000000395, -0.000000000000000395, 0.749846, 526.959088, 574.365963)" fill="none" stroke-linejoin="miter" d="M 0.0024674 9.998482 L 1294.404135 9.998482 " stroke="#b0afb1" stroke-width="20" stroke-opacity="1" stroke-miterlimit="4"/><path stroke-linecap="butt" transform="matrix(0.749691, 0, 0, 0.749846, 1012.26135, 433.304941)" fill="none" stroke-linejoin="miter" d="M 0.000492012 10.00172 L 1593.333501 10.00172 " stroke="#b0afb1" stroke-width="20" stroke-opacity="1" stroke-miterlimit="4"/><path stroke-linecap="butt" transform="matrix(0.749691, 0, 0, 0.749846, 1203.625018, 371.110919)" fill="none" stroke-linejoin="miter" d="M -0.0000237096 10 L 1593.332985 10 " stroke="#b0afb1" stroke-width="20" stroke-opacity="1" stroke-miterlimit="4"/><path stroke-linecap="butt" transform="matrix(0.749691, 0, 0, 0.749846, 731.688537, 662.455495)" fill="none" stroke-linejoin="miter" d="M -0.0013828 9.998897 L 1593.336836 9.998897 " stroke="#b0afb1" stroke-width="20" stroke-opacity="1" stroke-miterlimit="4"/><path stroke-linecap="butt" transform="matrix(0.749691, 0, 0, 0.749846, 783.515294, 770.367458)" fill="none" stroke-linejoin="miter" d="M 0.000442123 10.001697 L 1593.333451 10.001697 " stroke="#b0afb1" stroke-width="20" stroke-opacity="1" stroke-miterlimit="4"/><path stroke-linecap="butt" transform="matrix(0.749691, 0, 0, 0.749846, 1070.689426, 850.572172)" fill="none" stroke-linejoin="miter" d="M -0.00256904 9.999578 L 1593.33565 9.999578 " stroke="#b0afb1" stroke-width="20" stroke-opacity="1" stroke-miterlimit="4"/><path fill="#55b27e" d="M 2117.949219 366.53125 C 2117.949219 204.496094 2241.152344 73.035156 2392.996094 73.035156 C 2545.070312 73.035156 2668.046875 204.496094 2668.046875 366.53125 C 2668.046875 528.804688 2545.070312 660.027344 2392.996094 660.027344 C 2241.152344 660.027344 2117.949219 528.804688 2117.949219 366.53125 Z M 2117.949219 366.53125 " fill-opacity="1" fill-rule="evenodd"/><path stroke-linecap="butt" transform="matrix(12.134859, 0, 0, 12.135461, 2110.666989, 65.752643)" fill="none" stroke-linejoin="round" d="M 0.600108 24.785099 C 0.600108 11.432895 10.752935 0.600102 23.265956 0.600102 C 35.79797 0.600102 45.932127 11.432895 45.932127 24.785099 C 45.932127 38.156938 35.79797 48.970096 23.265956 48.970096 C 10.752935 48.970096 0.600108 38.156938 0.600108 24.785099 " stroke="#000000" stroke-width="0.64" stroke-opacity="1" stroke-miterlimit="4"/><path fill="#009853" d="M 2622.199219 291.339844 C 2606.4375 240.878906 2606.4375 274.59375 2606.4375 324.808594 C 2606.4375 458.941406 2495.839844 559.363281 2353.460938 559.363281 C 2321.921875 559.363281 2274.390625 542.628906 2242.851562 525.894531 C 2227.089844 525.894531 2211.082031 525.894531 2227.089844 542.640625 C 2274.390625 592.84375 2337.699219 609.578125 2401.003906 609.578125 C 2527.367188 609.578125 2637.976562 509.15625 2637.976562 375.023438 C 2637.976562 341.542969 2637.976562 308.074219 2622.199219 291.339844 Z M 2622.199219 291.339844 " fill-opacity="1" fill-rule="evenodd"/><path fill="#00733b" d="M 2401.234375 609.578125 C 2527.609375 609.578125 2637.976562 509.15625 2637.976562 374.78125 C 2622.199219 408.496094 2574.910156 592.84375 2401.234375 609.578125 Z M 2401.234375 609.578125 " fill-opacity="1" fill-rule="evenodd"/><path fill="#a9d4b4" d="M 2448.78125 141.1875 C 2259.839844 124.453125 2196.777344 241.609375 2196.777344 325.292969 C 2181 342.039062 2196.777344 375.511719 2196.777344 392.246094 C 2212.539062 425.714844 2244.066406 475.6875 2307.128906 442.449219 C 2385.714844 425.714844 2385.714844 342.027344 2433.015625 358.761719 C 2543.128906 375.511719 2605.953125 291.824219 2558.90625 208.136719 C 2543.128906 174.667969 2511.601562 157.921875 2448.78125 141.1875 Z M 2448.78125 141.1875 " fill-opacity="1" fill-rule="evenodd"/><path fill="#ffffff" d="M 2244.066406 275.816406 C 2244.066406 248.148438 2265.421875 225.359375 2291.609375 225.359375 C 2318.050781 225.359375 2339.152344 248.160156 2339.152344 275.816406 C 2339.152344 303.703125 2318.039062 326.265625 2291.609375 326.265625 C 2265.410156 326.265625 2244.066406 303.703125 2244.066406 275.816406 Z M 2354.675781 232.152344 C 2354.675781 218.320312 2361.46875 206.914062 2369.722656 206.914062 C 2378.203125 206.914062 2384.746094 218.320312 2384.746094 232.152344 C 2384.746094 246.21875 2378.191406 257.371094 2369.710938 257.371094 C 2361.457031 257.371094 2354.664062 246.21875 2354.664062 232.152344 Z M 2244.066406 375.753906 C 2244.066406 366.289062 2254.5 358.277344 2267.363281 358.277344 C 2280.214844 358.277344 2290.640625 366.289062 2290.640625 375.753906 C 2290.640625 385.449219 2280.203125 393.214844 2267.351562 393.214844 C 2254.488281 393.214844 2244.066406 385.449219 2244.066406 375.742188 Z M 2244.066406 375.753906 " fill-opacity="1" fill-rule="evenodd"/><path stroke-linecap="round" transform="matrix(12.134859, 0, 0, 12.135461, 2110.666989, 65.752643)" fill="none" stroke-linejoin="round" d="M 0.600108 24.785099 C 0.600108 11.432895 10.752935 0.600102 23.265956 0.600102 C 35.79797 0.600102 45.932127 11.432895 45.932127 24.785099 C 45.932127 38.156938 35.79797 48.970096 23.265956 48.970096 C 10.752935 48.970096 0.600108 38.156938 0.600108 24.785099 " stroke="#000000" stroke-width="0.32" stroke-opacity="1" stroke-miterlimit="4"/><path fill="#e2007a" d="M 1933.53125 673.238281 C 1933.53125 544.261719 2028.902344 439.371094 2146.414062 439.371094 C 2264.140625 439.371094 2359.3125 544.261719 2359.3125 673.238281 C 2359.3125 802.410156 2264.132812 907.101562 2146.414062 907.101562 C 2028.902344 907.101562 1933.53125 802.410156 1933.53125 673.238281 Z M 1933.53125 673.238281 " fill-opacity="1" fill-rule="evenodd"/><path fill="#ac005e" d="M 2322.011719 613.414062 C 2309.390625 573.007812 2309.390625 600.003906 2309.390625 640.214844 C 2309.390625 747.628906 2221.402344 828.046875 2120.585938 828.046875 C 2082.898438 828.046875 2045.21875 814.644531 2032.585938 801.246094 C 2007.339844 801.246094 2007.339844 801.246094 2019.960938 814.65625 C 2045.21875 854.859375 2095.53125 868.261719 2145.832031 868.261719 C 2246.453125 868.261719 2334.453125 787.84375 2334.453125 680.429688 C 2334.453125 653.617188 2334.453125 626.816406 2322.011719 613.414062 Z M 2322.011719 613.414062 " fill-opacity="1" fill-rule="evenodd"/><path fill="#640033" d="M 2147.191406 868.261719 C 2247.230469 868.261719 2334.453125 787.84375 2334.453125 680.234375 C 2334.453125 707.230469 2297.152344 854.859375 2147.191406 868.261719 Z M 2147.191406 868.261719 " fill-opacity="1" fill-rule="evenodd"/><path fill="#ef91b8" d="M 2183.714844 493.171875 C 2045.996094 479.769531 1983.257812 573.007812 1983.257812 639.632812 L 1983.257812 693.054688 C 1995.882812 719.660156 2020.933594 759.484375 2083.480469 732.859375 C 2133.597656 719.652344 2133.597656 653.023438 2171.089844 666.230469 C 2258.882812 679.640625 2308.804688 613.015625 2283.945312 546.386719 C 2258.882812 519.78125 2233.832031 506.5625 2196.144531 493.164062 Z M 2183.714844 493.171875 " fill-opacity="1" fill-rule="evenodd"/><path fill="#ffffff" d="M 2020.546875 600.207031 C 2020.546875 578.449219 2040.359375 560.578125 2064.441406 560.578125 C 2088.730469 560.578125 2108.347656 578.449219 2108.347656 600.207031 C 2108.347656 622.148438 2088.730469 639.828125 2064.441406 639.828125 C 2040.359375 639.828125 2020.546875 622.148438 2020.546875 600.207031 Z M 2108.347656 566.019531 C 2108.347656 554.941406 2114.179688 545.816406 2121.167969 545.816406 C 2128.359375 545.816406 2133.996094 554.949219 2133.996094 566.019531 C 2133.996094 577.28125 2128.359375 586.214844 2121.167969 586.214844 C 2114.171875 586.214844 2108.339844 577.28125 2108.339844 566.019531 Z M 2033.753906 680.234375 C 2033.753906 673.042969 2039.195312 667.019531 2045.804688 667.019531 C 2052.605469 667.019531 2057.84375 673.042969 2057.84375 680.234375 C 2057.84375 687.621094 2052.597656 693.441406 2045.792969 693.441406 C 2039.195312 693.441406 2033.753906 687.609375 2033.753906 680.226562 Z M 2033.753906 680.234375 " fill-opacity="1" fill-rule="evenodd"/><path stroke-linecap="round" transform="matrix(9.718164, 0, 0, 9.718062, 1927.698607, 433.542194)" fill="none" stroke-linejoin="round" d="M 0.600179 24.665009 C 0.600179 11.393169 10.413874 0.599801 22.505841 0.599801 C 34.619916 0.599801 44.413111 11.393169 44.413111 24.665009 C 44.413111 37.956946 34.619112 48.729815 22.505841 48.729815 C 10.413874 48.729815 0.600179 37.956946 0.600179 24.665009 " stroke="#000000" stroke-width="0.64" stroke-opacity="1" stroke-miterlimit="4"/><path fill="#197896" d="M 1436.394531 528.394531 C 1436.394531 411.359375 1525.847656 316.183594 1636.09375 316.183594 C 1746.507812 316.183594 1835.792969 411.359375 1835.792969 528.394531 C 1835.792969 645.605469 1746.507812 740.605469 1636.09375 740.605469 C 1525.847656 740.605469 1436.394531 645.605469 1436.394531 528.394531 Z M 1436.394531 528.394531 " fill-opacity="1" fill-rule="evenodd"/><path fill="#003c5a" d="M 1800.578125 472.699219 C 1789.300781 436.03125 1789.300781 460.527344 1789.300781 497.019531 C 1789.300781 594.496094 1709.707031 667.457031 1607.566406 667.457031 C 1585.019531 667.457031 1550.863281 655.296875 1528.140625 643.136719 C 1516.871094 643.136719 1505.425781 643.136719 1516.871094 655.304688 C 1550.863281 691.785156 1596.296875 703.945312 1641.734375 703.945312 C 1732.421875 703.945312 1811.847656 630.976562 1811.847656 533.507812 C 1811.847656 509.179688 1811.847656 484.859375 1800.570312 472.699219 Z M 1800.578125 472.699219 " fill-opacity="1" fill-rule="evenodd"/><path fill="#00101c" d="M 1642.078125 703.945312 C 1732.773438 703.945312 1811.847656 631.503906 1811.847656 534.742188 C 1800.570312 559.0625 1766.589844 691.960938 1642.078125 703.945312 Z M 1642.078125 703.945312 " fill-opacity="1" fill-rule="evenodd"/><path fill="#71a4ba" d="M 1676.070312 363.589844 C 1539.242188 351.429688 1493.628906 436.558594 1493.628906 497.371094 C 1482.175781 509.539062 1493.628906 533.859375 1493.628906 546.019531 C 1505.074219 570.339844 1527.789062 606.65625 1573.398438 582.5 C 1630.457031 570.339844 1630.457031 509.53125 1664.625 521.699219 C 1744.570312 533.859375 1790.007812 473.050781 1755.847656 412.238281 C 1744.570312 387.917969 1721.679688 375.757812 1676.070312 363.589844 Z M 1676.070312 363.589844 " fill-opacity="1" fill-rule="evenodd"/><path fill="#ffffff" d="M 1527.257812 461.417969 C 1527.257812 441.320312 1542.765625 424.753906 1561.777344 424.753906 C 1580.976562 424.753906 1596.296875 441.320312 1596.296875 461.417969 C 1596.296875 481.683594 1580.96875 498.074219 1561.777344 498.074219 C 1542.757812 498.074219 1527.257812 481.683594 1527.257812 461.417969 Z M 1608.273438 431.101562 C 1608.273438 421.050781 1613.207031 412.769531 1619.195312 412.769531 C 1625.355469 412.769531 1630.105469 421.058594 1630.105469 431.101562 C 1630.105469 441.320312 1625.347656 449.425781 1619.1875 449.425781 C 1613.195312 449.425781 1608.261719 441.320312 1608.261719 431.101562 Z M 1527.257812 534.035156 C 1527.257812 527.160156 1535.1875 521.339844 1544.878906 521.339844 C 1554.730469 521.339844 1562.484375 527.160156 1562.484375 534.035156 C 1562.484375 541.089844 1554.730469 546.726562 1544.871094 546.726562 C 1535.179688 546.726562 1527.257812 541.082031 1527.257812 534.027344 Z M 1527.257812 534.035156 " fill-opacity="1" fill-rule="evenodd"/><path stroke-linecap="round" transform="matrix(8.810529, 0, 0, 8.818224, 1431.109527, 310.891723)" fill="none" stroke-linejoin="round" d="M 0.599851 24.665149 C 0.599851 11.393184 10.752831 0.600106 23.265825 0.600106 C 35.797883 0.600106 45.931798 11.393184 45.931798 24.665149 C 45.931798 37.957047 35.797883 48.730191 23.265825 48.730191 C 10.752831 48.730191 0.599851 37.957047 0.599851 24.665149 " stroke="#000000" stroke-width="0.64" stroke-opacity="1" stroke-miterlimit="4"/><g fill="#d3d3d3" fill-opacity="1"><g transform="translate(482.384586, 1242.791201)"><g><path d="M 160.640625 0 L 117.515625 0 C 115.535156 -2.726562 114.144531 -6.21875 113.34375 -10.46875 C 112.632812 -13.75 111.570312 -16.96875 110.15625 -20.125 C 108.738281 -23.28125 106.296875 -25.90625 102.828125 -28 C 99.367188 -30.101562 94.226562 -31.234375 87.40625 -31.390625 L 57.765625 -31.390625 L 57.765625 0 L 12.125 0 L 12.125 -108.796875 L 86.34375 -108.796875 C 104.09375 -108.796875 118.410156 -107.46875 129.296875 -104.8125 C 140.191406 -102.15625 148.140625 -97.984375 153.140625 -92.296875 C 158.140625 -86.617188 160.640625 -79.203125 160.640625 -70.046875 C 160.640625 -62.421875 158.910156 -56.003906 155.453125 -50.796875 C 151.992188 -45.585938 146.523438 -41.46875 139.046875 -38.4375 C 146.273438 -35.457031 150.960938 -31.878906 153.109375 -27.703125 C 155.253906 -23.535156 156.578125 -18.953125 157.078125 -13.953125 C 157.585938 -9.503906 158.773438 -4.851562 160.640625 0 Z M 57.765625 -58.21875 L 83.84375 -58.296875 C 91.125 -58.296875 96.863281 -58.625 101.0625 -59.28125 C 105.257812 -59.9375 108.351562 -60.832031 110.34375 -61.96875 C 112.34375 -63.113281 113.617188 -64.378906 114.171875 -65.765625 C 114.734375 -67.160156 115.015625 -68.585938 115.015625 -70.046875 C 115.015625 -71.515625 114.734375 -72.957031 114.171875 -74.375 C 113.617188 -75.789062 112.34375 -77.066406 110.34375 -78.203125 C 108.351562 -79.335938 105.257812 -80.234375 101.0625 -80.890625 C 96.863281 -81.546875 91.125 -81.875 83.84375 -81.875 L 57.765625 -81.875 Z M 57.765625 -58.21875 "/></g></g></g><g fill="#d3d3d3" fill-opacity="1"><g transform="translate(649.097266, 1242.791201)"><g><path d="M 182.703125 0 L 136.46875 0 L 126.234375 -17.8125 L 57.625 -17.8125 L 47.390625 0 L 1.140625 0 L 70.734375 -108.71875 L 113.109375 -108.71875 Z M 110.84375 -44.734375 L 91.96875 -77.703125 L 73.015625 -44.734375 Z M 110.84375 -44.734375 "/></g></g></g><g fill="#d3d3d3" fill-opacity="1"><g transform="translate(832.943673, 1242.791201)"><g><path d="M 57.765625 0 L 12.125 0 L 12.125 -108.796875 L 86.34375 -108.796875 C 104.09375 -108.796875 118.410156 -107.46875 129.296875 -104.8125 C 140.191406 -102.15625 148.140625 -97.984375 153.140625 -92.296875 C 158.140625 -86.617188 160.640625 -79.203125 160.640625 -70.046875 C 160.640625 -60.953125 158.140625 -53.5625 153.140625 -47.875 C 148.140625 -42.1875 140.191406 -38.015625 129.296875 -35.359375 C 118.410156 -32.710938 104.09375 -31.390625 86.34375 -31.390625 L 57.765625 -31.390625 Z M 57.765625 -58.21875 L 83.84375 -58.296875 C 91.125 -58.296875 96.863281 -58.585938 101.0625 -59.171875 C 105.257812 -59.753906 108.351562 -60.578125 110.34375 -61.640625 C 112.34375 -62.703125 113.617188 -63.953125 114.171875 -65.390625 C 114.734375 -66.828125 115.015625 -68.378906 115.015625 -70.046875 C 115.015625 -71.765625 114.734375 -73.34375 114.171875 -74.78125 C 113.617188 -76.226562 112.34375 -77.484375 110.34375 -78.546875 C 108.351562 -79.609375 105.257812 -80.425781 101.0625 -81 C 96.863281 -81.582031 91.125 -81.875 83.84375 -81.875 L 57.765625 -81.875 Z M 57.765625 -58.21875 "/></g></g></g><g fill="#d3d3d3" fill-opacity="1"><g transform="translate(999.656377, 1242.791201)"><g><path d="M 57.765625 0 L 12.125 0 L 12.125 -108.796875 L 57.765625 -108.796875 Z M 57.765625 0 "/></g></g></g><g fill="#d3d3d3" fill-opacity="1"><g transform="translate(1069.555916, 1242.791201)"><g><path d="M 84.90625 0 L 12.125 0 L 12.125 -108.796875 L 84.90625 -108.796875 C 114.675781 -108.796875 136.082031 -104.625 149.125 -96.28125 C 159.632812 -89.5625 165.625 -80.414062 167.09375 -68.84375 C 167.75 -63.832031 168.078125 -59.003906 168.078125 -54.359375 C 168.078125 -49.753906 167.757812 -44.9375 167.125 -39.90625 C 166.5 -34.882812 164.820312 -30.007812 162.09375 -25.28125 C 159.363281 -20.550781 155.023438 -16.289062 149.078125 -12.5 C 143.140625 -8.71875 135.003906 -5.6875 124.671875 -3.40625 C 114.335938 -1.132812 101.082031 0 84.90625 0 Z M 80.59375 -26.90625 C 103.789062 -26.90625 116.90625 -32.769531 119.9375 -44.5 C 120.75 -47.789062 121.15625 -51.078125 121.15625 -54.359375 C 121.15625 -57.691406 120.734375 -60.988281 119.890625 -64.25 C 119.054688 -67.507812 117.285156 -70.46875 114.578125 -73.125 C 111.878906 -75.78125 107.828125 -77.898438 102.421875 -79.484375 C 97.015625 -81.078125 89.738281 -81.875 80.59375 -81.875 L 57.765625 -81.875 L 57.765625 -26.90625 Z M 80.59375 -26.90625 "/></g></g></g><g fill="#d3d3d3" fill-opacity="1"><g transform="translate(1243.698286, 1242.791201)"><g><path d="M 71.875 2.34375 C 57.164062 2.34375 45.3125 0.765625 36.3125 -2.390625 C 27.3125 -5.546875 20.460938 -9.890625 15.765625 -15.421875 C 11.066406 -20.960938 7.910156 -27.347656 6.296875 -34.578125 L 54.734375 -34.578125 C 58.328125 -29.421875 64.039062 -26.84375 71.875 -26.84375 C 79.707031 -26.84375 85.414062 -29.421875 89 -34.578125 C 89.300781 -35.078125 89.453125 -35.53125 89.453125 -35.9375 C 89.453125 -37.300781 87.644531 -38.320312 84.03125 -39 C 80.425781 -39.6875 75.035156 -40.207031 67.859375 -40.5625 C 58.804688 -40.96875 49.300781 -41.925781 39.34375 -43.4375 C 17.15625 -46.875 6.0625 -55.796875 6.0625 -70.203125 C 6.0625 -71.410156 6.140625 -72.695312 6.296875 -74.0625 C 7.910156 -81.289062 11.066406 -87.671875 15.765625 -93.203125 C 20.460938 -98.742188 27.3125 -103.09375 36.3125 -106.25 C 45.3125 -109.40625 57.164062 -110.984375 71.875 -110.984375 C 86.582031 -110.984375 98.429688 -109.40625 107.421875 -106.25 C 116.421875 -103.09375 123.269531 -98.742188 127.96875 -93.203125 C 132.675781 -87.671875 135.835938 -81.289062 137.453125 -74.0625 L 89 -74.0625 C 85.414062 -79.21875 79.707031 -81.796875 71.875 -81.796875 C 64.039062 -81.796875 58.328125 -79.21875 54.734375 -74.0625 C 54.484375 -73.664062 54.359375 -73.289062 54.359375 -72.9375 C 54.359375 -71.71875 56.085938 -70.816406 59.546875 -70.234375 C 63.015625 -69.660156 68.117188 -69.171875 74.859375 -68.765625 C 81.609375 -68.359375 88.796875 -67.695312 96.421875 -66.78125 C 104.054688 -65.875 111.195312 -64.296875 117.84375 -62.046875 C 124.5 -59.796875 129.695312 -56.472656 133.4375 -52.078125 C 136.363281 -48.691406 137.828125 -44.398438 137.828125 -39.203125 C 137.828125 -37.734375 137.703125 -36.191406 137.453125 -34.578125 C 135.835938 -27.347656 132.675781 -20.960938 127.96875 -15.421875 C 123.269531 -9.890625 116.421875 -5.546875 107.421875 -2.390625 C 98.429688 0.765625 86.582031 2.34375 71.875 2.34375 Z M 71.875 2.34375 "/></g></g></g><g fill="#d3d3d3" fill-opacity="1"><g transform="translate(1387.59131, 1242.791201)"><g><path d="M 4.546875 -44.875 L 4.546875 -63 L 74.296875 -63 L 74.296875 -44.875 Z M 4.546875 -44.875 "/></g></g></g><g fill="#d3d3d3" fill-opacity="1"><g transform="translate(1466.436778, 1242.791201)"><g><path d="M 71.875 2.34375 C 57.164062 2.34375 45.3125 0.765625 36.3125 -2.390625 C 27.3125 -5.546875 20.460938 -9.890625 15.765625 -15.421875 C 11.066406 -20.960938 7.910156 -27.347656 6.296875 -34.578125 L 54.734375 -34.578125 C 58.328125 -29.421875 64.039062 -26.84375 71.875 -26.84375 C 79.707031 -26.84375 85.414062 -29.421875 89 -34.578125 C 89.300781 -35.078125 89.453125 -35.53125 89.453125 -35.9375 C 89.453125 -37.300781 87.644531 -38.320312 84.03125 -39 C 80.425781 -39.6875 75.035156 -40.207031 67.859375 -40.5625 C 58.804688 -40.96875 49.300781 -41.925781 39.34375 -43.4375 C 17.15625 -46.875 6.0625 -55.796875 6.0625 -70.203125 C 6.0625 -71.410156 6.140625 -72.695312 6.296875 -74.0625 C 7.910156 -81.289062 11.066406 -87.671875 15.765625 -93.203125 C 20.460938 -98.742188 27.3125 -103.09375 36.3125 -106.25 C 45.3125 -109.40625 57.164062 -110.984375 71.875 -110.984375 C 86.582031 -110.984375 98.429688 -109.40625 107.421875 -106.25 C 116.421875 -103.09375 123.269531 -98.742188 127.96875 -93.203125 C 132.675781 -87.671875 135.835938 -81.289062 137.453125 -74.0625 L 89 -74.0625 C 85.414062 -79.21875 79.707031 -81.796875 71.875 -81.796875 C 64.039062 -81.796875 58.328125 -79.21875 54.734375 -74.0625 C 54.484375 -73.664062 54.359375 -73.289062 54.359375 -72.9375 C 54.359375 -71.71875 56.085938 -70.816406 59.546875 -70.234375 C 63.015625 -69.660156 68.117188 -69.171875 74.859375 -68.765625 C 81.609375 -68.359375 88.796875 -67.695312 96.421875 -66.78125 C 104.054688 -65.875 111.195312 -64.296875 117.84375 -62.046875 C 124.5 -59.796875 129.695312 -56.472656 133.4375 -52.078125 C 136.363281 -48.691406 137.828125 -44.398438 137.828125 -39.203125 C 137.828125 -37.734375 137.703125 -36.191406 137.453125 -34.578125 C 135.835938 -27.347656 132.675781 -20.960938 127.96875 -15.421875 C 123.269531 -9.890625 116.421875 -5.546875 107.421875 -2.390625 C 98.429688 0.765625 86.582031 2.34375 71.875 2.34375 Z M 71.875 2.34375 "/></g></g></g><g fill="#d3d3d3" fill-opacity="1"><g transform="translate(1610.329712, 1242.791201)"><g><path d="M 57.765625 0 L 12.125 0 L 12.125 -108.796875 L 57.765625 -108.796875 Z M 57.765625 0 "/></g></g></g><g fill="#d3d3d3" fill-opacity="1"><g transform="translate(1680.229207, 1242.791201)"><g><path d="M 173.53125 0 L 119.25 0 L 57.765625 -73.609375 L 57.765625 0 L 12.125 0 L 12.125 -108.796875 L 66.40625 -108.796875 L 127.890625 -35.5625 L 127.890625 -108.796875 L 173.53125 -108.796875 Z M 173.53125 0 "/></g></g></g><g fill="#d3d3d3" fill-opacity="1"><g transform="translate(1865.895099, 1242.791201)"><g><path d="M 82.25 2.34375 C 55.363281 2.34375 35.578125 -3.1875 22.890625 -14.25 C 11.671875 -24.050781 6.0625 -37.394531 6.0625 -54.28125 C 6.0625 -71.21875 11.671875 -84.585938 22.890625 -94.390625 C 35.578125 -105.453125 55.363281 -110.984375 82.25 -110.984375 C 97.570312 -110.984375 110.3125 -109.265625 120.46875 -105.828125 C 130.625 -102.398438 138.59375 -97.710938 144.375 -91.765625 C 150.164062 -85.828125 154.125 -78.992188 156.25 -71.265625 L 107.421875 -71.265625 C 102.316406 -78.285156 93.925781 -81.796875 82.25 -81.796875 C 71.238281 -81.796875 63.128906 -78.640625 57.921875 -72.328125 C 53.773438 -67.222656 51.703125 -61.207031 51.703125 -54.28125 C 51.703125 -47.351562 53.773438 -41.363281 57.921875 -36.3125 C 63.128906 -30 71.238281 -26.84375 82.25 -26.84375 C 91.144531 -26.84375 97.828125 -27.613281 102.296875 -29.15625 C 106.773438 -30.695312 110.050781 -32.703125 112.125 -35.171875 L 94.3125 -35.171875 L 94.3125 -54.28125 L 156.25 -54.28125 L 156.25 0.078125 L 137.296875 0.078125 L 133.4375 -10.46875 C 121.351562 -1.925781 104.289062 2.34375 82.25 2.34375 Z M 82.25 2.34375 "/></g></g></g><g fill="#d3d3d3" fill-opacity="1"><g transform="translate(2031.24321, 1242.791201)"><g><path d="M 139.125 0 L 12.125 0 L 12.125 -108.796875 L 57.765625 -108.796875 L 57.765625 -26.90625 L 139.125 -26.90625 Z M 139.125 0 "/></g></g></g><g fill="#d3d3d3" fill-opacity="1"><g transform="translate(2173.392424, 1242.791201)"><g><path d="M 143.140625 0 L 12.125 0 L 12.125 -108.796875 L 137.140625 -108.796875 L 137.140625 -81.875 L 57.765625 -81.875 L 57.765625 -64.828125 L 124.859375 -64.828125 L 124.859375 -43.890625 L 57.765625 -43.890625 L 57.765625 -26.90625 L 143.140625 -26.90625 Z M 143.140625 0 "/></g></g></g><g fill="#d3d3d3" fill-opacity="1"><g transform="translate(2322.592308, 1242.791201)"><g><path d="M 82.25 2.34375 C 55.363281 2.34375 35.578125 -3.1875 22.890625 -14.25 C 11.671875 -24.007812 6.0625 -37.351562 6.0625 -54.28125 C 6.0625 -71.21875 11.671875 -84.585938 22.890625 -94.390625 C 35.578125 -105.410156 55.363281 -110.921875 82.25 -110.921875 C 98.019531 -110.921875 111.0625 -109.113281 121.375 -105.5 C 131.6875 -101.882812 139.695312 -96.941406 145.40625 -90.671875 C 151.125 -84.398438 154.914062 -77.222656 156.78125 -69.140625 L 108.796875 -69.140625 C 103.992188 -77.578125 95.144531 -81.796875 82.25 -81.796875 C 71.238281 -81.796875 63.128906 -78.613281 57.921875 -72.25 C 53.773438 -67.195312 51.703125 -61.207031 51.703125 -54.28125 C 51.703125 -47.351562 53.773438 -41.363281 57.921875 -36.3125 C 63.128906 -29.945312 71.238281 -26.765625 82.25 -26.765625 C 95.144531 -26.765625 103.992188 -31.007812 108.796875 -39.5 L 156.78125 -39.5 C 154.914062 -31.363281 151.125 -24.160156 145.40625 -17.890625 C 139.695312 -11.617188 131.6875 -6.675781 121.375 -3.0625 C 111.0625 0.539062 98.019531 2.34375 82.25 2.34375 Z M 82.25 2.34375 "/></g></g></g><g fill="#d3d3d3" fill-opacity="1"><g transform="translate(2485.438432, 1242.791201)"><g><path d="M 143.140625 0 L 12.125 0 L 12.125 -108.796875 L 137.140625 -108.796875 L 137.140625 -81.875 L 57.765625 -81.875 L 57.765625 -64.828125 L 124.859375 -64.828125 L 124.859375 -43.890625 L 57.765625 -43.890625 L 57.765625 -26.90625 L 143.140625 -26.90625 Z M 143.140625 0 "/></g></g></g><g fill="#d3d3d3" fill-opacity="1"><g transform="translate(2634.638317, 1242.791201)"><g><path d="M 139.125 0 L 12.125 0 L 12.125 -108.796875 L 57.765625 -108.796875 L 57.765625 -26.90625 L 139.125 -26.90625 Z M 139.125 0 "/></g></g></g><g fill="#d3d3d3" fill-opacity="1"><g transform="translate(2776.78753, 1242.791201)"><g><path d="M 139.125 0 L 12.125 0 L 12.125 -108.796875 L 57.765625 -108.796875 L 57.765625 -26.90625 L 139.125 -26.90625 Z M 139.125 0 "/></g></g></g><path stroke-linecap="butt" transform="matrix(0.749846, 0, 0, 0.749846, 302.808258, 1086.073454)" fill="none" stroke-linejoin="miter" d="M 453.734432 209.002357 L 396.201761 209.002357 C 393.571012 205.360983 391.721673 200.708984 390.643326 195.046361 C 389.695214 190.665251 388.283465 186.367492 386.392451 182.158292 C 384.506647 177.943884 381.255978 174.437954 376.640445 171.640503 C 372.019702 168.843053 365.164125 167.342744 356.063294 167.139577 L 316.529118 167.139577 L 316.529118 209.002357 L 255.662428 209.002357 L 255.662428 63.910004 L 354.646336 63.910004 C 378.307454 63.910004 397.399924 65.681201 411.923746 69.218387 C 426.452777 72.755574 437.048707 78.319218 443.721956 85.898903 C 450.395204 93.483797 453.734432 103.376457 453.734432 115.576884 C 453.734432 125.756062 451.426666 134.315115 446.805923 141.259252 C 442.19039 148.19818 434.892014 153.694102 424.916003 157.736601 C 434.558612 161.716586 440.809898 166.483192 443.675071 172.046837 C 446.535034 177.605272 448.306232 183.721114 448.983455 190.394362 C 449.655468 196.327874 451.239127 202.527067 453.734432 209.002357 Z M 316.529118 131.350963 L 351.312317 131.246775 C 361.017438 131.246775 368.664845 130.809185 374.259746 129.934005 C 379.854648 129.058825 383.985706 127.860662 386.647712 126.344725 C 389.309718 124.828788 391.013194 123.140941 391.752929 121.286392 C 392.492665 119.437054 392.867742 117.530411 392.867742 115.576884 C 392.867742 113.623357 392.492665 111.701087 391.752929 109.810073 C 391.013194 107.924268 389.309718 106.220793 386.647712 104.704856 C 383.985706 103.188919 379.854648 101.995965 374.259746 101.115576 C 368.664845 100.240395 361.017438 99.802805 351.312317 99.802805 L 316.529118 99.802805 Z M 705.484148 209.002357 L 643.81 209.002357 L 630.161358 185.237051 L 538.658156 185.237051 L 525.004305 209.002357 L 463.330157 209.002357 L 556.146129 64.008982 L 612.668176 64.008982 Z M 609.636302 149.344249 L 584.459247 105.36645 L 559.183213 149.344249 Z M 784.036769 209.002357 L 723.170079 209.002357 L 723.170079 63.910004 L 822.153987 63.910004 C 845.815106 63.910004 864.907576 65.681201 879.431398 69.218387 C 893.960429 72.755574 904.556359 78.319218 911.229607 85.898903 C 917.902855 93.483797 921.242084 103.376457 921.242084 115.576884 C 921.242084 127.709589 917.902855 137.565784 911.229607 145.150678 C 904.556359 152.735572 893.960429 158.294007 879.431398 161.831193 C 864.907576 165.373589 845.815106 167.139577 822.153987 167.139577 L 784.036769 167.139577 Z M 784.036769 131.350963 L 818.819968 131.246775 C 828.52509 131.246775 836.177706 130.861279 841.772607 130.085078 C 847.362299 129.308876 851.493357 128.214901 854.155364 126.797943 C 856.81737 125.380985 858.520845 123.713975 859.260581 121.791705 C 860.005526 119.874644 860.375393 117.8013 860.375393 115.576884 C 860.375393 113.284746 860.005526 111.180146 859.260581 109.257876 C 858.520845 107.335605 856.81737 105.668596 854.155364 104.251637 C 851.493357 102.834679 847.362299 101.740704 841.772607 100.964503 C 836.177706 100.188301 828.52509 99.802805 818.819968 99.802805 L 784.036769 99.802805 Z M 1006.368974 209.002357 L 945.497074 209.002357 L 945.497074 63.910004 L 1006.368974 63.910004 Z M 1135.781018 209.002357 L 1038.719381 209.002357 L 1038.719381 63.910004 L 1135.781018 63.910004 C 1175.481896 63.910004 1204.029436 69.468439 1221.418431 80.590519 C 1235.442149 89.555905 1243.428168 101.756332 1245.381695 117.1918 C 1246.262084 123.865048 1246.699674 130.303873 1246.699674 136.503065 C 1246.699674 142.639744 1246.277712 149.057732 1245.433789 155.767446 C 1244.589865 162.47195 1242.349821 168.978497 1238.708447 175.281877 C 1235.072282 181.585258 1229.289842 187.263509 1221.371546 192.316632 C 1213.448041 197.374965 1202.59685 201.417463 1188.812763 204.449337 C 1175.028677 207.481211 1157.353165 209.002357 1135.781018 209.002357 Z M 1130.019416 173.104346 C 1160.958074 173.104346 1178.451256 165.285029 1182.493755 149.651604 C 1183.572102 145.270494 1184.11388 140.884175 1184.11388 136.503065 C 1184.11388 132.054233 1183.556474 127.657495 1182.441661 123.312851 C 1181.332058 118.962998 1178.972197 115.019478 1175.367289 111.482292 C 1171.757171 107.939896 1166.349808 105.111189 1159.139991 102.985752 C 1151.924965 100.865524 1142.219843 99.802805 1130.019416 99.802805 L 1099.586071 99.802805 L 1099.586071 173.104346 Z M 1350.627308 212.13321 C 1331.013897 212.13321 1315.208562 210.02861 1303.211302 205.814201 C 1291.208832 201.599793 1282.076745 195.806934 1275.80983 188.425207 C 1269.537707 181.04348 1265.328507 172.531311 1263.171813 162.893912 L 1327.778857 162.893912 C 1332.5663 169.770327 1340.182451 173.208534 1350.627308 173.208534 C 1361.077375 173.208534 1368.693525 169.770327 1373.480969 162.893912 C 1373.882093 162.221899 1374.08526 161.612398 1374.08526 161.075829 C 1374.08526 159.252538 1371.678514 157.887673 1366.854605 156.981237 C 1362.035905 156.069591 1354.841717 155.37674 1345.272039 154.907894 C 1333.207057 154.366116 1320.532574 153.084602 1307.2538 151.063353 C 1277.664379 146.479076 1262.864458 134.586004 1262.864458 115.373718 C 1262.864458 113.753593 1262.968647 112.034489 1263.171813 110.216406 C 1265.328507 100.579007 1269.537707 92.066839 1275.80983 84.685111 C 1282.076745 77.308594 1291.208832 71.510526 1303.211302 67.296117 C 1315.208562 63.081708 1331.013897 60.977108 1350.627308 60.977108 C 1370.245928 60.977108 1386.051263 63.081708 1398.048524 67.296117 C 1410.045784 71.510526 1419.18308 77.308594 1425.449995 84.685111 C 1431.716909 92.066839 1435.931318 100.579007 1438.088012 110.216406 L 1373.480969 110.216406 C 1368.693525 103.339992 1361.077375 99.901784 1350.627308 99.901784 C 1340.182451 99.901784 1332.5663 103.339992 1327.778857 110.216406 C 1327.440245 110.758185 1327.273544 111.263497 1327.273544 111.732343 C 1327.273544 113.352468 1329.581311 114.545422 1334.196844 115.321624 C 1338.817586 116.097825 1345.626279 116.75421 1354.622922 117.295988 C 1363.619565 117.832557 1373.21008 118.707737 1383.389257 119.921528 C 1393.568435 121.13532 1403.086018 123.245129 1411.952426 126.240537 C 1420.813624 129.241154 1427.742133 133.674358 1432.727534 139.540148 C 1436.639797 144.056703 1438.593324 149.781839 1438.593324 156.725976 C 1438.593324 158.679503 1438.426623 160.737218 1438.088012 162.893912 C 1435.931318 172.531311 1431.716909 181.04348 1425.449995 188.425207 C 1419.18308 195.806934 1410.045784 201.599793 1398.048524 205.814201 C 1386.051263 210.02861 1370.245928 212.13321 1350.627308 212.13321 Z M 1452.742069 149.146292 L 1452.742069 124.979861 L 1545.761208 124.979861 L 1545.761208 149.146292 Z M 1647.672802 212.13321 C 1628.059392 212.13321 1612.254056 210.02861 1600.256796 205.814201 C 1588.254326 201.599793 1579.122239 195.806934 1572.855325 188.425207 C 1566.58841 181.04348 1562.374001 172.531311 1560.217308 162.893912 L 1624.824351 162.893912 C 1629.611794 169.770327 1637.227945 173.208534 1647.672802 173.208534 C 1658.122869 173.208534 1665.73902 169.770327 1670.526463 162.893912 C 1670.927587 162.221899 1671.130754 161.612398 1671.130754 161.075829 C 1671.130754 159.252538 1668.724009 157.887673 1663.900099 156.981237 C 1659.0814 156.069591 1651.887211 155.37674 1642.317534 154.907894 C 1630.252551 154.366116 1617.578068 153.084602 1604.299295 151.063353 C 1574.709873 146.479076 1559.915162 134.586004 1559.915162 115.373718 C 1559.915162 113.753593 1560.014141 112.034489 1560.217308 110.216406 C 1562.374001 100.579007 1566.58841 92.066839 1572.855325 84.685111 C 1579.122239 77.308594 1588.254326 71.510526 1600.256796 67.296117 C 1612.254056 63.081708 1628.059392 60.977108 1647.672802 60.977108 C 1667.291422 60.977108 1683.096758 63.081708 1695.094018 67.296117 C 1707.091278 71.510526 1716.228575 77.308594 1722.495489 84.685111 C 1728.762404 92.066839 1732.976813 100.579007 1735.133506 110.216406 L 1670.526463 110.216406 C 1665.73902 103.339992 1658.122869 99.901784 1647.672802 99.901784 C 1637.227945 99.901784 1629.611794 103.339992 1624.824351 110.216406 C 1624.48574 110.758185 1624.319039 111.263497 1624.319039 111.732343 C 1624.319039 113.352468 1626.626805 114.545422 1631.242338 115.321624 C 1635.863081 116.097825 1642.671773 116.75421 1651.668416 117.295988 C 1660.665059 117.832557 1670.255574 118.707737 1680.434752 119.921528 C 1690.613929 121.13532 1700.131513 123.245129 1708.99792 126.240537 C 1717.859119 129.241154 1724.787628 133.674358 1729.773028 139.540148 C 1733.685292 144.056703 1735.638819 149.781839 1735.638819 156.725976 C 1735.638819 158.679503 1735.472118 160.737218 1735.133506 162.893912 C 1732.976813 172.531311 1728.762404 181.04348 1722.495489 188.425207 C 1716.228575 195.806934 1707.091278 201.599793 1695.094018 205.814201 C 1683.096758 210.02861 1667.291422 212.13321 1647.672802 212.13321 Z M 1820.765709 209.002357 L 1759.899019 209.002357 L 1759.899019 63.910004 L 1820.765709 63.910004 Z M 2068.373948 209.002357 L 1995.984053 209.002357 L 1913.982806 110.825907 L 1913.982806 209.002357 L 1853.116115 209.002357 L 1853.116115 63.910004 L 1925.51122 63.910004 L 2007.507258 161.581142 L 2007.507258 63.910004 L 2068.373948 63.910004 Z M 2194.248806 212.13321 C 2158.387261 212.13321 2131.996414 204.751483 2115.081475 189.993238 C 2100.114854 176.912421 2092.634148 159.122302 2092.634148 136.607253 C 2092.634148 114.024482 2100.114854 96.197897 2115.081475 83.12229 C 2131.996414 68.358836 2158.387261 60.977108 2194.248806 60.977108 C 2214.669674 60.977108 2231.657545 63.269247 2245.207208 67.853523 C 2258.756871 72.4378 2269.389267 78.689086 2277.104396 86.607382 C 2284.824734 94.530887 2290.096652 103.647346 2292.930569 113.956759 L 2227.813004 113.956759 C 2221.009521 104.590249 2209.819718 99.901784 2194.248806 99.901784 C 2179.553074 99.901784 2168.733139 104.116193 2161.789002 112.545011 C 2156.261823 119.348494 2153.500838 127.370978 2153.500838 136.607253 C 2153.500838 145.843529 2156.261823 153.829547 2161.789002 160.570517 C 2168.733139 168.994125 2179.553074 173.208534 2194.248806 173.208534 C 2206.110622 173.208534 2215.023914 172.182281 2220.988683 170.124566 C 2226.953452 168.066851 2231.318933 165.389217 2234.085128 162.086454 L 2210.32503 162.086454 L 2210.32503 136.607253 L 2292.930569 136.607253 L 2292.930569 209.101336 L 2267.654535 209.101336 L 2262.497224 195.046361 C 2246.384533 206.43933 2223.635061 212.13321 2194.248806 212.13321 Z M 2490.585821 209.002357 L 2321.233267 209.002357 L 2321.233267 63.910004 L 2382.099958 63.910004 L 2382.099958 173.104346 L 2490.585821 173.104346 Z M 2685.516555 209.002357 L 2510.803523 209.002357 L 2510.803523 63.910004 L 2677.530536 63.910004 L 2677.530536 99.802805 L 2571.670213 99.802805 L 2571.670213 122.552278 L 2661.152166 122.552278 L 2661.152166 150.459062 L 2571.670213 150.459062 L 2571.670213 173.104346 L 2685.516555 173.104346 Z M 2803.301206 212.13321 C 2767.44487 212.13321 2741.054024 204.751483 2724.133875 189.993238 C 2709.172464 176.980144 2701.686548 159.184815 2701.686548 136.607253 C 2701.686548 114.024482 2709.172464 96.197897 2724.133875 83.12229 C 2741.054024 68.426558 2767.44487 61.076087 2803.301206 61.076087 C 2824.331575 61.076087 2841.725779 63.488042 2855.473399 68.306742 C 2869.226229 73.125441 2879.910719 79.715339 2887.52687 88.076434 C 2895.14302 96.43232 2900.196143 106.001998 2902.691448 116.790676 L 2838.688696 116.790676 C 2832.286337 105.533151 2820.492244 99.901784 2803.301206 99.901784 C 2788.605474 99.901784 2777.790749 104.152659 2770.846612 112.643989 C 2765.319433 119.38496 2762.553239 127.370978 2762.553239 136.607253 C 2762.553239 145.843529 2765.319433 153.829547 2770.846612 160.570517 C 2777.790749 169.061848 2788.605474 173.307513 2803.301206 173.307513 C 2820.492244 173.307513 2832.286337 167.644889 2838.688696 156.324852 L 2902.691448 156.324852 C 2900.196143 167.176043 2895.14302 176.782186 2887.52687 185.138072 C 2879.910719 193.499167 2869.226229 200.083856 2855.473399 204.902555 C 2841.725779 209.726465 2824.331575 212.13321 2803.301206 212.13321 Z M 3101.66468 209.002357 L 2926.951648 209.002357 L 2926.951648 63.910004 L 3093.678662 63.910004 L 3093.678662 99.802805 L 2987.818339 99.802805 L 2987.818339 122.552278 L 3077.300292 122.552278 L 3077.300292 150.459062 L 2987.818339 150.459062 L 2987.818339 173.104346 L 3101.66468 173.104346 Z M 3295.282643 209.002357 L 3125.92488 209.002357 L 3125.92488 63.910004 L 3186.791571 63.910004 L 3186.791571 173.104346 L 3295.282643 173.104346 Z M 3484.852899 209.002357 L 3315.495136 209.002357 L 3315.495136 63.910004 L 3376.361826 63.910004 L 3376.361826 173.104346 L 3484.852899 173.104346 Z M 3484.852899 209.002357 " stroke="#000000" stroke-width="7.765387" stroke-opacity="1" stroke-miterlimit="4"/></svg>
