<?xml version="1.0" encoding="UTF-8"?>
<!-- Generator: https://ezgif.com/png-to-svg -->
<svg version="1.1" xmlns="http://www.w3.org/2000/svg" width="1160" height="792">
<path d="M0 0 C1.31 0.01 2.62 0.01 3.97 0.02 C18.49 0.26 31.1 2.99 44.19 9.44 C45.66 10.16 45.66 10.16 47.17 10.89 C60.31 17.89 69.98 28.04 74.81 42.28 C76.91 54.35 75.63 66.42 68.5 76.56 C67.42 77.87 66.31 79.17 65.19 80.44 C64.56 81.17 63.94 81.9 63.29 82.65 C50.43 96.63 30.14 104.2 11.52 105.74 C7.8 105.87 4.1 105.91 0.38 105.88 C-0.94 105.87 -2.25 105.86 -3.6 105.85 C-18.11 105.61 -30.72 102.88 -43.81 96.44 C-44.8 95.96 -45.78 95.48 -46.79 94.98 C-59.93 87.98 -69.6 77.83 -74.44 63.6 C-76.53 51.53 -75.25 39.46 -68.12 29.31 C-67.05 28 -65.94 26.71 -64.81 25.44 C-64.19 24.71 -63.56 23.98 -62.92 23.23 C-47.14 6.07 -22.54 -0.18 0 0 Z " fill="#4169E1" transform="translate(987.8125,370.5625)"/>
<path d="M0 0 C1.06 0.36 2.11 0.72 3.2 1.1 C18.97 7.06 31.71 17.38 38.82 32.77 C40.99 37.97 41.55 42.64 41.5 48.25 C41.49 49.08 41.49 49.91 41.48 50.77 C41.09 64.53 34.1 74.19 24.56 83.56 C5.14 100.42 -20.44 102.3 -45 101 C-50.59 100.35 -55.71 98.92 -61 97 C-62.6 96.44 -62.6 96.44 -64.23 95.87 C-80.07 89.8 -92.65 79.8 -99.81 64.24 C-101.98 59.03 -102.55 54.36 -102.5 48.75 C-102.49 47.92 -102.49 47.09 -102.48 46.23 C-102.12 33.76 -96.49 24.68 -87.97 15.91 C-65.57 -5.23 -28.57 -10.23 0 0 Z " fill="#76B900" transform="translate(795,278)"/>
<path d="M0 0 C1.18 0.98 2.35 1.98 3.5 3 C4.16 3.55 4.82 4.09 5.5 4.66 C12.16 10.62 18.77 20.84 19.69 29.89 C20.25 44.52 18.49 55.65 8.5 67 C7.95 67.65 7.4 68.31 6.83 68.98 C-0.99 77.59 -12.49 83.52 -23.5 87 C-24.42 87.3 -25.33 87.6 -26.28 87.9 C-49.71 94.19 -74.96 90.86 -95.86 78.97 C-99.34 76.91 -102.48 74.69 -105.5 72 C-106.16 71.45 -106.82 70.91 -107.5 70.34 C-114.16 64.38 -120.77 54.16 -121.69 45.11 C-122.25 30.48 -120.49 19.35 -110.5 8 C-109.95 7.35 -109.4 6.69 -108.83 6.02 C-101.01 -2.59 -89.51 -8.52 -78.5 -12 C-77.58 -12.3 -76.67 -12.6 -75.72 -12.9 C-50.09 -19.78 -21.61 -15.42 0 0 Z " fill="#7400FF" transform="translate(664.5,481)"/>
<path d="M0 0 C222.09 0 444.18 0 673 0 C673 0.66 673 1.32 673 2 C450.91 2 228.82 2 0 2 C0 1.34 0 0.68 0 0 Z " fill="#4169E1" transform="translate(198,426)"/>
<path d="M0 0 C191.07 0 382.14 0 579 0 C579 0.66 579 1.32 579 2 C387.93 2 196.86 2 0 2 C0 1.34 0 0.68 0 0 Z " fill="#76B900" transform="translate(66,342)"/>
<path d="M0 0 C140.91 0 281.82 0 427 0 C427 0.66 427 1.32 427 2 C286.09 2 145.18 2 0 2 C0 1.34 0 0.68 0 0 Z " fill="#76B900" transform="translate(0,278)"/>
<path d="M0 0 C125.4 0 250.8 0 380 0 C380 0.66 380 1.32 380 2 C254.6 2 129.2 2 0 2 C0 1.34 0 0.68 0 0 Z " fill="#7400FF" transform="translate(119,511)"/>
<path d="M0 0 C82.17 0 164.34 0 249 0 C249 0.66 249 1.32 249 2 C166.83 2 84.66 2 0 2 C0 1.34 0 0.68 0 0 Z " fill="#7400FF" transform="translate(0,571)"/>
</svg>
