<?xml version="1.0" encoding="UTF-8" standalone="no"?>
<!-- Generator: https://ezgif.com/png-to-svg -->

<svg
   version="1.1"
   width="3204"
   height="792"
   id="svg26"
   sodipodi:docname="logo_white.svg"
   inkscape:version="1.4.2 (ebf0e940, 2025-05-08)"
   xmlns:inkscape="http://www.inkscape.org/namespaces/inkscape"
   xmlns:sodipodi="http://sodipodi.sourceforge.net/DTD/sodipodi-0.dtd"
   xmlns="http://www.w3.org/2000/svg"
   xmlns:svg="http://www.w3.org/2000/svg">
  <sodipodi:namedview
     id="namedview1"
     pagecolor="#ffffff"
     bordercolor="#000000"
     borderopacity="0.25"
     inkscape:showpageshadow="2"
     inkscape:pageopacity="0.0"
     inkscape:pagecheckerboard="0"
     inkscape:deskcolor="#d1d1d1"
     inkscape:zoom="0.2658085"
     inkscape:cx="1352.4774"
     inkscape:cy="-321.66014"
     inkscape:window-width="1800"
     inkscape:window-height="1038"
     inkscape:window-x="0"
     inkscape:window-y="44"
     inkscape:window-maximized="0"
     inkscape:current-layer="svg26" />
  <defs
     id="defs26" />
  <path
     d="m 3031.8125,370.5625 c 1.31,0.01 2.62,0.01 3.97,0.02 14.52,0.24 27.13,2.97 40.22,9.42 1.47,0.72 1.47,0.72 2.98,1.45 13.14,7 22.81,17.15 27.64,31.39 2.1,12.07 0.82,24.14 -6.31,34.28 -1.08,1.31 -2.19,2.61 -3.31,3.88 -0.63,0.73 -1.25,1.46 -1.9,2.21 -12.86,13.98 -33.15,21.55 -51.77,23.09 -3.72,0.13 -7.42,0.17 -11.14,0.14 -1.32,-0.01 -2.63,-0.02 -3.98,-0.03 -14.51,-0.24 -27.12,-2.97 -40.21,-9.41 -0.99,-0.48 -1.97,-0.96 -2.98,-1.46 -13.14,-7 -22.81,-17.15 -27.65,-31.38 -2.09,-12.07 -0.81,-24.14 6.32,-34.29 1.07,-1.31 2.18,-2.6 3.31,-3.87 0.62,-0.73 1.25,-1.46 1.89,-2.21 15.78,-17.16 40.38,-23.41 62.92,-23.23 z"
     fill="#4169e1"
     id="path1" />
  <path
     d="m 2839,265 c 1.06,0.36 2.11,0.72 3.2,1.1 15.77,5.96 28.51,16.28 35.62,31.67 2.17,5.2 2.73,9.87 2.68,15.48 -0.01,0.83 -0.01,1.66 -0.02,2.52 -0.39,13.76 -7.38,23.42 -16.92,32.79 -19.42,16.86 -45,18.74 -69.56,17.44 -5.59,-0.65 -10.71,-2.08 -16,-4 -1.6,-0.56 -1.6,-0.56 -3.23,-1.13 -15.84,-6.07 -28.42,-16.07 -35.58,-31.63 -2.17,-5.21 -2.74,-9.88 -2.69,-15.49 0.01,-0.83 0.01,-1.66 0.02,-2.52 0.36,-12.47 5.99,-21.55 14.51,-30.32 22.4,-21.14 59.4,-26.14 87.97,-15.91 z"
     fill="#76b900"
     id="path2" />
  <path
     d="m 2708.5,491 c 1.18,0.98 2.35,1.98 3.5,3 0.66,0.55 1.32,1.09 2,1.66 6.66,5.96 13.27,16.18 14.19,25.23 0.56,14.63 -1.2,25.76 -11.19,37.11 -0.55,0.65 -1.1,1.31 -1.67,1.98 -7.82,8.61 -19.32,14.54 -30.33,18.02 -0.92,0.3 -1.83,0.6 -2.78,0.9 -23.43,6.29 -48.68,2.96 -69.58,-8.93 -3.48,-2.06 -6.62,-4.28 -9.64,-6.97 -0.66,-0.55 -1.32,-1.09 -2,-1.66 -6.66,-5.96 -13.27,-16.18 -14.19,-25.23 -0.56,-14.63 1.2,-25.76 11.19,-37.11 0.55,-0.65 1.1,-1.31 1.67,-1.98 7.82,-8.61 19.32,-14.54 30.33,-18.02 0.92,-0.3 1.83,-0.6 2.78,-0.9 25.63,-6.88 54.11,-2.52 75.72,12.9 z"
     fill="#7400ff"
     id="path3" />
  <path
     d="m 234,526 c 761.97,0 1523.94,0 2309,0 0,1.65 0,3.3 0,5 -761.97,0 -1523.94,0 -2309,0 0,-1.65 0,-3.3 0,-5 z"
     fill="#7400ff"
     id="path4"
     style="stroke-width:1.58114" />
  <path
     d="m 401,319 c 755.04,0 1510.08,0 2288,0 0,1.65 0,3.3 0,5 -755.04,0 -1510.08,0 -2288,0 0,-1.65 0,-3.3 0,-5 z"
     fill="#76B900"
     id="path5"
     style="fill:#75b800;fill-opacity:1;stroke-width:92.8366;stroke-dasharray:none" />
  <path
     d="m 0,600 c 732.6,0 1465.2,0 2220,0 0,1.65 0,3.3 0,5 -732.6,0 -1465.2,0 -2220,0 0,-1.65 0,-3.3 0,-5 z"
     fill="#7400ff"
     id="path6"
     style="stroke-width:1.58114" />
  <path
     d="m 251,241 c 732.6,0 1465.2,0 2220,0 0,1.65 0,3.3 0,5 -732.6,0 -1465.2,0 -2220,0 0,-1.65 0,-3.3 0,-5 z"
     fill="#76b900"
     id="path7"
     style="stroke-width:158.114;stroke-dasharray:none" />
  <path
     d="m 2051,426 c 285.12,0 570.24,0 864,0 0,1.65 0,3.3 0,5 -285.12,0 -570.24,0 -864,0 0,-1.65 0,-3.3 0,-5 z"
     fill="#4169e1"
     id="path22"
     style="stroke-width:1.68144" />
  <path
     d="m 60,426 c 188.76,0 377.52,0 572,0 0,1.65 0,3.3 0,5 -188.76,0 -377.52,0 -572,0 0,-1.65 0,-3.3 0,-5 z"
     fill="#4169e1"
     id="path25"
     style="stroke-width:1.74059" />
  <path
     d="m 854.10043,418.4 c 1.6,0 4.32,0.48 6.56,0.96 1.28,-2.88 3.2,-6.56 4.64,-9.44 -9.76,-1.76 -16.48,-0.16 -23.52,2.4 -6.56,2.24 -12.32,6.08 -16.64,10.88 v 58.24 h 11.68 V 424.8 c 4.16,-3.52 9.44,-6.4 17.12,-6.4 z m 74.08004,52.32 v -40.48 c 0,-12.96 -11.52,-20.64 -23.2,-20.64 -9.6,0 -16,1.6 -24.32,6.08 l 2.88,6.72 c 6.24,-3.2 11.36,-4.96 18.4,-4.96 7.84,0 15.2,5.44 15.2,13.44 v 6.88 c -6.4,0 -11.36,0 -19.04,0 -13.44,-0.16 -24,8.16 -24.16,21.76 -0.32,12.8 10.08,22.88 22.72,23.2 13.92,0.16 24.8,-5.28 31.52,-12 z m -11.36,-1.6 c -2.08,2.24 -8.32,5.92 -15.04,5.76 -9.28,0 -16,-7.68 -16,-15.68 0,-8.8 6.72,-13.92 15.68,-13.92 5.76,-0.16 11.68,-0.16 15.36,-0.16 z m 63.04009,-59.36 c 19.04,-0.32 27.68004,17.6 27.84004,37.92 0,17.92 -8.96004,34.72 -28.16004,35.36 -7.84,0 -14.56,-2.4 -21.12,-6.4 v 41.44 l -11.52,-4.16 0.16,-92 c -0.16,0 8.96,-12 32.64,-12.32 z m -2.88,64.96 c 15.36,-0.96 17.28,-16 17.28,-27.84 0,-11.52 -1.92,-28.8 -16.48,-29.44 -9.92,-0.64 -17.92,4 -19.52,5.6 v 45.6 c 3.84,2.4 11.52,6.56 18.72,6.08 z m 52.64004,6.72 h 11.52 V 409.6 l -11.52,3.84 z m -1.92,-94.4 c 0,4.16 3.36,7.52 7.52,7.52 4.32,0 7.68,-3.36 7.68,-7.52 0,-4.32 -3.36,-7.68 -7.52,-7.68 -4.32,0 -7.68,3.36 -7.68,7.52 z m 93.2799,83.36 -0.16,-100.64 -11.2,3.84 v 41.12 c -6.72,-3.2 -13.6,-5.12 -20.96,-5.12 -19.36,-0.16 -28.96,19.68 -28.96,36.64 0,16.64 8.48,36.64 27.68,36.48 12.96,0 24,-4.8 33.6,-12.32 z m -11.36,-1.28 c -4.32,2.88 -11.52,6.56 -18.72,6.56 -14.24,0 -18.56,-17.6 -18.56,-28.64 0,-11.68 4.48,-29.76 19.2,-29.76 7.04,0.16 12.16,2.72 18.08,6.4 z m 49.2801,14.24 c 13.44,0 27.68,-7.04 27.84,-22.08 0,-6.4 -2.88,-10.56 -6.72,-13.6 -3.68,-2.88 -8.16,-4.48 -12.48,-6.24 -4.48,-1.76 -9.28,-3.68 -12.8,-5.28 -3.68,-1.6 -6.08,-3.84 -6.08,-7.84 0.16,-7.52 7.52,-11.04 14.24,-11.04 5.12,0.16 10.08,1.6 15.36,4.64 l 4.32,-6.88 c -6.4,-3.52 -13.12,-5.92 -20.32,-5.92 -12.48,0 -24.48,7.36 -24.48,20.8 0,6.56 2.88,10.56 6.72,13.28 3.68,2.88 8.16,4.48 12.48,6.08 2.24,0.64 4.48,1.6 6.56,2.4 5.28,2.08 11.52,4.16 11.68,11.04 0.32,8.8 -8.8,12.32 -16.48,12.32 -6.24,-0.16 -13.28,-2.56 -18.08,-6.24 l -4.16,6.72 c 6.08,4.64 14.24,7.84 22.4,7.84 z m 43.3599,-38.56 h 30.56 v -12.16 h -25.76 -4.8 z m 69.7599,38.56 c 13.44,0 27.68,-7.04 27.84,-22.08 0,-6.4 -2.88,-10.56 -6.72,-13.6 -3.68,-2.88 -8.16,-4.48 -12.48,-6.24 -4.48,-1.76 -9.28,-3.68 -12.8,-5.28 -3.68,-1.6 -6.08,-3.84 -6.08,-7.84 0.16,-7.52 7.52,-11.04 14.24,-11.04 5.12,0.16 10.08,1.6 15.36,4.64 l 4.32,-6.88 c -6.4,-3.52 -13.12,-5.92 -20.32,-5.92 -12.48,0 -24.48,7.36 -24.48,20.8 0,6.56 2.88,10.56 6.72,13.28 3.68,2.88 8.16,4.48 12.48,6.08 2.24,0.64 4.48,1.6 6.56,2.4 5.28,2.08 11.52,4.16 11.68,11.04 0.32,8.8 -8.8,12.32 -16.48,12.32 -6.24,-0.16 -13.28,-2.56 -18.08,-6.24 l -4.16,6.72 c 6.08,4.64 14.24,7.84 22.4,7.84 z m 45.2799,-1.92 h 11.52 V 409.6 l -11.52,3.84 z m -1.92,-94.4 c 0,4.16 3.36,7.52 7.52,7.52 4.32,0 7.68,-3.36 7.68,-7.52 0,-4.32 -3.36,-7.68 -7.52,-7.68 -4.32,0 -7.68,3.36 -7.68,7.52 z m 89.5999,94.4 v -53.6 c 0,-9.44 -7.52,-15.52 -16,-17.44 -8.32,-1.92 -16.16,-0.32 -21.92,1.28 -7.36,1.92 -12.64,5.28 -18.56,9.6 v 60.16 h 11.68 v -58.72 c 3.68,-2.56 9.6,-5.28 15.84,-5.44 10.24,-0.16 17.28,5.76 17.28,16.48 v 47.68 z m 76.32,-58.88 c -10.08,-8.8 -23.2,-12.8 -34.08,-12.8 -18.56,0 -27.52,20.96 -27.52,36.8 0,16.96 8.48,36.16 27.68,36.16 8.96,0.16 15.52,-2.56 22.72,-7.36 0.16,1.6 0,3.2 0,4.96 0,5.12 -0.16,13.92 -2.56,18.4 -4.8,9.12 -17.6,10.4 -26.56,11.68 l 1.76,7.36 c 11.84,-0.32 28.48,-4.8 34.4,-16 3.52,-6.4 4,-16.96 4,-25.44 z m -11.68,45.12 c -6.08,3.68 -11.68,7.2 -18.88,7.2 -13.92,0 -18.24,-16.8 -18.24,-28 0,-11.68 4.32,-29.12 19.04,-29.12 7.04,0 12.16,2.56 18.08,6.24 z m 54.8799,14.88 v -6.08 c -8.16,-0.32 -13.12,-2.56 -13.12,-11.84 v -94.72 l -11.36,3.68 v 91.36 c 0,12 8.96,19.04 24.48,17.6 z m 64.3201,-7.52 -2.72,-5.6 c -5.92,2.88 -11.68,5.6 -19.68,5.76 -13.12,0.48 -22.4,-11.84 -21.12,-30.08 h 42.88 c -0.32,-21.6 -7.52,-35.04 -27.04,-35.04 -20.48,0 -28,19.04 -28.16,37.44 0,11.84 4.64,22.88 12.32,29.44 8.32,7.04 21.44,6.88 31.52,4 4.64,-1.44 8.32,-3.52 12,-5.92 z m -12.48,-36.8 h -30.72 c 0.8,-10.08 4.8,-20.96 16,-20.96 10.4,0 14.88,10.88 14.88,21.12 z m 54.56,44.64 c 10.24,0 18.88,-2.88 25.76,-7.36 l -3.04,-6.08 c -6.4,3.04 -11.84,5.76 -19.36,5.6 -13.28,-0.16 -20,-15.2 -20,-27.84 0,-13.28 6.24,-29.12 18.88,-29.76 5.44,-0.32 12,1.6 16.8,3.84 l 3.36,-6.24 c -11.04,-6.88 -25.92,-7.36 -35.68,-0.64 -9.76,6.72 -15.2,19.68 -15.2,32.8 0,17.6 10.56,35.52 28.48,35.68 z m 91.68,-7.84 -2.72,-5.6 c -5.92,2.88 -11.68,5.6 -19.68,5.76 -13.12,0.48 -22.4,-11.84 -21.12,-30.08 h 42.88 c -0.32,-21.6 -7.52,-35.04 -27.04,-35.04 -20.48,0 -28,19.04 -28.16,37.44 0,11.84 4.64,22.88 12.32,29.44 8.32,7.04 21.44,6.88 31.52,4 4.64,-1.44 8.32,-3.52 12,-5.92 z m -12.48,-36.8 h -30.72 c 0.8,-10.08 4.8,-20.96 16,-20.96 10.4,0 14.88,10.88 14.88,21.12 z m 54.72,44.32 v -6.08 c -8.16,-0.32 -13.12,-2.56 -13.12,-11.84 v -94.72 l -11.36,3.68 v 91.36 c 0,12 8.96,19.04 24.48,17.6 z m 37.1201,0 v -6.08 c -8.16,-0.32 -13.12,-2.56 -13.12,-11.84 v -94.72 l -11.36,3.68 v 91.36 c 0,12 8.96,19.04 24.48,17.6 z"
     id="text26"
     style="font-weight:500;font-size:160px;font-family:Flux;-inkscape-font-specification:'Flux, Medium';fill:#ffffff;stroke:#000000"
     transform="scale(1.0240186,0.97654476)"
     aria-label="rapids-singlecell" />
</svg>
